<svg width="18" height="19" viewBox="0 0 18 19" fill="none" xmlns="http://www.w3.org/2000/svg">
<path d="M1 10.6655C1 8.77991 1 7.8371 1.58579 7.25131C2.17157 6.66553 3.11438 6.66553 5 6.66553H13C14.8856 6.66553 15.8284 6.66553 16.4142 7.25131C17 7.8371 17 8.77991 17 10.6655V11.9952C17 14.8236 17 16.2378 16.1213 17.1165C15.2426 17.9952 13.8284 17.9952 11 17.9952H7C4.17157 17.9952 2.75736 17.9952 1.87868 17.1165C1 16.2378 1 14.8236 1 11.9952V10.6655Z" stroke="#553515" stroke-width="2"/>
<path d="M13 5.72037V5C13 2.79086 11.2091 1 9 1V1C6.79086 1 5 2.79086 5 5V5.72037" stroke="#553515" stroke-width="2" stroke-linecap="round"/>
<ellipse cx="9" cy="12.3302" rx="2" ry="1.88828" fill="#553515"/>
</svg>
