<?xml version="1.0" encoding="utf-8"?>
<!-- Generator: Adobe Illustrator 25.3.1, SVG Export Plug-In . SVG Version: 6.00 Build 0)  -->
<svg version="1.1" id="Layer_1" xmlns="http://www.w3.org/2000/svg" xmlns:xlink="http://www.w3.org/1999/xlink" x="0px" y="0px"
	 viewBox="0 0 286 59" style="enable-background:new 0 0 286 59;" xml:space="preserve">
<style type="text/css">
	.st0{fill:url(#SVGID_1_);}
	.st1{fill:url(#SVGID_2_);}
	.st2{fill:url(#SVGID_3_);}
	.st3{fill:url(#SVGID_4_);}
	.st4{fill:url(#SVGID_5_);}
	.st5{fill:url(#SVGID_6_);}
	.st6{fill:url(#SVGID_7_);}
	.st7{fill:url(#SVGID_8_);}
	.st8{fill:url(#SVGID_9_);}
	.st9{fill:url(#SVGID_10_);}
</style>
<g>
	<g>
		<linearGradient id="SVGID_1_" gradientUnits="userSpaceOnUse" x1="-40.3306" y1="30.0543" x2="284.3842" y2="27.622">
			<stop  offset="0" style="stop-color:#553415"/>
			<stop  offset="0.103" style="stop-color:#66401B"/>
			<stop  offset="0.4009" style="stop-color:#9B612A"/>
			<stop  offset="0.6604" style="stop-color:#C87D32"/>
			<stop  offset="0.8688" style="stop-color:#E78F37"/>
			<stop  offset="1" style="stop-color:#F89939"/>
		</linearGradient>
		<path class="st0" d="M69.6,43.7V14.6h7.8V38h12v5.8H69.6z"/>
		<linearGradient id="SVGID_2_" gradientUnits="userSpaceOnUse" x1="-40.3276" y1="30.4495" x2="284.3871" y2="28.0172">
			<stop  offset="0" style="stop-color:#553415"/>
			<stop  offset="0.103" style="stop-color:#66401B"/>
			<stop  offset="0.4009" style="stop-color:#9B612A"/>
			<stop  offset="0.6604" style="stop-color:#C87D32"/>
			<stop  offset="0.8688" style="stop-color:#E78F37"/>
			<stop  offset="1" style="stop-color:#F89939"/>
		</linearGradient>
		<path class="st1" d="M117,37.8c-0.6,1.4-1.5,2.6-2.6,3.6c-1.1,0.9-2.5,1.6-4,2.1c-1.6,0.5-3.3,0.7-5.2,0.7c-1.9,0-3.6-0.2-5.2-0.7
			c-1.6-0.4-2.9-1.1-4.1-2.1c-1.1-0.9-2-2.2-2.6-3.6c-0.6-1.5-0.9-3.2-0.9-5.2V14.6h7.8v16.9c0,2.1,0.4,3.8,1.1,5.1
			c0.8,1.3,2.1,1.9,3.9,1.9c0.9,0,1.7-0.2,2.3-0.5c0.6-0.3,1.2-0.8,1.6-1.4c0.4-0.6,0.7-1.4,0.9-2.2c0.2-0.9,0.3-1.8,0.3-2.8V14.6
			h7.8v18.1C117.9,34.7,117.6,36.4,117,37.8z"/>
		<linearGradient id="SVGID_3_" gradientUnits="userSpaceOnUse" x1="-40.3273" y1="30.497" x2="284.3875" y2="28.0647">
			<stop  offset="0" style="stop-color:#553415"/>
			<stop  offset="0.103" style="stop-color:#66401B"/>
			<stop  offset="0.4009" style="stop-color:#9B612A"/>
			<stop  offset="0.6604" style="stop-color:#C87D32"/>
			<stop  offset="0.8688" style="stop-color:#E78F37"/>
			<stop  offset="1" style="stop-color:#F89939"/>
		</linearGradient>
		<path class="st2" d="M142.8,44c-1.3,0.2-2.7,0.3-4.2,0.3c-2,0-4-0.3-6-0.8c-2-0.5-3.8-1.4-5.4-2.6c-1.6-1.2-2.9-2.7-3.9-4.6
			s-1.5-4.2-1.5-6.9c0-2.5,0.4-4.8,1.3-6.7c0.8-1.9,2-3.5,3.5-4.8c1.5-1.3,3.2-2.2,5.3-2.9c2-0.6,4.2-0.9,6.6-0.9
			c1.2,0,2.5,0.1,3.8,0.3c1.3,0.2,3,0.6,4.9,1.2l-0.6,6.3c-1.4-0.8-2.8-1.4-4-1.6c-1.2-0.3-2.4-0.4-3.6-0.4c-1.4,0-2.7,0.2-3.8,0.7
			c-1.1,0.5-2.1,1.1-2.9,2c-0.8,0.8-1.4,1.8-1.8,3c-0.4,1.2-0.6,2.4-0.6,3.8c0,1.4,0.2,2.7,0.7,3.9c0.5,1.1,1.2,2.1,2,2.9
			c0.9,0.8,1.9,1.4,3.1,1.8c1.2,0.4,2.5,0.6,3.9,0.6c1.1,0,2.2-0.1,3.4-0.3c1.2-0.2,2.5-0.6,3.9-1.2l0.4,6.1
			C145.6,43.5,144.1,43.8,142.8,44z"/>
		<linearGradient id="SVGID_4_" gradientUnits="userSpaceOnUse" x1="-40.3258" y1="30.6891" x2="284.3889" y2="28.2568">
			<stop  offset="0" style="stop-color:#553415"/>
			<stop  offset="0.103" style="stop-color:#66401B"/>
			<stop  offset="0.4009" style="stop-color:#9B612A"/>
			<stop  offset="0.6604" style="stop-color:#C87D32"/>
			<stop  offset="0.8688" style="stop-color:#E78F37"/>
			<stop  offset="1" style="stop-color:#F89939"/>
		</linearGradient>
		<path class="st3" d="M167.7,43.7l-9.1-13.2h-0.1v13.2h-7.8V14.6h7.8v11.9h0.1l8.8-11.9h9.4L166,28.2l11.6,15.6H167.7z"/>
		<linearGradient id="SVGID_5_" gradientUnits="userSpaceOnUse" x1="-40.3246" y1="30.8548" x2="284.3901" y2="28.4225">
			<stop  offset="0" style="stop-color:#553415"/>
			<stop  offset="0.103" style="stop-color:#66401B"/>
			<stop  offset="0.4009" style="stop-color:#9B612A"/>
			<stop  offset="0.6604" style="stop-color:#C87D32"/>
			<stop  offset="0.8688" style="stop-color:#E78F37"/>
			<stop  offset="1" style="stop-color:#F89939"/>
		</linearGradient>
		<path class="st4" d="M207.6,35.7c-0.8,1.9-1.9,3.4-3.4,4.6c-1.5,1.2-3.3,2.1-5.4,2.7c-2.1,0.6-4.6,0.9-7.2,0.9h-10.6V14.6h10.7
			c2.6,0,5,0.2,7.1,0.7c2.1,0.5,3.9,1.3,5.4,2.4c1.5,1.1,2.6,2.6,3.4,4.5c0.8,1.9,1.2,4.1,1.2,6.9C208.8,31.6,208.4,33.8,207.6,35.7
			z M199.8,24.5c-0.7-1.2-1.4-2.1-2.4-2.7c-0.9-0.6-1.9-1-2.9-1.2c-1-0.2-1.9-0.3-2.7-0.3h-3.1V38h3.1c0.9,0,1.9-0.1,3-0.4
			c1.1-0.2,2-0.7,2.9-1.3c0.9-0.6,1.6-1.5,2.2-2.7c0.6-1.1,0.9-2.6,0.9-4.4C200.8,27.3,200.5,25.7,199.8,24.5z"/>
		<linearGradient id="SVGID_6_" gradientUnits="userSpaceOnUse" x1="-40.322" y1="31.2008" x2="284.3927" y2="28.7684">
			<stop  offset="0" style="stop-color:#553415"/>
			<stop  offset="0.103" style="stop-color:#66401B"/>
			<stop  offset="0.4009" style="stop-color:#9B612A"/>
			<stop  offset="0.6604" style="stop-color:#C87D32"/>
			<stop  offset="0.8688" style="stop-color:#E78F37"/>
			<stop  offset="1" style="stop-color:#F89939"/>
		</linearGradient>
		<path class="st5" d="M234.4,43.7l-2.2-6.2h-10.9l-2.3,6.2h-7.9l11.1-29.2h9.5l11.2,29.2H234.4z M226.9,20.6L226.9,20.6L223,32h7.3
			L226.9,20.6z"/>
		<linearGradient id="SVGID_7_" gradientUnits="userSpaceOnUse" x1="-40.3205" y1="31.4024" x2="284.3943" y2="28.9701">
			<stop  offset="0" style="stop-color:#553415"/>
			<stop  offset="0.103" style="stop-color:#66401B"/>
			<stop  offset="0.4009" style="stop-color:#9B612A"/>
			<stop  offset="0.6604" style="stop-color:#C87D32"/>
			<stop  offset="0.8688" style="stop-color:#E78F37"/>
			<stop  offset="1" style="stop-color:#F89939"/>
		</linearGradient>
		<path class="st6" d="M273.1,35.4c-0.6,1.9-1.6,3.5-2.8,4.8c-1.2,1.3-2.8,2.3-4.6,3c-1.8,0.7-3.9,1-6.3,1c-2.4,0-4.5-0.3-6.3-1
			c-1.8-0.7-3.3-1.7-4.6-3c-1.2-1.3-2.2-2.9-2.8-4.8c-0.6-1.9-0.9-4-0.9-6.3c0-2.3,0.3-4.3,0.9-6.2c0.6-1.9,1.5-3.5,2.7-4.8
			c1.2-1.3,2.7-2.3,4.6-3c1.8-0.7,4-1.1,6.5-1.1s4.6,0.4,6.5,1.1c1.8,0.7,3.3,1.7,4.6,3s2.1,2.9,2.7,4.8c0.6,1.9,0.9,3.9,0.9,6.2
			C274.1,31.5,273.8,33.6,273.1,35.4z M265.7,25.4c-0.3-1.1-0.7-2.1-1.2-2.9c-0.5-0.8-1.2-1.5-2-1.9c-0.8-0.5-1.8-0.7-2.9-0.7
			s-2.1,0.2-2.9,0.7c-0.8,0.5-1.5,1.1-2,1.9c-0.5,0.8-0.9,1.8-1.2,2.9c-0.3,1.1-0.4,2.4-0.4,3.7c0,1.2,0.1,2.3,0.4,3.4
			c0.2,1.1,0.6,2.1,1.1,3c0.5,0.9,1.2,1.6,2,2.1c0.8,0.5,1.9,0.8,3,0.8s2.2-0.3,3-0.8c0.8-0.5,1.5-1.2,2-2.1c0.5-0.9,0.9-1.9,1.1-3
			c0.2-1.1,0.4-2.3,0.4-3.4C266.1,27.8,265.9,26.6,265.7,25.4z"/>
		<linearGradient id="SVGID_8_" gradientUnits="userSpaceOnUse" x1="-40.2354" y1="42.7656" x2="284.4794" y2="40.3333">
			<stop  offset="0" style="stop-color:#553415"/>
			<stop  offset="0.103" style="stop-color:#66401B"/>
			<stop  offset="0.4009" style="stop-color:#9B612A"/>
			<stop  offset="0.6604" style="stop-color:#C87D32"/>
			<stop  offset="0.8688" style="stop-color:#E78F37"/>
			<stop  offset="1" style="stop-color:#F89939"/>
		</linearGradient>
		<path class="st7" d="M278.6,43.7V37h7v6.8H278.6z"/>
	</g>
	<g>
		<linearGradient id="SVGID_9_" gradientUnits="userSpaceOnUse" x1="-40.2985" y1="34.3404" x2="284.4163" y2="31.9081">
			<stop  offset="0" style="stop-color:#553415"/>
			<stop  offset="0.103" style="stop-color:#66401B"/>
			<stop  offset="0.4009" style="stop-color:#9B612A"/>
			<stop  offset="0.6604" style="stop-color:#C87D32"/>
			<stop  offset="0.8688" style="stop-color:#E78F37"/>
			<stop  offset="1" style="stop-color:#F89939"/>
		</linearGradient>
		<path class="st8" d="M23.6,46.7l-10.1-5.8c-1.9-1.1-3.1-3.2-3.1-5.4V8.7l-7.7,4.4c-1.4,0.8-2.3,2.4-2.3,4v25c0,1.7,0.9,3.2,2.3,4
			l21.7,12.5c0.2,0.1,0.5,0.3,0.8,0.3V48.7C25.1,47.6,25.1,47.7,23.6,46.7z"/>
		<linearGradient id="SVGID_10_" gradientUnits="userSpaceOnUse" x1="-40.3305" y1="30.0617" x2="284.3842" y2="27.6294">
			<stop  offset="0" style="stop-color:#553415"/>
			<stop  offset="0.103" style="stop-color:#66401B"/>
			<stop  offset="0.4009" style="stop-color:#9B612A"/>
			<stop  offset="0.6604" style="stop-color:#C87D32"/>
			<stop  offset="0.8688" style="stop-color:#E78F37"/>
			<stop  offset="1" style="stop-color:#F89939"/>
		</linearGradient>
		<path class="st9" d="M50.7,13.1L29,0.6c-1.4-0.8-3.2-0.8-4.7,0L13.5,6.9v28.6c0,1.1,0.6,2.1,1.5,2.7L25.1,44V15
			c0-0.9,0.2-2.8,1.6-3.2s2.2,0.3,3.1,0.8l10.1,5.8c1.9,1.1,3.1,3.2,3.1,5.4v11.6c0,2.2-1.2,4.3-3.1,5.4l-10.1,5.8
			c-1.5,0.9-1.5,0.9-1.5,1.9c0,0.5,0,10.5,0,10.5c0.3-0.1,0.5-0.2,0.8-0.3l21.7-12.5c1.4-0.8,2.3-2.4,2.3-4v-25
			C53.1,15.5,52.2,14,50.7,13.1z"/>
	</g>
</g>
</svg>
