<?xml version="1.0" encoding="utf-8"?>
<!-- Generator: Adobe Illustrator 25.3.1, SVG Export Plug-In . SVG Version: 6.00 Build 0)  -->
<svg version="1.1" id="Layer_1" xmlns="http://www.w3.org/2000/svg" xmlns:xlink="http://www.w3.org/1999/xlink" x="0px" y="0px"
	 viewBox="0 0 466 134.2" style="enable-background:new 0 0 466 134.2;" xml:space="preserve">
<style type="text/css">
	.st0{fill:url(#SVGID_1_);}
	.st1{fill:url(#SVGID_2_);}
	.st2{fill:url(#SVGID_3_);}
	.st3{fill:url(#SVGID_4_);}
	.st4{fill:url(#SVGID_5_);}
	.st5{fill:url(#SVGID_6_);}
	.st6{fill:url(#SVGID_7_);}
	.st7{fill:url(#SVGID_8_);}
	.st8{fill:url(#SVGID_9_);}
	.st9{fill:url(#SVGID_10_);}
	.st10{fill:url(#SVGID_11_);}
	.st11{fill:url(#SVGID_12_);}
	.st12{fill:url(#SVGID_13_);}
	.st13{fill:url(#SVGID_14_);}
	.st14{fill:url(#SVGID_15_);}
	.st15{fill:url(#SVGID_16_);}
	.st16{fill:url(#SVGID_17_);}
	.st17{fill:url(#SVGID_18_);}
	.st18{fill:url(#SVGID_19_);}
	.st19{fill:url(#SVGID_20_);}
</style>
<g>
	<radialGradient id="SVGID_1_" cx="217.8707" cy="28.8359" r="483.2474" gradientUnits="userSpaceOnUse">
		<stop  offset="0.1106" style="stop-color:#FDB714"/>
		<stop  offset="0.1707" style="stop-color:#E7AA20"/>
		<stop  offset="0.2737" style="stop-color:#C3922D"/>
	</radialGradient>
	<path class="st0" d="M59.4,54.8V7.9h12.5v37.6h19.3v9.3H59.4z"/>
	<radialGradient id="SVGID_2_" cx="217.8707" cy="28.8359" r="483.2474" gradientUnits="userSpaceOnUse">
		<stop  offset="0.1106" style="stop-color:#FDB714"/>
		<stop  offset="0.1707" style="stop-color:#E7AA20"/>
		<stop  offset="0.2737" style="stop-color:#C3922D"/>
		<stop  offset="0.288" style="stop-color:#B78A2E"/>
		<stop  offset="0.3591" style="stop-color:#866930"/>
		<stop  offset="0.4339" style="stop-color:#604E2C"/>
		<stop  offset="0.5112" style="stop-color:#443A26"/>
		<stop  offset="0.5917" style="stop-color:#2F2A1E"/>
		<stop  offset="0.6764" style="stop-color:#1E1C15"/>
		<stop  offset="0.767" style="stop-color:#100F0C"/>
		<stop  offset="0.868" style="stop-color:#050504"/>
		<stop  offset="1" style="stop-color:#010101"/>
	</radialGradient>
	<path class="st1" d="M135.6,45.3c-1,2.3-2.4,4.3-4.2,5.8c-1.8,1.5-4,2.6-6.5,3.4c-2.5,0.7-5.3,1.1-8.3,1.1c-3,0-5.8-0.4-8.3-1.1
		c-2.5-0.7-4.7-1.8-6.5-3.4c-1.8-1.5-3.2-3.5-4.2-5.8c-1-2.4-1.5-5.1-1.5-8.4V7.9h12.5V35c0,3.4,0.6,6.2,1.8,8.2
		c1.2,2,3.3,3.1,6.2,3.1c1.5,0,2.7-0.3,3.8-0.8c1-0.6,1.9-1.3,2.5-2.3c0.6-1,1.1-2.2,1.4-3.6c0.3-1.4,0.4-2.9,0.4-4.6V7.9h12.5v29.1
		C137.1,40.2,136.6,43,135.6,45.3z"/>
	<radialGradient id="SVGID_3_" cx="217.8707" cy="28.8359" r="483.2474" gradientUnits="userSpaceOnUse">
		<stop  offset="0.1106" style="stop-color:#FDB714"/>
		<stop  offset="0.1707" style="stop-color:#E7AA20"/>
		<stop  offset="0.2737" style="stop-color:#C3922D"/>
		<stop  offset="0.288" style="stop-color:#B78A2E"/>
		<stop  offset="0.3591" style="stop-color:#866930"/>
		<stop  offset="0.4339" style="stop-color:#604E2C"/>
		<stop  offset="0.5112" style="stop-color:#443A26"/>
		<stop  offset="0.5917" style="stop-color:#2F2A1E"/>
		<stop  offset="0.6764" style="stop-color:#1E1C15"/>
		<stop  offset="0.767" style="stop-color:#100F0C"/>
		<stop  offset="0.868" style="stop-color:#050504"/>
		<stop  offset="1" style="stop-color:#010101"/>
	</radialGradient>
	<path class="st2" d="M177.1,55.1c-2.1,0.3-4.3,0.4-6.7,0.4c-3.2,0-6.4-0.4-9.6-1.3c-3.2-0.9-6.1-2.2-8.7-4.1
		c-2.6-1.9-4.7-4.4-6.3-7.4c-1.6-3-2.4-6.8-2.4-11.1c0-4.1,0.7-7.6,2-10.7c1.3-3.1,3.2-5.6,5.6-7.7c2.4-2.1,5.2-3.6,8.5-4.6
		c3.2-1,6.8-1.5,10.6-1.5c1.9,0,3.9,0.2,6.1,0.5c2.1,0.3,4.8,1,8,1.9l-1,10.1c-2.3-1.3-4.5-2.2-6.4-2.6c-2-0.4-3.9-0.7-5.7-0.7
		c-2.2,0-4.3,0.4-6.1,1.1c-1.8,0.8-3.4,1.8-4.6,3.2c-1.3,1.3-2.3,2.9-3,4.8c-0.7,1.9-1,3.9-1,6.1c0,2.3,0.4,4.4,1.2,6.2
		c0.8,1.8,1.9,3.4,3.3,4.6c1.4,1.3,3,2.2,4.9,2.9c1.9,0.7,4,1,6.3,1c1.7,0,3.5-0.2,5.4-0.5c1.9-0.4,3.9-1,6.3-1.9l0.6,9.8
		C181.6,54.4,179.2,54.9,177.1,55.1z"/>
	<radialGradient id="SVGID_4_" cx="217.8707" cy="28.8359" r="483.2474" gradientUnits="userSpaceOnUse">
		<stop  offset="0.1106" style="stop-color:#FDB714"/>
		<stop  offset="0.1707" style="stop-color:#E7AA20"/>
		<stop  offset="0.2737" style="stop-color:#C3922D"/>
		<stop  offset="0.288" style="stop-color:#B78A2E"/>
		<stop  offset="0.3591" style="stop-color:#866930"/>
		<stop  offset="0.4339" style="stop-color:#604E2C"/>
		<stop  offset="0.5112" style="stop-color:#443A26"/>
		<stop  offset="0.5917" style="stop-color:#2F2A1E"/>
		<stop  offset="0.6764" style="stop-color:#1E1C15"/>
		<stop  offset="0.767" style="stop-color:#100F0C"/>
		<stop  offset="0.868" style="stop-color:#050504"/>
		<stop  offset="1" style="stop-color:#010101"/>
	</radialGradient>
	<path class="st3" d="M217.1,54.8l-14.6-21.3h-0.1v21.3h-12.5V7.9h12.5v19.1h0.1l14.1-19.1h15l-17.3,21.8l18.7,25H217.1z"/>
	<radialGradient id="SVGID_5_" cx="217.8707" cy="28.8359" r="483.2474" gradientUnits="userSpaceOnUse">
		<stop  offset="0.1106" style="stop-color:#FDB714"/>
		<stop  offset="0.1707" style="stop-color:#E7AA20"/>
		<stop  offset="0.2737" style="stop-color:#C3922D"/>
		<stop  offset="0.288" style="stop-color:#B78A2E"/>
		<stop  offset="0.3591" style="stop-color:#866930"/>
		<stop  offset="0.4339" style="stop-color:#604E2C"/>
		<stop  offset="0.5112" style="stop-color:#443A26"/>
		<stop  offset="0.5917" style="stop-color:#2F2A1E"/>
		<stop  offset="0.6764" style="stop-color:#1E1C15"/>
		<stop  offset="0.767" style="stop-color:#100F0C"/>
		<stop  offset="0.868" style="stop-color:#050504"/>
		<stop  offset="1" style="stop-color:#010101"/>
	</radialGradient>
	<path class="st4" d="M281.2,41.8c-1.3,3-3.1,5.4-5.5,7.3c-2.4,1.9-5.3,3.3-8.7,4.3c-3.4,0.9-7.3,1.4-11.6,1.4h-17V7.9h17.2
		c4.2,0,8,0.4,11.4,1.1c3.4,0.8,6.3,2,8.7,3.9c2.4,1.8,4.2,4.2,5.5,7.2s1.9,6.7,1.9,11C283.1,35.3,282.5,38.8,281.2,41.8z
		 M268.7,23.9c-1.1-1.9-2.3-3.3-3.8-4.3c-1.5-1-3.1-1.7-4.7-1.9c-1.7-0.3-3.1-0.4-4.3-0.4h-5v28.3h5c1.5,0,3.1-0.2,4.8-0.6
		c1.7-0.4,3.3-1.1,4.7-2.1c1.4-1,2.6-2.5,3.5-4.3c0.9-1.8,1.4-4.2,1.4-7.1C270.3,28.3,269.7,25.8,268.7,23.9z"/>
	<radialGradient id="SVGID_6_" cx="217.8707" cy="28.8359" r="483.2474" gradientUnits="userSpaceOnUse">
		<stop  offset="0.1106" style="stop-color:#FDB714"/>
		<stop  offset="0.1707" style="stop-color:#E7AA20"/>
		<stop  offset="0.2737" style="stop-color:#C3922D"/>
		<stop  offset="0.288" style="stop-color:#B78A2E"/>
		<stop  offset="0.3591" style="stop-color:#866930"/>
		<stop  offset="0.4339" style="stop-color:#604E2C"/>
		<stop  offset="0.5112" style="stop-color:#443A26"/>
		<stop  offset="0.5917" style="stop-color:#2F2A1E"/>
		<stop  offset="0.6764" style="stop-color:#1E1C15"/>
		<stop  offset="0.767" style="stop-color:#100F0C"/>
		<stop  offset="0.868" style="stop-color:#050504"/>
		<stop  offset="1" style="stop-color:#010101"/>
	</radialGradient>
	<path class="st5" d="M324.2,54.8l-3.5-10h-17.6l-3.7,10h-12.7l17.8-46.8h15.3l18.1,46.8H324.2z M312.2,17.6h-0.1l-6,18.3h11.7
		L312.2,17.6z"/>
	<radialGradient id="SVGID_7_" cx="217.8707" cy="28.8359" r="483.2474" gradientUnits="userSpaceOnUse">
		<stop  offset="0.1106" style="stop-color:#FDB714"/>
		<stop  offset="0.1707" style="stop-color:#E7AA20"/>
		<stop  offset="0.2737" style="stop-color:#C3922D"/>
		<stop  offset="0.288" style="stop-color:#B78A2E"/>
		<stop  offset="0.3591" style="stop-color:#866930"/>
		<stop  offset="0.4339" style="stop-color:#604E2C"/>
		<stop  offset="0.5112" style="stop-color:#443A26"/>
		<stop  offset="0.5917" style="stop-color:#2F2A1E"/>
		<stop  offset="0.6764" style="stop-color:#1E1C15"/>
		<stop  offset="0.767" style="stop-color:#100F0C"/>
		<stop  offset="0.868" style="stop-color:#050504"/>
		<stop  offset="1" style="stop-color:#010101"/>
	</radialGradient>
	<path class="st6" d="M386.5,41.4c-1,3-2.5,5.5-4.5,7.6c-2,2.1-4.5,3.7-7.4,4.8c-2.9,1.1-6.3,1.7-10.1,1.7c-3.8,0-7.2-0.6-10.1-1.7
		c-2.9-1.1-5.4-2.7-7.3-4.8c-2-2.1-3.5-4.7-4.5-7.6c-1-3-1.5-6.4-1.5-10.1c0-3.6,0.5-6.9,1.4-9.9c1-3,2.4-5.5,4.4-7.6
		s4.4-3.7,7.3-4.9c2.9-1.2,6.4-1.7,10.4-1.7s7.4,0.6,10.4,1.7c2.9,1.2,5.4,2.8,7.3,4.9c1.9,2.1,3.4,4.7,4.4,7.6c1,3,1.4,6.3,1.4,9.9
		C388,35.1,387.5,38.4,386.5,41.4z M374.5,25.4c-0.4-1.8-1.1-3.4-1.9-4.7c-0.9-1.3-2-2.4-3.3-3.1c-1.3-0.8-2.9-1.1-4.7-1.1
		s-3.4,0.4-4.7,1.1c-1.3,0.8-2.4,1.8-3.3,3.1c-0.9,1.3-1.5,2.9-1.9,4.7c-0.4,1.8-0.6,3.8-0.6,6c0,1.9,0.2,3.7,0.6,5.5
		c0.4,1.8,1,3.4,1.8,4.8s1.9,2.5,3.3,3.4c1.3,0.9,3,1.3,4.9,1.3c1.9,0,3.6-0.4,4.9-1.3c1.3-0.8,2.4-2,3.3-3.4s1.5-3,1.8-4.8
		c0.4-1.8,0.6-3.6,0.6-5.5C375.1,29.2,374.9,27.2,374.5,25.4z"/>
	<radialGradient id="SVGID_8_" cx="217.8707" cy="28.8359" r="483.2474" gradientUnits="userSpaceOnUse">
		<stop  offset="0.1106" style="stop-color:#FDB714"/>
		<stop  offset="0.1707" style="stop-color:#E7AA20"/>
		<stop  offset="0.2737" style="stop-color:#C3922D"/>
		<stop  offset="0.288" style="stop-color:#B78A2E"/>
		<stop  offset="0.3591" style="stop-color:#866930"/>
		<stop  offset="0.4339" style="stop-color:#604E2C"/>
		<stop  offset="0.5112" style="stop-color:#443A26"/>
		<stop  offset="0.5917" style="stop-color:#2F2A1E"/>
		<stop  offset="0.6764" style="stop-color:#1E1C15"/>
		<stop  offset="0.767" style="stop-color:#100F0C"/>
		<stop  offset="0.868" style="stop-color:#050504"/>
		<stop  offset="1" style="stop-color:#010101"/>
	</radialGradient>
	<path class="st7" d="M395.3,54.8V43.9h11.3v10.9H395.3z"/>
</g>
<g>
	<g>
		<radialGradient id="SVGID_9_" cx="228.5247" cy="64.9891" r="857.3917" gradientUnits="userSpaceOnUse">
			<stop  offset="0.1106" style="stop-color:#FDB714"/>
			<stop  offset="0.1707" style="stop-color:#E7AA20"/>
			<stop  offset="0.2737" style="stop-color:#C3922D"/>
			<stop  offset="0.288" style="stop-color:#B78A2E"/>
			<stop  offset="0.3591" style="stop-color:#866930"/>
			<stop  offset="0.4339" style="stop-color:#604E2C"/>
			<stop  offset="0.5112" style="stop-color:#443A26"/>
			<stop  offset="0.5917" style="stop-color:#2F2A1E"/>
			<stop  offset="0.6764" style="stop-color:#1E1C15"/>
			<stop  offset="0.767" style="stop-color:#100F0C"/>
			<stop  offset="0.868" style="stop-color:#050504"/>
			<stop  offset="1" style="stop-color:#010101"/>
		</radialGradient>
		<path class="st8" d="M58,119.8H77v5.8H50.8V83.9H58V119.8z"/>
		<radialGradient id="SVGID_10_" cx="228.5247" cy="64.9891" r="857.3917" gradientUnits="userSpaceOnUse">
			<stop  offset="0.1106" style="stop-color:#FDB714"/>
			<stop  offset="0.1707" style="stop-color:#E7AA20"/>
			<stop  offset="0.2737" style="stop-color:#C3922D"/>
			<stop  offset="0.288" style="stop-color:#B78A2E"/>
			<stop  offset="0.3591" style="stop-color:#866930"/>
			<stop  offset="0.4339" style="stop-color:#604E2C"/>
			<stop  offset="0.5112" style="stop-color:#443A26"/>
			<stop  offset="0.5917" style="stop-color:#2F2A1E"/>
			<stop  offset="0.6764" style="stop-color:#1E1C15"/>
			<stop  offset="0.767" style="stop-color:#100F0C"/>
			<stop  offset="0.868" style="stop-color:#050504"/>
			<stop  offset="1" style="stop-color:#010101"/>
		</radialGradient>
		<path class="st9" d="M112.3,83.9v27.9c0,4.4-1.4,7.9-4.3,10.5c-2.8,2.6-6.6,3.9-11.3,3.9c-4.8,0-8.6-1.3-11.4-3.8
			c-2.8-2.5-4.2-6.1-4.2-10.6V83.9h7.2v27.9c0,2.8,0.7,4.9,2.1,6.4c1.4,1.5,3.5,2.2,6.2,2.2c5.6,0,8.4-2.9,8.4-8.8V83.9H112.3z"/>
		<radialGradient id="SVGID_11_" cx="228.5247" cy="64.9891" r="857.3917" gradientUnits="userSpaceOnUse">
			<stop  offset="0.1106" style="stop-color:#FDB714"/>
			<stop  offset="0.1707" style="stop-color:#E7AA20"/>
			<stop  offset="0.2737" style="stop-color:#C3922D"/>
			<stop  offset="0.288" style="stop-color:#B78A2E"/>
			<stop  offset="0.3591" style="stop-color:#866930"/>
			<stop  offset="0.4339" style="stop-color:#604E2C"/>
			<stop  offset="0.5112" style="stop-color:#443A26"/>
			<stop  offset="0.5917" style="stop-color:#2F2A1E"/>
			<stop  offset="0.6764" style="stop-color:#1E1C15"/>
			<stop  offset="0.767" style="stop-color:#100F0C"/>
			<stop  offset="0.868" style="stop-color:#050504"/>
			<stop  offset="1" style="stop-color:#010101"/>
		</radialGradient>
		<path class="st10" d="M151.9,112c-0.4,4.4-2.1,7.9-4.9,10.4c-2.9,2.5-6.7,3.7-11.4,3.7c-3.3,0-6.2-0.8-8.8-2.4
			c-2.5-1.6-4.5-3.8-5.9-6.7c-1.4-2.9-2.1-6.3-2.1-10.1v-3.9c0-3.9,0.7-7.4,2.1-10.4c1.4-3,3.4-5.3,6-6.9c2.6-1.6,5.6-2.4,9-2.4
			c4.6,0,8.3,1.2,11.1,3.7c2.8,2.5,4.4,6,4.9,10.6h-7.2c-0.3-3-1.2-5.2-2.6-6.5c-1.4-1.3-3.5-2-6.2-2c-3.2,0-5.6,1.2-7.3,3.5
			c-1.7,2.3-2.6,5.7-2.6,10.1v3.7c0,4.5,0.8,8,2.4,10.3c1.6,2.4,4,3.6,7.1,3.6c2.8,0,5-0.6,6.4-1.9c1.4-1.3,2.3-3.4,2.7-6.4H151.9z"
			/>
		<radialGradient id="SVGID_12_" cx="228.5247" cy="64.9891" r="857.3917" gradientUnits="userSpaceOnUse">
			<stop  offset="0.1106" style="stop-color:#FDB714"/>
			<stop  offset="0.1707" style="stop-color:#E7AA20"/>
			<stop  offset="0.2737" style="stop-color:#C3922D"/>
			<stop  offset="0.288" style="stop-color:#B78A2E"/>
			<stop  offset="0.3591" style="stop-color:#866930"/>
			<stop  offset="0.4339" style="stop-color:#604E2C"/>
			<stop  offset="0.5112" style="stop-color:#443A26"/>
			<stop  offset="0.5917" style="stop-color:#2F2A1E"/>
			<stop  offset="0.6764" style="stop-color:#1E1C15"/>
			<stop  offset="0.767" style="stop-color:#100F0C"/>
			<stop  offset="0.868" style="stop-color:#050504"/>
			<stop  offset="1" style="stop-color:#010101"/>
		</radialGradient>
		<path class="st11" d="M170.3,107.6l-4.7,5v13h-7.2V83.9h7.2v19.6l4-5l12.2-14.6h8.8l-15.5,18.5l16.4,23.2h-8.6L170.3,107.6z"/>
		<radialGradient id="SVGID_13_" cx="228.5247" cy="64.9891" r="857.3917" gradientUnits="userSpaceOnUse">
			<stop  offset="0.1106" style="stop-color:#FDB714"/>
			<stop  offset="0.1707" style="stop-color:#E7AA20"/>
			<stop  offset="0.2737" style="stop-color:#C3922D"/>
		</radialGradient>
		<path class="st12" d="M209,103.7l9.6-19.8h8l-14,26.4v15.4h-7.3v-15.4l-14-26.4h8.1L209,103.7z"/>
		<radialGradient id="SVGID_14_" cx="228.5247" cy="64.9891" r="857.3917" gradientUnits="userSpaceOnUse">
			<stop  offset="0.1106" style="stop-color:#FDB714"/>
			<stop  offset="0.1707" style="stop-color:#E7AA20"/>
			<stop  offset="0.2737" style="stop-color:#C3922D"/>
			<stop  offset="0.288" style="stop-color:#B78A2E"/>
			<stop  offset="0.3591" style="stop-color:#866930"/>
			<stop  offset="0.4339" style="stop-color:#604E2C"/>
			<stop  offset="0.5112" style="stop-color:#443A26"/>
			<stop  offset="0.5917" style="stop-color:#2F2A1E"/>
			<stop  offset="0.6764" style="stop-color:#1E1C15"/>
			<stop  offset="0.767" style="stop-color:#100F0C"/>
			<stop  offset="0.868" style="stop-color:#050504"/>
			<stop  offset="1" style="stop-color:#010101"/>
		</radialGradient>
		<path class="st13" d="M253,110.2v15.5h-7.2V83.9h16c4.7,0,8.4,1.2,11.1,3.6c2.7,2.4,4.1,5.6,4.1,9.6c0,4.1-1.3,7.3-4,9.6
			c-2.7,2.3-6.4,3.4-11.3,3.4H253z M253,104.3h8.7c2.6,0,4.5-0.6,5.9-1.8c1.4-1.2,2-3,2-5.3c0-2.3-0.7-4.1-2.1-5.4
			c-1.4-1.3-3.3-2-5.7-2.1H253V104.3z"/>
		<radialGradient id="SVGID_15_" cx="228.5247" cy="64.9891" r="857.3917" gradientUnits="userSpaceOnUse">
			<stop  offset="0.1106" style="stop-color:#FDB714"/>
			<stop  offset="0.1707" style="stop-color:#E7AA20"/>
			<stop  offset="0.2737" style="stop-color:#C3922D"/>
			<stop  offset="0.288" style="stop-color:#B78A2E"/>
			<stop  offset="0.3591" style="stop-color:#866930"/>
			<stop  offset="0.4339" style="stop-color:#604E2C"/>
			<stop  offset="0.5112" style="stop-color:#443A26"/>
			<stop  offset="0.5917" style="stop-color:#2F2A1E"/>
			<stop  offset="0.6764" style="stop-color:#1E1C15"/>
			<stop  offset="0.767" style="stop-color:#100F0C"/>
			<stop  offset="0.868" style="stop-color:#050504"/>
			<stop  offset="1" style="stop-color:#010101"/>
		</radialGradient>
		<path class="st14" d="M301.4,115.9h-16.2l-3.4,9.7h-7.5l15.8-41.7h6.5l15.8,41.7h-7.6L301.4,115.9z M287.3,110.1h12.1l-6-17.3
			L287.3,110.1z"/>
		<radialGradient id="SVGID_16_" cx="228.5247" cy="64.9891" r="857.3917" gradientUnits="userSpaceOnUse">
			<stop  offset="0.1106" style="stop-color:#FDB714"/>
			<stop  offset="0.1707" style="stop-color:#E7AA20"/>
			<stop  offset="0.2737" style="stop-color:#C3922D"/>
			<stop  offset="0.288" style="stop-color:#B78A2E"/>
			<stop  offset="0.3591" style="stop-color:#866930"/>
			<stop  offset="0.4339" style="stop-color:#604E2C"/>
			<stop  offset="0.5112" style="stop-color:#443A26"/>
			<stop  offset="0.5917" style="stop-color:#2F2A1E"/>
			<stop  offset="0.6764" style="stop-color:#1E1C15"/>
			<stop  offset="0.767" style="stop-color:#100F0C"/>
			<stop  offset="0.868" style="stop-color:#050504"/>
			<stop  offset="1" style="stop-color:#010101"/>
		</radialGradient>
		<path class="st15" d="M324.4,110.2v15.5h-7.2V83.9h16c4.7,0,8.4,1.2,11.1,3.6c2.7,2.4,4.1,5.6,4.1,9.6c0,4.1-1.3,7.3-4,9.6
			c-2.7,2.3-6.4,3.4-11.3,3.4H324.4z M324.4,104.3h8.7c2.6,0,4.5-0.6,5.9-1.8c1.4-1.2,2-3,2-5.3c0-2.3-0.7-4.1-2.1-5.4
			c-1.4-1.3-3.3-2-5.7-2.1h-8.9V104.3z"/>
		<radialGradient id="SVGID_17_" cx="228.5247" cy="64.9891" r="857.3917" gradientUnits="userSpaceOnUse">
			<stop  offset="0.1106" style="stop-color:#FDB714"/>
			<stop  offset="0.1707" style="stop-color:#E7AA20"/>
			<stop  offset="0.2737" style="stop-color:#C3922D"/>
			<stop  offset="0.288" style="stop-color:#B78A2E"/>
			<stop  offset="0.3591" style="stop-color:#866930"/>
			<stop  offset="0.4339" style="stop-color:#604E2C"/>
			<stop  offset="0.5112" style="stop-color:#443A26"/>
			<stop  offset="0.5917" style="stop-color:#2F2A1E"/>
			<stop  offset="0.6764" style="stop-color:#1E1C15"/>
			<stop  offset="0.767" style="stop-color:#100F0C"/>
			<stop  offset="0.868" style="stop-color:#050504"/>
			<stop  offset="1" style="stop-color:#010101"/>
		</radialGradient>
		<path class="st16" d="M379,107h-17.1v12.8h20v5.8h-27.3V83.9h27.1v5.8h-19.8v11.5H379V107z"/>
		<radialGradient id="SVGID_18_" cx="228.5247" cy="64.9891" r="857.3917" gradientUnits="userSpaceOnUse">
			<stop  offset="0.1106" style="stop-color:#FDB714"/>
			<stop  offset="0.1707" style="stop-color:#E7AA20"/>
			<stop  offset="0.2737" style="stop-color:#C3922D"/>
			<stop  offset="0.288" style="stop-color:#B78A2E"/>
			<stop  offset="0.3591" style="stop-color:#866930"/>
			<stop  offset="0.4339" style="stop-color:#604E2C"/>
			<stop  offset="0.5112" style="stop-color:#443A26"/>
			<stop  offset="0.5917" style="stop-color:#2F2A1E"/>
			<stop  offset="0.6764" style="stop-color:#1E1C15"/>
			<stop  offset="0.767" style="stop-color:#100F0C"/>
			<stop  offset="0.868" style="stop-color:#050504"/>
			<stop  offset="1" style="stop-color:#010101"/>
		</radialGradient>
		<path class="st17" d="M403.1,109.6h-8.1v16h-7.2V83.9h14.7c4.8,0,8.5,1.1,11.1,3.2c2.6,2.2,3.9,5.3,3.9,9.4c0,2.8-0.7,5.1-2,7
			s-3.2,3.3-5.6,4.3l9.4,17.4v0.4h-7.8L403.1,109.6z M395.1,103.7h7.5c2.4,0,4.4-0.6,5.7-1.8c1.4-1.2,2.1-2.9,2.1-5.1
			c0-2.2-0.6-4-1.9-5.2c-1.3-1.2-3.2-1.9-5.7-1.9h-7.6V103.7z"/>
	</g>
	<radialGradient id="SVGID_19_" cx="228.5247" cy="64.9891" r="857.3917" gradientUnits="userSpaceOnUse">
		<stop  offset="0.1106" style="stop-color:#FDB714"/>
		<stop  offset="0.1707" style="stop-color:#E7AA20"/>
		<stop  offset="0.2737" style="stop-color:#C3922D"/>
		<stop  offset="0.288" style="stop-color:#B78A2E"/>
		<stop  offset="0.3591" style="stop-color:#866930"/>
		<stop  offset="0.4339" style="stop-color:#604E2C"/>
		<stop  offset="0.5112" style="stop-color:#443A26"/>
		<stop  offset="0.5917" style="stop-color:#2F2A1E"/>
		<stop  offset="0.6764" style="stop-color:#1E1C15"/>
		<stop  offset="0.767" style="stop-color:#100F0C"/>
		<stop  offset="0.868" style="stop-color:#050504"/>
		<stop  offset="1" style="stop-color:#010101"/>
	</radialGradient>
	<rect y="101" class="st18" width="38.5" height="6.5"/>
	<radialGradient id="SVGID_20_" cx="228.5247" cy="64.9891" r="857.3917" gradientUnits="userSpaceOnUse">
		<stop  offset="0.1106" style="stop-color:#FDB714"/>
		<stop  offset="0.1707" style="stop-color:#E7AA20"/>
		<stop  offset="0.2737" style="stop-color:#C3922D"/>
		<stop  offset="0.288" style="stop-color:#B78A2E"/>
		<stop  offset="0.3591" style="stop-color:#866930"/>
		<stop  offset="0.4339" style="stop-color:#604E2C"/>
		<stop  offset="0.5112" style="stop-color:#443A26"/>
		<stop  offset="0.5917" style="stop-color:#2F2A1E"/>
		<stop  offset="0.6764" style="stop-color:#1E1C15"/>
		<stop  offset="0.767" style="stop-color:#100F0C"/>
		<stop  offset="0.868" style="stop-color:#050504"/>
		<stop  offset="1" style="stop-color:#010101"/>
	</radialGradient>
	<rect x="427.5" y="101" class="st19" width="38.5" height="6.5"/>
</g>
</svg>
