<?xml version="1.0" encoding="utf-8"?>
<!-- Generator: Adobe Illustrator 25.3.1, SVG Export Plug-In . SVG Version: 6.00 Build 0)  -->
<svg version="1.1" id="Layer_1" xmlns="http://www.w3.org/2000/svg" xmlns:xlink="http://www.w3.org/1999/xlink" x="0px" y="0px"
	 viewBox="0 0 1545.5 799.2" style="enable-background:new 0 0 1545.5 799.2;" xml:space="preserve">
<style type="text/css">
	.st0{fill:#F89939;}
	.st1{fill:#FEBA01;}
	.st2{fill:#F7F7F7;}
	.st3{fill:#414042;}
	.st4{fill:#FF173E;}
	.st5{opacity:0.5;}
	.st6{fill:#383435;}
	.st7{fill:url(#SVGID_1_);}
	.st8{fill:url(#SVGID_2_);}
	.st9{fill:#8EC7D2;}
	.st10{fill:url(#SVGID_3_);}
	.st11{fill:url(#SVGID_4_);}
	.st12{fill:#07485C;}
	.st13{fill:url(#SVGID_5_);}
	.st14{fill:url(#SVGID_6_);}
	.st15{fill:#FEDD78;}
	.st16{fill:#FFDE78;}
	.st17{fill:#553415;}
	.st18{fill:#9ED342;}
	.st19{fill:#009688;}
	.st20{fill:#424242;}
	.st21{fill:#757575;}
	.st22{opacity:0.35;}
	.st23{opacity:0.5;fill:url(#SVGID_7_);}
	.st24{opacity:0.5;fill:url(#SVGID_8_);}
	.st25{opacity:0.5;fill:url(#SVGID_9_);}
	.st26{fill:none;stroke:#009688;stroke-width:2;stroke-miterlimit:10;}
	.st27{fill:none;stroke:#9ED342;stroke-width:2;stroke-miterlimit:10;}
	.st28{fill:none;stroke:#9ED342;stroke-width:2;stroke-miterlimit:10;stroke-dasharray:11.7425,11.7425;}
	.st29{fill:none;stroke:#9ED342;stroke-width:2;stroke-miterlimit:10;stroke-dasharray:11.1544,11.1544;}
	.st30{fill:none;stroke:#9ED342;stroke-width:2;stroke-miterlimit:10;stroke-dasharray:13.8572,13.8572;}
	.st31{fill:none;stroke:#9ED342;stroke-width:2;stroke-miterlimit:10;stroke-dasharray:10.6667,10.6667;}
	.st32{fill:#FFFFFF;}
</style>
<path class="st0" d="M157.1,179.6H68.7c-22.6,0-41.1-18.5-41.1-41.1v0c0-22.6,18.5-41.1,41.1-41.1h88.4c22.6,0,41.1,18.5,41.1,41.1
	v0C198.2,161.1,179.7,179.6,157.1,179.6z"/>
<path class="st0" d="M157.1,492.6H68.7c-22.6,0-41.1-18.5-41.1-41.1v0c0-22.6,18.5-41.1,41.1-41.1h88.4c22.6,0,41.1,18.5,41.1,41.1
	v0C198.2,474.1,179.7,492.6,157.1,492.6z"/>
<path class="st0" d="M482.6,179.6h-88.4c-22.6,0-41.1-18.5-41.1-41.1v0c0-22.6,18.5-41.1,41.1-41.1h88.4c22.6,0,41.1,18.5,41.1,41.1
	v0C523.6,161.1,505.2,179.6,482.6,179.6z"/>
<path class="st0" d="M482.6,752.9h-88.4c-22.6,0-41.1-18.5-41.1-41.1v0c0-22.6,18.5-41.1,41.1-41.1h88.4c22.6,0,41.1,18.5,41.1,41.1
	v0C523.6,734.4,505.2,752.9,482.6,752.9z"/>
<g>
	<g>
		<g>
			<path class="st1" d="M776.8,545.4c0-1.1-0.9-2-2-2h-26.4c-22.2,0-40.3-18.1-40.3-40.3v-59.4v-59.4c0-22.2,18.1-40.3,40.3-40.3
				h26.4c0,0,0,0,0,0h23.6c0.9,4.2,4.6,7.3,9.1,7.3c4.4,0,8.1-3.1,9.1-7.3h50.7c17.6,0,33,11.2,38.4,28c0,0,0,0,0,0
				c1.3,4,1.9,8.1,1.9,12.3v118.9c0,4.2-0.7,8.4-2,12.4c-0.1,0.2-0.1,0.4-0.1,0.6c0,0.8,0.5,1.6,1.4,1.9c1,0.3,2.2-0.2,2.5-1.3
				c1.4-4.4,2.2-9,2.2-13.7V384.3c0-4.6-0.7-9.1-2.1-13.5c0,0,0,0,0,0c-2.8-8.9-8.3-16.5-15.8-22.1c-7.7-5.7-16.8-8.7-26.3-8.7
				h-50.7c-0.9-4.2-4.6-7.3-9.1-7.3c-4.4,0-8.1,3.1-9.1,7.3h-23.6c0,0,0,0,0,0h-26.4c-24.4,0-44.2,19.8-44.2,44.2v59.4v59.4
				c0,24.4,19.8,44.2,44.2,44.2h26.4C775.9,547.4,776.8,546.5,776.8,545.4z M807.5,336.7c2.9,0,5.3,2.4,5.3,5.3
				c0,2.9-2.4,5.3-5.3,5.3c-2.9,0-5.3-2.4-5.3-5.3C802.2,339.1,804.6,336.7,807.5,336.7z"/>
			<path class="st1" d="M790.1,545.4c0-1.3-1.1-2.4-2.4-2.4h-0.3c-1.3,0-2.4,1.1-2.4,2.4s1.1,2.4,2.4,2.4h0.3
				C789.1,547.8,790.1,546.7,790.1,545.4z"/>
			<path class="st1" d="M831.6,545.4c0-1.3-1.1-2.4-2.4-2.4h-0.3c-1.3,0-2.4,1.1-2.4,2.4s1.1,2.4,2.4,2.4h0.3
				C830.5,547.8,831.6,546.7,831.6,545.4z"/>
			<path class="st1" d="M893.3,533.4c-0.5,0.5-0.8,1.1-0.8,1.8c0,0.6,0.2,1.1,0.6,1.6c0.9,1,2.4,1.1,3.4,0.2l0.2-0.2
				c1-0.9,1.1-2.4,0.2-3.4c-0.9-1-2.4-1.1-3.4-0.2L893.3,533.4z"/>
			<path class="st1" d="M852,547.8c1.3,0,2.4-1.1,2.4-2.4s-1.1-2.4-2.4-2.4h-0.3c-1.3,0-2.4,1.1-2.4,2.4s1.1,2.4,2.4,2.4H852z"/>
			<path class="st1" d="M874.1,542.4c-1.2,0.2-2,1.2-2,2.3c0,0.1,0,0.3,0,0.4c0.2,1.3,1.5,2.2,2.8,1.9l0.3,0
				c1.3-0.2,2.2-1.5,1.9-2.8c-0.2-1.3-1.5-2.2-2.8-1.9L874.1,542.4z"/>
			<circle class="st1" cx="807.5" cy="342" r="3.3"/>
			<circle class="st1" cx="807.5" cy="545.4" r="3.3"/>
			<path class="st1" d="M809.5,578.4v-23.9c4.2-0.9,7.3-4.6,7.3-9.1c0-5.1-4.2-9.3-9.3-9.3c-5.1,0-9.3,4.2-9.3,9.3
				c0,4.4,3.1,8.1,7.3,9.1v23.9c0,1.1,0.9,2,2,2C808.6,580.3,809.5,579.4,809.5,578.4z M802.2,545.4c0-2.9,2.4-5.3,5.3-5.3
				c2.9,0,5.3,2.4,5.3,5.3c0,2.9-2.4,5.3-5.3,5.3C804.6,550.7,802.2,548.3,802.2,545.4z"/>
		</g>
	</g>
	<path class="st2" d="M895.9,503.2V384.3c0-16-13-29-29-29H748.1c-16,0-29,13-29,29v118.9c0,16,13,29,29,29h118.9
		C882.9,532.2,895.9,519.2,895.9,503.2z"/>
</g>
<g>
	<path class="st3" d="M736.7,488.6h6.1v2.3h-9v-13.9h2.9V488.6z"/>
	<path class="st3" d="M754.7,476.9v9.2c0,1.5-0.5,2.7-1.4,3.6c-1,0.9-2.3,1.3-3.9,1.3c-1.6,0-2.9-0.4-3.9-1.3s-1.4-2-1.5-3.5v-9.3
		h2.9v9.2c0,0.9,0.2,1.6,0.7,2c0.4,0.4,1,0.6,1.8,0.6c1.6,0,2.4-0.8,2.5-2.5v-9.3H754.7z"/>
	<path class="st3" d="M768,486.2c-0.1,1.5-0.7,2.7-1.7,3.5c-1,0.9-2.3,1.3-3.9,1.3c-1.8,0-3.2-0.6-4.2-1.8c-1-1.2-1.5-2.9-1.5-4.9
		v-0.9c0-1.3,0.2-2.5,0.7-3.5s1.1-1.8,2-2.3c0.9-0.5,1.9-0.8,3.1-0.8c1.6,0,2.9,0.4,3.9,1.3s1.5,2.1,1.7,3.6h-2.9
		c-0.1-0.9-0.3-1.6-0.8-2c-0.4-0.4-1.1-0.6-2-0.6c-1,0-1.7,0.3-2.1,1c-0.5,0.7-0.7,1.7-0.7,3.2v1.1c0,1.5,0.2,2.6,0.7,3.3
		s1.2,1,2.2,1c0.9,0,1.5-0.2,2-0.6c0.4-0.4,0.7-1,0.8-1.9H768z"/>
	<path class="st3" d="M774.2,485.3l-1.5,1.6v4h-2.9v-13.9h2.9v6.3l1.3-1.7l3.5-4.6h3.5l-4.9,6.2l5.1,7.7h-3.4L774.2,485.3z"/>
	<path class="st3" d="M797.1,479.3h-4.3v11.6h-2.9v-11.6h-4.2v-2.3h11.3V479.3z"/>
	<path class="st3" d="M803.9,485.8h-2.3v5.1h-2.9v-13.9h5.2c1.6,0,2.9,0.4,3.8,1.1c0.9,0.7,1.3,1.8,1.3,3.1c0,1-0.2,1.7-0.6,2.4
		c-0.4,0.6-1,1.1-1.9,1.5l3,5.7v0.1h-3.1L803.9,485.8z M801.6,483.4h2.3c0.7,0,1.3-0.2,1.7-0.5c0.4-0.4,0.6-0.9,0.6-1.5
		c0-0.7-0.2-1.2-0.6-1.5s-0.9-0.6-1.7-0.6h-2.3V483.4z"/>
	<path class="st3" d="M819.6,484.8h-5.5v3.7h6.5v2.3h-9.3v-13.9h9.3v2.3h-6.4v3.3h5.5V484.8z"/>
	<path class="st3" d="M830.1,488h-5l-1,2.9h-3l5.2-13.9h2.7l5.2,13.9h-3L830.1,488z M825.8,485.7h3.5l-1.7-5.2L825.8,485.7z"/>
	<path class="st3" d="M842.6,487.2c0-0.5-0.2-1-0.6-1.2s-1.1-0.6-2.1-0.9c-1-0.3-1.8-0.6-2.4-1c-1.6-0.9-2.4-2-2.4-3.5
		c0-0.8,0.2-1.4,0.6-2c0.4-0.6,1-1,1.8-1.4c0.8-0.3,1.7-0.5,2.7-0.5c1,0,1.9,0.2,2.7,0.5c0.8,0.4,1.4,0.9,1.8,1.5
		c0.4,0.7,0.6,1.4,0.6,2.2h-2.9c0-0.6-0.2-1.1-0.6-1.5c-0.4-0.4-1-0.5-1.7-0.5c-0.7,0-1.2,0.1-1.6,0.4c-0.4,0.3-0.6,0.7-0.6,1.2
		c0,0.5,0.2,0.8,0.7,1.1c0.5,0.3,1.1,0.6,2,0.9c1.6,0.5,2.8,1.1,3.6,1.8s1.1,1.6,1.1,2.7c0,1.2-0.5,2.2-1.4,2.8
		c-0.9,0.7-2.1,1-3.7,1c-1.1,0-2-0.2-2.9-0.6c-0.9-0.4-1.6-0.9-2-1.6s-0.7-1.5-0.7-2.4h2.9c0,1.5,0.9,2.3,2.8,2.3
		c0.7,0,1.2-0.1,1.6-0.4S842.6,487.7,842.6,487.2z"/>
	<path class="st3" d="M858,476.9v9.2c0,1.5-0.5,2.7-1.4,3.6s-2.3,1.3-3.9,1.3c-1.6,0-2.9-0.4-3.9-1.3s-1.4-2-1.5-3.5v-9.3h2.9v9.2
		c0,0.9,0.2,1.6,0.7,2c0.4,0.4,1,0.6,1.8,0.6c1.6,0,2.4-0.8,2.5-2.5v-9.3H858z"/>
	<path class="st3" d="M865.5,485.8h-2.3v5.1h-2.9v-13.9h5.2c1.6,0,2.9,0.4,3.8,1.1c0.9,0.7,1.3,1.8,1.3,3.1c0,1-0.2,1.7-0.6,2.4
		c-0.4,0.6-1,1.1-1.9,1.5l3,5.7v0.1h-3.1L865.5,485.8z M863.2,483.4h2.3c0.7,0,1.3-0.2,1.7-0.5c0.4-0.4,0.6-0.9,0.6-1.5
		c0-0.7-0.2-1.2-0.6-1.5s-0.9-0.6-1.7-0.6h-2.3V483.4z"/>
	<path class="st3" d="M877.2,483.2l2.9-6.3h3.1l-4.6,8.9v5h-2.9v-5l-4.6-8.9h3.1L877.2,483.2z"/>
</g>
<g>
	
		<ellipse transform="matrix(0.7071 -0.7071 0.7071 0.7071 26.1132 960.2038)" class="st4" cx="1172.1" cy="448.6" rx="86.7" ry="86.7"/>
	<g class="st5">
		<path class="st6" d="M1243.4,448.6c0,39.4-31.9,71.3-71.3,71.3c-39.4,0-71.3-31.9-71.3-71.3c0-39.4,31.9-71.3,71.3-71.3
			C1211.5,377.3,1243.4,409.2,1243.4,448.6z"/>
	</g>
	
		<linearGradient id="SVGID_1_" gradientUnits="userSpaceOnUse" x1="-859.262" y1="2451.5825" x2="-859.262" y2="2306.2339" gradientTransform="matrix(0 -1 1 0 -1206.7831 -410.6815)">
		<stop  offset="0" style="stop-color:#F2F5F7"/>
		<stop  offset="1" style="stop-color:#FFFFFF"/>
	</linearGradient>
	<path class="st7" d="M1172.1,375.9c40.1,0,72.7,32.5,72.7,72.7c0,40.1-32.5,72.7-72.7,72.7c-40.1,0-72.7-32.5-72.7-72.7
		C1099.5,408.4,1132,375.9,1172.1,375.9z"/>
	<linearGradient id="SVGID_2_" gradientUnits="userSpaceOnUse" x1="1172.1251" y1="518.5118" x2="1172.1251" y2="378.6491">
		<stop  offset="0" style="stop-color:#F2F5F7"/>
		<stop  offset="1" style="stop-color:#FFFFFF"/>
	</linearGradient>
	<path class="st8" d="M1242.1,448.6c0,38.6-31.3,69.9-69.9,69.9c-38.6,0-69.9-31.3-69.9-69.9c0-38.6,31.3-69.9,69.9-69.9
		C1210.7,378.6,1242.1,410,1242.1,448.6z"/>
</g>
<g>
	<circle class="st9" cx="803.7" cy="119.3" r="86.7"/>
	<g class="st5">
		<path class="st6" d="M874.9,119.3c0,39.4-31.9,71.3-71.3,71.3c-39.4,0-71.3-31.9-71.3-71.3c0-39.4,31.9-71.3,71.3-71.3
			C843,48,874.9,79.9,874.9,119.3z"/>
	</g>
	
		<linearGradient id="SVGID_3_" gradientUnits="userSpaceOnUse" x1="-529.9418" y1="2083.1138" x2="-529.9418" y2="1937.7649" gradientTransform="matrix(0 -1 1 0 -1206.7831 -410.6815)">
		<stop  offset="0" style="stop-color:#F2F5F7"/>
		<stop  offset="1" style="stop-color:#FFFFFF"/>
	</linearGradient>
	<path class="st10" d="M803.7,46.6c40.1,0,72.7,32.5,72.7,72.7c0,40.1-32.5,72.7-72.7,72.7c-40.1,0-72.7-32.5-72.7-72.7
		C731,79.1,763.5,46.6,803.7,46.6z"/>
	<linearGradient id="SVGID_4_" gradientUnits="userSpaceOnUse" x1="803.6562" y1="189.1917" x2="803.6562" y2="49.329">
		<stop  offset="0" style="stop-color:#F2F5F7"/>
		<stop  offset="1" style="stop-color:#FFFFFF"/>
	</linearGradient>
	<path class="st11" d="M873.6,119.3c0,38.6-31.3,69.9-69.9,69.9c-38.6,0-69.9-31.3-69.9-69.9c0-38.6,31.3-69.9,69.9-69.9
		C842.3,49.3,873.6,80.6,873.6,119.3z"/>
</g>
<g>
	<g>
		<path class="st9" d="M903.8,119.3c0,35.6-19.2,68.8-50,86.7l0,0c-12.8,7.4-26.8,11.8-41.5,13.1c-0.8-4.1-4.4-7.2-8.6-7.2
			c-4.3,0-7.9,3.1-8.6,7.2c-51.4-4.4-91.5-48-91.5-99.8H701c0,26.1,9.8,51,27.6,70.1c17.5,18.7,41,30.1,66.3,32.3
			c0.5,4.4,4.2,7.9,8.8,7.9c4.6,0,8.3-3.5,8.8-7.9c15.2-1.3,29.5-5.8,42.7-13.4l0,0c15.3-8.9,28.1-21.6,37.1-36.9
			c9.2-15.7,14.1-33.7,14.1-52s-4.9-36.3-14.1-52c-9-15.2-21.8-28-37.1-36.9l-1.3,2.2C884.7,50.4,903.8,83.7,903.8,119.3z
			 M803.7,227c-3.5,0-6.3-2.8-6.3-6.3c0-3.5,2.8-6.3,6.3-6.3c3.5,0,6.3,2.8,6.3,6.3C809.9,224.2,807.1,227,803.7,227z"/>
		<path class="st9" d="M743,40.1c0.4-0.3,0.7-0.8,0.7-1.3c0-0.4-0.1-0.7-0.3-1c-0.6-0.7-1.6-0.9-2.4-0.3l-0.1,0.1
			c-0.7,0.6-0.9,1.6-0.3,2.4c0.6,0.7,1.6,0.9,2.4,0.3L743,40.1z"/>
		<path class="st9" d="M735.2,46.7c0.4-0.3,0.5-0.8,0.5-1.2c0-0.4-0.2-0.8-0.5-1.2c-0.6-0.7-1.7-0.7-2.4-0.1l-0.1,0.1
			c-0.7,0.6-0.7,1.7-0.1,2.4c0.6,0.7,1.7,0.7,2.4,0.1L735.2,46.7z"/>
		<path class="st9" d="M721.9,62.1L722,62c0.2-0.3,0.3-0.6,0.3-1c0-0.5-0.2-1.1-0.7-1.4c-0.8-0.5-1.8-0.4-2.4,0.4l-0.1,0.1
			c-0.5,0.8-0.3,1.8,0.4,2.4C720.3,63.1,721.4,62.9,721.9,62.1z"/>
		<path class="st9" d="M728.1,54.1l0.1-0.1c0.3-0.3,0.4-0.7,0.4-1.1c0-0.5-0.2-0.9-0.6-1.3c-0.7-0.6-1.8-0.5-2.4,0.2l-0.1,0.1
			c-0.6,0.7-0.5,1.8,0.2,2.4C726.4,54.9,727.5,54.8,728.1,54.1z"/>
		<path class="st9" d="M799.1,19.6l0.2,0c0.9,0,1.6-0.8,1.6-1.7c0,0,0-0.1,0-0.1c0-0.9-0.8-1.7-1.8-1.6l-0.2,0
			c-0.9,0-1.7,0.8-1.6,1.8C797.3,18.9,798.1,19.7,799.1,19.6z"/>
		<path class="st9" d="M789,20.6l0.2,0c0.8-0.1,1.4-0.8,1.4-1.7c0-0.1,0-0.2,0-0.2c-0.1-0.9-1-1.6-1.9-1.4l-0.2,0
			c-0.9,0.1-1.6,1-1.4,1.9C787.2,20.1,788,20.7,789,20.6z"/>
		<path class="st9" d="M716.5,70.7l0.1-0.1c0.1-0.3,0.2-0.5,0.2-0.8c0-0.6-0.3-1.2-0.9-1.5c-0.8-0.5-1.8-0.2-2.3,0.6l-0.1,0.2
			c-0.5,0.8-0.2,1.8,0.7,2.3C715,71.8,716,71.5,716.5,70.7z"/>
		<path class="st9" d="M779,22.6l0.2,0c0.8-0.2,1.3-0.9,1.3-1.6c0-0.1,0-0.3-0.1-0.4c-0.2-0.9-1.1-1.5-2.1-1.2l-0.2,0
			c-0.9,0.2-1.5,1.1-1.2,2.1C777.2,22.3,778.1,22.8,779,22.6z"/>
		<path class="st9" d="M769.5,25.5c0.7-0.3,1.1-0.9,1.1-1.6c0-0.2,0-0.4-0.1-0.6c-0.3-0.9-1.3-1.3-2.2-1l-0.2,0.1
			c-0.9,0.3-1.3,1.3-1,2.2c0.3,0.9,1.3,1.3,2.2,1L769.5,25.5z"/>
		<path class="st9" d="M751.3,34.4c0.5-0.3,0.8-0.9,0.8-1.4c0-0.3-0.1-0.6-0.3-0.9c-0.5-0.8-1.5-1-2.3-0.5l-0.1,0.1
			c-0.8,0.5-1,1.5-0.5,2.3c0.5,0.8,1.5,1,2.3,0.5L751.3,34.4z"/>
		<path class="st9" d="M847.4,27.7c-0.4,0.8-0.1,1.9,0.8,2.3l0.1,0.1c0.8,0.4,1.9,0.1,2.3-0.8c0.1-0.2,0.2-0.5,0.2-0.8
			c0-0.6-0.3-1.2-0.9-1.5l-0.2-0.1C848.8,26.5,847.8,26.9,847.4,27.7z"/>
		<path class="st9" d="M837.9,23.7c-0.3,0.9,0.1,1.8,1,2.2L839,26c0.9,0.3,1.8-0.1,2.2-1c0.1-0.2,0.1-0.4,0.1-0.6
			c0-0.7-0.4-1.3-1.1-1.6l-0.2-0.1C839.2,22.4,838.2,22.9,837.9,23.7z"/>
		<path class="st9" d="M828,20.8c-0.2,0.9,0.3,1.8,1.2,2.1l0.2,0c0.9,0.2,1.8-0.3,2.1-1.2c0-0.1,0.1-0.3,0.1-0.4
			c0-0.7-0.5-1.4-1.3-1.6l-0.2,0C829.2,19.3,828.2,19.9,828,20.8z"/>
		<path class="st9" d="M758.5,26.5c-0.8,0.4-1.2,1.4-0.8,2.3c0.4,0.8,1.4,1.2,2.3,0.8l0.1-0.1c0.6-0.3,1-0.9,1-1.5
			c0-0.2-0.1-0.5-0.2-0.7c-0.4-0.8-1.4-1.2-2.3-0.8L758.5,26.5z"/>
		<path class="st9" d="M817.9,18.8c-0.1,0.9,0.5,1.8,1.4,1.9l0.2,0c0.9,0.1,1.8-0.5,1.9-1.4c0-0.1,0-0.2,0-0.3
			c0-0.8-0.6-1.5-1.4-1.7l-0.2,0C818.9,17.3,818,17.9,817.9,18.8z"/>
		<path class="st9" d="M807.6,17.9c-0.1,0.9,0.7,1.7,1.6,1.8l0.2,0c0.9,0.1,1.7-0.7,1.8-1.6c0,0,0-0.1,0-0.1c0-0.9-0.7-1.6-1.6-1.7
			l-0.2,0C808.5,16.2,807.7,17,807.6,17.9z"/>
		<path class="st9" d="M705.9,99.1l0-0.2c0-0.1,0-0.2,0-0.3c0-0.8-0.6-1.5-1.4-1.7c-0.9-0.2-1.8,0.4-2,1.3l0,0.2
			c-0.2,0.9,0.4,1.8,1.3,2C704.9,100.6,705.8,100,705.9,99.1z"/>
		<path class="st9" d="M708.5,89.3l0.1-0.2c0.1-0.2,0.1-0.3,0.1-0.5c0-0.7-0.5-1.4-1.2-1.6c-0.9-0.3-1.8,0.2-2.1,1.1l-0.1,0.2
			c-0.3,0.9,0.2,1.8,1.1,2.1C707.3,90.7,708.2,90.2,708.5,89.3z"/>
		<path class="st9" d="M704.4,109.1l0-0.2c0-0.1,0-0.1,0-0.2c0-0.9-0.6-1.6-1.5-1.7c-0.9-0.1-1.8,0.6-1.9,1.5l0,0.2
			c-0.1,0.9,0.6,1.8,1.5,1.9C703.5,110.7,704.3,110.1,704.4,109.1z"/>
		<path class="st9" d="M712,79.8l0.1-0.2c0.1-0.2,0.1-0.4,0.1-0.7c0-0.7-0.4-1.3-1-1.6c-0.9-0.4-1.9,0-2.2,0.9l-0.1,0.2
			c-0.4,0.9,0,1.9,0.9,2.2C710.7,81.1,711.7,80.7,712,79.8z"/>
		<path class="st9" d="M803.7,216.4c-2.4,0-4.3,1.9-4.3,4.3c0,2.4,1.9,4.3,4.3,4.3c2.4,0,4.3-1.9,4.3-4.3
			C807.9,218.3,806,216.4,803.7,216.4z"/>
	</g>
</g>
<g>
	<g>
		<path class="st4" d="M1244.2,518.5c-0.4,0-0.9,0.2-1.2,0.5l-0.1,0.1c-0.7,0.7-0.7,1.7,0,2.4c0.7,0.7,1.7,0.7,2.4,0l0.1-0.1
			c0.7-0.7,0.7-1.7,0-2.4C1245.1,518.6,1244.7,518.5,1244.2,518.5z"/>
		<path class="st4" d="M1236.6,525.4c-0.4,0-0.8,0.1-1.1,0.4l-0.1,0.1c-0.7,0.6-0.8,1.7-0.2,2.4c0.6,0.7,1.7,0.8,2.4,0.2l0.1-0.1
			c0.7-0.6,0.8-1.7,0.2-2.4C1237.6,525.6,1237.1,525.4,1236.6,525.4z"/>
		<path class="st4" d="M1258.2,502.8c-0.3-0.2-0.6-0.3-0.9-0.3c-0.5,0-1.1,0.3-1.4,0.8l-0.1,0.1c-0.5,0.8-0.3,1.8,0.5,2.3
			c0.8,0.5,1.8,0.3,2.3-0.5l0.1-0.1C1259.2,504.4,1259,503.3,1258.2,502.8z"/>
		<path class="st4" d="M1252.2,511.2c-0.3-0.3-0.7-0.4-1.1-0.4c-0.5,0-1,0.2-1.3,0.6l-0.1,0.1c-0.6,0.7-0.5,1.8,0.2,2.4
			c0.7,0.6,1.8,0.5,2.4-0.2l0.1-0.1C1253,512.9,1252.9,511.8,1252.2,511.2z"/>
		<path class="st4" d="M1180,547.9c0,0-0.1,0-0.1,0l-0.2,0c-0.9,0.1-1.6,0.9-1.6,1.8c0.1,0.9,0.9,1.6,1.8,1.6l0.2,0
			c0.9-0.1,1.6-0.9,1.6-1.8C1181.6,548.6,1180.9,547.9,1180,547.9z"/>
		<path class="st4" d="M1190.2,546.6c-0.1,0-0.2,0-0.3,0l-0.2,0c-0.9,0.2-1.5,1-1.4,2c0.2,0.9,1,1.5,2,1.4l0.2,0
			c0.9-0.2,1.5-1,1.4-2C1191.7,547.2,1191,546.6,1190.2,546.6z"/>
		<path class="st4" d="M1228.3,531.5c-0.3,0-0.6,0.1-0.9,0.3l-0.1,0.1c-0.8,0.5-1,1.6-0.5,2.3c0.5,0.8,1.6,1,2.3,0.5l0.1-0.1
			c0.8-0.5,1-1.6,0.5-2.3C1229.4,531.8,1228.8,531.5,1228.3,531.5z"/>
		<path class="st4" d="M1267.4,484.4c-0.2-0.1-0.4-0.1-0.6-0.1c-0.7,0-1.3,0.4-1.6,1.1l-0.1,0.2c-0.3,0.9,0.1,1.9,0.9,2.2
			c0.9,0.3,1.9-0.1,2.2-0.9l0.1-0.2C1268.7,485.7,1268.3,484.8,1267.4,484.4z"/>
		<path class="st4" d="M1219.4,536.7c-0.3,0-0.5,0.1-0.8,0.2l-0.1,0.1c-0.8,0.4-1.2,1.5-0.7,2.3c0.4,0.8,1.5,1.2,2.3,0.7l0.2-0.1
			c0.8-0.4,1.1-1.5,0.7-2.3C1220.6,537,1220,536.7,1219.4,536.7z"/>
		<path class="st4" d="M1200.3,544.3c-0.2,0-0.3,0-0.5,0.1l-0.2,0c-0.9,0.3-1.4,1.2-1.2,2.1c0.3,0.9,1.2,1.4,2.1,1.2l0.2,0
			c0.9-0.3,1.4-1.2,1.2-2.1C1201.7,544.8,1201,544.3,1200.3,544.3z"/>
		<path class="st4" d="M1210,541c-0.2,0-0.4,0-0.6,0.1l-0.2,0.1c-0.9,0.3-1.3,1.3-1,2.2c0.3,0.9,1.3,1.3,2.2,1l0.2-0.1
			c0.9-0.3,1.3-1.3,0.9-2.2C1211.3,541.4,1210.7,541,1210,541z"/>
		<path class="st4" d="M1270.6,474.6c-0.2,0-0.3-0.1-0.5-0.1c-0.7,0-1.4,0.5-1.6,1.2l0,0.2c-0.3,0.9,0.3,1.8,1.2,2.1
			c0.9,0.3,1.8-0.3,2.1-1.2l0-0.2C1272,475.8,1271.5,474.8,1270.6,474.6z"/>
		<path class="st4" d="M1272.7,464.5c-0.1,0-0.2,0-0.3,0c-0.8,0-1.5,0.6-1.7,1.4l0,0.2c-0.2,0.9,0.4,1.8,1.4,2
			c0.9,0.2,1.8-0.4,2-1.4l0-0.2C1274.3,465.5,1273.6,464.7,1272.7,464.5z"/>
		<path class="st4" d="M1263.3,493.8c-0.3-0.1-0.5-0.2-0.8-0.2c-0.6,0-1.2,0.3-1.5,0.9l-0.1,0.1c-0.4,0.8-0.1,1.8,0.7,2.3
			c0.8,0.4,1.8,0.1,2.3-0.7l0.1-0.2C1264.4,495.3,1264.1,494.3,1263.3,493.8z"/>
		<path class="st4" d="M1265.2,411.5c0.3,0.9,1.3,1.3,2.2,0.9c0.9-0.3,1.3-1.3,0.9-2.2l-0.1-0.2c-0.3-0.7-0.9-1.1-1.6-1.1
			c-0.2,0-0.4,0-0.6,0.1c-0.9,0.3-1.3,1.3-0.9,2.2L1265.2,411.5z"/>
		<path class="st4" d="M1268.4,420.9l0,0.2c0.3,0.9,1.2,1.4,2.1,1.2c0.9-0.3,1.4-1.2,1.2-2.1l0-0.2c-0.2-0.7-0.9-1.2-1.6-1.2
			c-0.2,0-0.3,0-0.5,0.1C1268.7,419.1,1268.2,420,1268.4,420.9z"/>
		<path class="st4" d="M1270.7,430.8l0,0.2c0.2,0.9,1,1.5,2,1.4c0.9-0.2,1.5-1,1.4-2l0-0.2c-0.1-0.8-0.9-1.4-1.7-1.4
			c-0.1,0-0.2,0-0.3,0C1271.2,429,1270.6,429.9,1270.7,430.8z"/>
		<path class="st4" d="M1260.9,402.1l0.1,0.1c0.4,0.8,1.5,1.1,2.3,0.7c0.8-0.4,1.1-1.5,0.7-2.3l-0.1-0.2c-0.3-0.6-0.9-0.9-1.5-0.9
			c-0.3,0-0.5,0.1-0.8,0.2C1260.8,400.3,1260.5,401.3,1260.9,402.1z"/>
		<path class="st4" d="M1071.1,452.7c2.4,0,4.3-1.9,4.3-4.3c0-2.4-1.9-4.3-4.3-4.3s-4.3,1.9-4.3,4.3
			C1066.8,450.8,1068.8,452.7,1071.1,452.7z"/>
		<path class="st4" d="M1269.7,448.4c0,2.4,1.9,4.3,4.3,4.3c2.4,0,4.3-1.9,4.3-4.3c0-2.4-1.9-4.3-4.3-4.3
			C1271.6,444.2,1269.7,446.1,1269.7,448.4z"/>
		<path class="st4" d="M1265.2,448.4c0,4.9,3.9,8.8,8.8,8.8s8.8-3.9,8.8-8.8c0-4.9-3.9-8.8-8.8-8.8S1265.2,443.6,1265.2,448.4z
			 M1280.2,448.4c0,3.5-2.8,6.3-6.3,6.3c-3.5,0-6.3-2.8-6.3-6.3c0-3.5,2.8-6.3,6.3-6.3C1277.4,442.1,1280.2,445,1280.2,448.4z"/>
		<path class="st4" d="M928.5,449.9h133.9c0.7,3.9,3.8,6.9,7.8,7.3c2.1,25.4,13.6,48.9,32.3,66.3c19.1,17.8,44,27.6,70.1,27.6v-2.5
			c-51.8,0-95.4-40.1-99.8-91.5c4.1-0.8,7.2-4.4,7.2-8.6c0-4.3-3.1-7.9-7.2-8.6c1.3-14.7,5.6-28.7,13-41.5l0,0
			c17.9-30.9,51.1-50.1,86.8-50.1c35.6,0,68.9,19.2,86.8,50.1l2.2-1.3c-8.9-15.3-21.6-28.2-36.9-37.2c-15.7-9.3-33.7-14.2-52.1-14.2
			c-18.3,0-36.4,4.9-52.1,14.2c-15.3,9-28,21.8-36.9,37.2h0c-7.6,13.1-12.1,27.5-13.4,42.6c-4.1,0.4-7.4,3.6-7.8,7.7H928.5V449.9z
			 M1071.1,442.1c3.5,0,6.3,2.8,6.3,6.3s-2.8,6.3-6.3,6.3c-3.5,0-6.3-2.8-6.3-6.3S1067.7,442.1,1071.1,442.1z"/>
	</g>
</g>
<g>
	<circle class="st12" cx="428.9" cy="448.5" r="86.7"/>
	<g class="st5">
		<path class="st6" d="M500.2,448.5c0,39.4-31.9,71.3-71.3,71.3c-39.4,0-71.3-31.9-71.3-71.3c0-39.4,31.9-71.3,71.3-71.3
			C468.3,377.2,500.2,409.1,500.2,448.5z"/>
	</g>
	
		<linearGradient id="SVGID_5_" gradientUnits="userSpaceOnUse" x1="-859.1793" y1="1708.3475" x2="-859.1793" y2="1562.9988" gradientTransform="matrix(0 -1 1 0 -1206.7831 -410.6815)">
		<stop  offset="0" style="stop-color:#F2F5F7"/>
		<stop  offset="1" style="stop-color:#FFFFFF"/>
	</linearGradient>
	<path class="st13" d="M428.9,375.8c40.1,0,72.7,32.5,72.7,72.7c0,40.1-32.5,72.7-72.7,72.7c-40.1,0-72.7-32.5-72.7-72.7
		C356.2,408.4,388.8,375.8,428.9,375.8z"/>
	<linearGradient id="SVGID_6_" gradientUnits="userSpaceOnUse" x1="428.8901" y1="518.4291" x2="428.8901" y2="378.5664">
		<stop  offset="0" style="stop-color:#F2F5F7"/>
		<stop  offset="1" style="stop-color:#FFFFFF"/>
	</linearGradient>
	<path class="st14" d="M498.8,448.5c0,38.6-31.3,69.9-69.9,69.9c-38.6,0-69.9-31.3-69.9-69.9c0-38.6,31.3-69.9,69.9-69.9
		C467.5,378.6,498.8,409.9,498.8,448.5z"/>
	<path class="st12" d="M356.3,375.9c-9.4,9.4-16.8,20.4-22,32.6c-5.4,12.7-8.1,26.1-8.1,40c0,18.1,4.8,35.9,13.8,51.5l2.2-1.3
		c-8.8-15.2-13.5-32.5-13.5-50.2c0-55.2,44.9-100.2,100.2-100.2v-2.5c-13.9,0-27.3,2.7-40,8.1C376.7,359,365.7,366.4,356.3,375.9z"
		/>
	<path class="st12" d="M385.7,538.4l-0.1-0.1c-0.8-0.4-1.9-0.1-2.3,0.8c-0.4,0.8-0.1,1.9,0.8,2.3l0.2,0.1c0.2,0.1,0.5,0.2,0.7,0.2
		c0.6,0,1.2-0.4,1.5-1C386.9,539.9,386.6,538.9,385.7,538.4z"/>
	<path class="st12" d="M394.9,542.3l-0.2-0.1c-0.9-0.3-1.8,0.1-2.2,1c-0.3,0.9,0.1,1.8,1,2.2l0.2,0.1c0.2,0.1,0.4,0.1,0.6,0.1
		c0.7,0,1.3-0.4,1.6-1.1C396.2,543.6,395.8,542.6,394.9,542.3z"/>
	<path class="st12" d="M414.1,547.2l-0.2,0c-0.9-0.1-1.8,0.5-1.9,1.4c-0.1,0.9,0.5,1.8,1.4,1.9l0.2,0c0.1,0,0.2,0,0.2,0
		c0.8,0,1.5-0.6,1.7-1.4C415.7,548.2,415.1,547.3,414.1,547.2z"/>
	<path class="st12" d="M424,548.1l-0.2,0c-0.9,0-1.7,0.7-1.8,1.6c0,0.9,0.7,1.7,1.6,1.8l0.2,0c0,0,0.1,0,0.1,0
		c0.9,0,1.6-0.7,1.7-1.6C425.7,549,425,548.2,424,548.1z"/>
	<path class="st12" d="M404.4,545.2l-0.2,0c-0.9-0.2-1.8,0.3-2.1,1.2c-0.2,0.9,0.3,1.8,1.2,2.1l0.2,0c0.1,0,0.3,0.1,0.4,0.1
		c0.8,0,1.4-0.5,1.6-1.3C405.9,546.4,405.3,545.4,404.4,545.2z"/>
	<path class="st12" d="M377,533.7l-0.1-0.1c-0.8-0.5-1.8-0.2-2.3,0.6c-0.5,0.8-0.2,1.8,0.6,2.3l0.1,0.1c0.3,0.2,0.6,0.2,0.9,0.2
		c0.6,0,1.1-0.3,1.4-0.8C378.1,535.2,377.8,534.2,377,533.7z"/>
	<path class="st12" d="M347.9,506.8c-0.5-0.8-1.6-0.9-2.4-0.4c-0.8,0.5-0.9,1.6-0.4,2.4l0.1,0.1c0.3,0.5,0.8,0.7,1.4,0.7
		c0.3,0,0.7-0.1,1-0.3c0.8-0.5,0.9-1.6,0.4-2.4L347.9,506.8z"/>
	<path class="st12" d="M354.1,514.5c-0.6-0.7-1.7-0.8-2.4-0.2c-0.7,0.6-0.8,1.7-0.2,2.4l0.1,0.1c0.3,0.4,0.8,0.6,1.3,0.6
		c0.4,0,0.8-0.1,1.1-0.4c0.7-0.6,0.8-1.7,0.1-2.4L354.1,514.5z"/>
	<path class="st12" d="M368.8,528.1l-0.1-0.1c-0.7-0.6-1.8-0.4-2.4,0.3c-0.6,0.7-0.4,1.8,0.3,2.4l0.1,0.1c0.3,0.2,0.7,0.3,1,0.3
		c0.5,0,1-0.2,1.3-0.7C369.7,529.7,369.5,528.7,368.8,528.1z"/>
	<path class="st12" d="M361.1,521.6c-0.7-0.6-1.8-0.6-2.4,0.1c-0.6,0.7-0.6,1.8,0.1,2.4l0.1,0.1c0.3,0.3,0.7,0.4,1.1,0.4
		c0.5,0,0.9-0.2,1.2-0.5c0.6-0.7,0.6-1.8-0.1-2.4L361.1,521.6z"/>
	<path class="st12" d="M489.1,528l-0.1,0.1c-0.7,0.6-0.9,1.6-0.3,2.4c0.3,0.4,0.8,0.7,1.4,0.7c0.4,0,0.7-0.1,1-0.3l0.1-0.1
		c0.7-0.6,0.9-1.6,0.3-2.4S489.9,527.4,489.1,528z"/>
	<path class="st12" d="M434,548.1l-0.2,0c-0.9,0-1.7,0.8-1.6,1.8c0,0.9,0.8,1.6,1.7,1.6c0,0,0.1,0,0.1,0l0.2,0
		c0.9,0,1.7-0.8,1.6-1.8C435.7,548.8,434.9,548.1,434,548.1z"/>
	<path class="st12" d="M496.7,521.6l-0.1,0.1c-0.7,0.6-0.7,1.7-0.1,2.4c0.3,0.4,0.8,0.5,1.2,0.5c0.4,0,0.8-0.1,1.2-0.5l0.1-0.1
		c0.7-0.6,0.7-1.7,0.1-2.4C498.5,521,497.4,521,496.7,521.6z"/>
	<path class="st12" d="M512.2,506.4c-0.8-0.5-1.8-0.4-2.4,0.4l-0.1,0.1c-0.5,0.8-0.4,1.8,0.4,2.4c0.3,0.2,0.6,0.3,1,0.3
		c0.5,0,1-0.2,1.4-0.7l0.1-0.1C513.2,508,513,506.9,512.2,506.4z"/>
	<path class="st12" d="M480.9,533.6l-0.1,0.1c-0.8,0.5-1,1.5-0.6,2.3c0.3,0.5,0.9,0.8,1.4,0.8c0.3,0,0.6-0.1,0.9-0.3l0.1-0.1
		c0.8-0.5,1-1.5,0.6-2.3C482.8,533.4,481.7,533.1,480.9,533.6z"/>
	<path class="st12" d="M506.1,514.4c-0.7-0.6-1.8-0.6-2.4,0.1l-0.1,0.1c-0.6,0.7-0.6,1.8,0.1,2.4c0.3,0.3,0.7,0.4,1.1,0.4
		c0.5,0,0.9-0.2,1.3-0.6l0.1-0.1C506.8,516,506.8,515,506.1,514.4z"/>
	<path class="st12" d="M443.9,547.1l-0.2,0c-0.9,0.1-1.6,1-1.4,1.9c0.1,0.8,0.8,1.4,1.7,1.4c0.1,0,0.2,0,0.2,0l0.2,0
		c0.9-0.1,1.6-1,1.4-1.9C445.6,547.6,444.8,547,443.9,547.1z"/>
	<path class="st12" d="M472.2,538.4l-0.1,0.1c-0.8,0.4-1.2,1.4-0.8,2.3c0.3,0.6,0.9,1,1.5,1c0.2,0,0.5-0.1,0.7-0.2l0.1-0.1
		c0.8-0.4,1.2-1.4,0.8-2.3C474.1,538.3,473.1,538,472.2,538.4z"/>
	<path class="st12" d="M453.6,545.2l-0.2,0c-0.9,0.2-1.5,1.1-1.2,2.1c0.2,0.8,0.9,1.3,1.6,1.3c0.1,0,0.3,0,0.4-0.1l0.2,0
		c0.9-0.2,1.5-1.2,1.2-2.1C455.4,545.5,454.5,544.9,453.6,545.2z"/>
	<path class="st12" d="M463.1,542.2l-0.2,0.1c-0.9,0.3-1.3,1.3-1,2.2c0.2,0.7,0.9,1.1,1.6,1.1c0.2,0,0.4,0,0.6-0.1l0.2-0.1
		c0.9-0.3,1.3-1.3,1-2.2C464.9,542.4,463.9,541.9,463.1,542.2z"/>
	<path class="st12" d="M530.3,444.2c-2.4,0-4.3,1.9-4.3,4.3s1.9,4.3,4.3,4.3c2.4,0,4.3-1.9,4.3-4.3S532.7,444.2,530.3,444.2z"/>
	<path class="st12" d="M688.4,447.2H539c-0.6-4-3.8-7.1-7.8-7.5c-2.1-25.4-13.6-48.9-32.3-66.3c-19.1-17.8-44-27.6-70.1-27.6v2.5
		c51.8,0,95.4,40.1,99.8,91.5c-4.1,0.8-7.2,4.4-7.2,8.6c0,4.3,3.1,7.9,7.2,8.6c-1.3,14.8-5.7,28.7-13.1,41.5l2.2,1.3
		c7.6-13.2,12.2-27.5,13.4-42.7c4-0.4,7.2-3.5,7.8-7.5h149.3V447.2z M530.3,454.8c-3.5,0-6.3-2.8-6.3-6.3c0-3.5,2.8-6.3,6.3-6.3
		c3.5,0,6.3,2.8,6.3,6.3C536.6,452,533.8,454.8,530.3,454.8z"/>
</g>
<g>
	<path class="st3" d="M386.1,449h6.5v2.5H383v-14.9h3.1V449z"/>
	<path class="st3" d="M393.7,445.8c0-1.1,0.2-2.1,0.6-2.9s1-1.5,1.8-2s1.7-0.7,2.8-0.7c1.5,0,2.7,0.5,3.7,1.4s1.5,2.2,1.6,3.7l0,0.8
		c0,1.7-0.5,3.1-1.4,4.1c-1,1-2.2,1.5-3.8,1.5s-2.9-0.5-3.8-1.5c-1-1-1.4-2.4-1.4-4.2V445.8z M396.7,446.1c0,1.1,0.2,1.9,0.6,2.4
		c0.4,0.6,1,0.8,1.7,0.8c0.7,0,1.3-0.3,1.7-0.8s0.6-1.4,0.6-2.6c0-1-0.2-1.8-0.6-2.4c-0.4-0.6-1-0.9-1.7-0.9c-0.7,0-1.3,0.3-1.7,0.8
		C396.9,444,396.7,444.9,396.7,446.1z"/>
	<path class="st3" d="M409.6,437.7v2.7h1.9v2.2h-1.9v5.5c0,0.4,0.1,0.7,0.2,0.9s0.5,0.3,0.9,0.3c0.3,0,0.6,0,0.9-0.1v2.2
		c-0.6,0.2-1.2,0.3-1.8,0.3c-2.1,0-3.1-1-3.2-3.1v-6H405v-2.2h1.6v-2.7H409.6z"/>
	<path class="st3" d="M416.7,437.7v2.7h1.9v2.2h-1.9v5.5c0,0.4,0.1,0.7,0.2,0.9s0.5,0.3,0.9,0.3c0.3,0,0.6,0,0.9-0.1v2.2
		c-0.6,0.2-1.2,0.3-1.8,0.3c-2.1,0-3.1-1-3.2-3.1v-6h-1.6v-2.2h1.6v-2.7H416.7z"/>
	<path class="st3" d="M425.3,451.7c-1.6,0-3-0.5-4-1.5c-1-1-1.5-2.3-1.5-4v-0.3c0-1.1,0.2-2.1,0.6-3c0.4-0.9,1-1.6,1.8-2
		c0.8-0.5,1.7-0.7,2.7-0.7c1.5,0,2.7,0.5,3.6,1.4c0.9,1,1.3,2.3,1.3,4.1v1.2h-7.1c0.1,0.7,0.4,1.3,0.9,1.7c0.5,0.4,1.1,0.7,1.8,0.7
		c1.1,0,2-0.4,2.7-1.2l1.5,1.6c-0.4,0.6-1,1.1-1.8,1.5C427.1,451.5,426.3,451.7,425.3,451.7z M425,442.6c-0.6,0-1.1,0.2-1.4,0.6
		c-0.4,0.4-0.6,1-0.7,1.7h4.1v-0.2c0-0.7-0.2-1.2-0.5-1.5C426.1,442.8,425.6,442.6,425,442.6z"/>
	<path class="st3" d="M437.8,443.2c-0.4-0.1-0.8-0.1-1.1-0.1c-1.1,0-1.9,0.4-2.2,1.1v7.3h-3v-11.1h2.8l0.1,1.3
		c0.6-1,1.4-1.5,2.5-1.5c0.3,0,0.6,0,0.9,0.1L437.8,443.2z"/>
	<path class="st3" d="M443.6,447.3l2.1-6.9h3.2l-4.5,12.8l-0.2,0.6c-0.7,1.4-1.8,2.2-3.3,2.2c-0.4,0-0.9-0.1-1.3-0.2v-2.2l0.5,0
		c0.6,0,1-0.1,1.3-0.3c0.3-0.2,0.5-0.5,0.7-0.9l0.3-0.9l-3.9-11.1h3.2L443.6,447.3z"/>
	<path class="st3" d="M461.6,451.5c-0.1-0.3-0.2-0.6-0.3-1c-0.7,0.8-1.7,1.2-2.8,1.2c-1.1,0-2-0.3-2.7-0.9s-1.1-1.4-1.1-2.4
		c0-1.2,0.4-2.1,1.3-2.7c0.9-0.6,2.1-0.9,3.8-1h1.4v-0.6c0-0.5-0.1-0.9-0.4-1.2s-0.7-0.5-1.2-0.5c-0.5,0-0.9,0.1-1.2,0.4
		s-0.4,0.6-0.4,1h-3c0-0.6,0.2-1.2,0.6-1.8s1-1,1.7-1.3c0.7-0.3,1.5-0.5,2.4-0.5c1.4,0,2.5,0.3,3.3,1c0.8,0.7,1.2,1.7,1.2,2.9v4.8
		c0,1.1,0.2,1.8,0.4,2.4v0.2H461.6z M459.2,449.4c0.4,0,0.8-0.1,1.2-0.3c0.4-0.2,0.6-0.5,0.8-0.8v-1.9h-1.1c-1.5,0-2.3,0.5-2.4,1.5
		l0,0.2c0,0.4,0.1,0.7,0.4,0.9S458.7,449.4,459.2,449.4z"/>
	<path class="st3" d="M472.5,448.4c0-0.4-0.2-0.6-0.5-0.9c-0.4-0.2-0.9-0.4-1.7-0.6c-2.6-0.6-4-1.7-4-3.4c0-1,0.4-1.8,1.2-2.5
		c0.8-0.7,1.9-1,3.2-1c1.4,0,2.5,0.3,3.4,1c0.8,0.7,1.3,1.5,1.3,2.6h-3c0-0.4-0.1-0.8-0.4-1.1c-0.3-0.3-0.7-0.4-1.3-0.4
		c-0.5,0-0.9,0.1-1.2,0.3s-0.4,0.5-0.4,0.9c0,0.3,0.2,0.6,0.5,0.8c0.3,0.2,0.8,0.4,1.6,0.5c0.7,0.1,1.4,0.3,1.9,0.5
		c1.6,0.6,2.3,1.6,2.3,3c0,1-0.4,1.8-1.3,2.5c-0.9,0.6-2,0.9-3.4,0.9c-0.9,0-1.8-0.2-2.5-0.5c-0.7-0.3-1.3-0.8-1.7-1.4
		c-0.4-0.6-0.6-1.2-0.6-1.9h2.8c0,0.5,0.2,0.9,0.6,1.2s0.8,0.4,1.5,0.4c0.6,0,1-0.1,1.3-0.3C472.3,449.1,472.5,448.8,472.5,448.4z"
		/>
	<path class="st3" d="M392.9,476.7c-0.1-0.3-0.2-0.6-0.3-1c-0.7,0.8-1.7,1.2-2.8,1.2c-1.1,0-2-0.3-2.7-0.9s-1.1-1.4-1.1-2.4
		c0-1.2,0.4-2.1,1.3-2.7c0.9-0.6,2.1-0.9,3.8-1h1.4v-0.6c0-0.5-0.1-0.9-0.4-1.2c-0.3-0.3-0.7-0.5-1.2-0.5c-0.5,0-0.9,0.1-1.2,0.4
		s-0.4,0.6-0.4,1h-3c0-0.6,0.2-1.2,0.6-1.8c0.4-0.5,1-1,1.7-1.3c0.7-0.3,1.5-0.5,2.4-0.5c1.4,0,2.5,0.3,3.3,1
		c0.8,0.7,1.2,1.7,1.2,2.9v4.8c0,1.1,0.2,1.8,0.4,2.4v0.2H392.9z M390.5,474.6c0.4,0,0.8-0.1,1.2-0.3c0.4-0.2,0.6-0.5,0.8-0.8v-1.9
		h-1.1c-1.5,0-2.3,0.5-2.4,1.5l0,0.2c0,0.4,0.1,0.7,0.4,0.9S390,474.6,390.5,474.6z"/>
	<path class="st3" d="M410.9,472.8c0-0.6-0.2-1-0.6-1.3c-0.4-0.3-1.1-0.6-2.2-1c-1.1-0.3-1.9-0.7-2.5-1c-1.7-0.9-2.5-2.1-2.5-3.7
		c0-0.8,0.2-1.5,0.7-2.2c0.5-0.6,1.1-1.1,2-1.5c0.9-0.4,1.8-0.5,2.9-0.5c1.1,0,2,0.2,2.9,0.6c0.8,0.4,1.5,0.9,1.9,1.6
		c0.5,0.7,0.7,1.5,0.7,2.4h-3.1c0-0.7-0.2-1.2-0.6-1.6c-0.4-0.4-1-0.6-1.8-0.6c-0.8,0-1.3,0.2-1.8,0.5c-0.4,0.3-0.6,0.7-0.6,1.3
		c0,0.5,0.2,0.9,0.7,1.2c0.5,0.3,1.2,0.6,2.2,0.9c1.8,0.5,3,1.2,3.8,2s1.2,1.8,1.2,2.9c0,1.3-0.5,2.3-1.5,3c-1,0.7-2.3,1.1-3.9,1.1
		c-1.1,0-2.2-0.2-3.1-0.6c-0.9-0.4-1.7-1-2.2-1.7c-0.5-0.7-0.7-1.6-0.7-2.5h3.1c0,1.6,1,2.5,3,2.5c0.7,0,1.3-0.1,1.7-0.4
		C410.7,473.7,410.9,473.3,410.9,472.8z"/>
	<path class="st3" d="M421,476.9c-1.6,0-3-0.5-4-1.5c-1-1-1.5-2.3-1.5-4v-0.3c0-1.1,0.2-2.1,0.6-3c0.4-0.9,1-1.6,1.8-2
		c0.8-0.5,1.7-0.7,2.7-0.7c1.5,0,2.7,0.5,3.6,1.4c0.9,1,1.3,2.3,1.3,4.1v1.2h-7.1c0.1,0.7,0.4,1.3,0.9,1.7c0.5,0.4,1.1,0.7,1.8,0.7
		c1.1,0,2-0.4,2.7-1.2l1.5,1.6c-0.4,0.6-1,1.1-1.8,1.5C422.8,476.7,421.9,476.9,421,476.9z M420.7,467.8c-0.6,0-1.1,0.2-1.4,0.6
		s-0.6,1-0.7,1.7h4.1v-0.2c0-0.7-0.2-1.2-0.5-1.5S421.3,467.8,420.7,467.8z"/>
	<path class="st3" d="M433.5,468.4c-0.4-0.1-0.8-0.1-1.1-0.1c-1.1,0-1.9,0.4-2.2,1.1v7.3h-3v-11.1h2.8l0.1,1.3
		c0.6-1,1.4-1.5,2.5-1.5c0.3,0,0.6,0,0.9,0.1L433.5,468.4z"/>
	<path class="st3" d="M439.2,473.1l2.1-7.5h3.1l-3.7,11.1h-2.8l-3.7-11.1h3.1L439.2,473.1z"/>
	<path class="st3" d="M445.7,462.7c0-0.4,0.1-0.8,0.4-1.1c0.3-0.3,0.7-0.4,1.2-0.4c0.5,0,0.9,0.1,1.2,0.4s0.5,0.7,0.5,1.1
		c0,0.5-0.2,0.8-0.5,1.1s-0.7,0.4-1.2,0.4s-0.9-0.1-1.2-0.4C445.8,463.6,445.7,463.2,445.7,462.7z M448.8,476.7h-3v-11.1h3V476.7z"
		/>
	<path class="st3" d="M455.9,474.5c0.5,0,1-0.2,1.3-0.5s0.5-0.7,0.5-1.2h2.8c0,0.8-0.2,1.4-0.6,2.1c-0.4,0.6-1,1.1-1.7,1.5
		c-0.7,0.3-1.5,0.5-2.3,0.5c-1.6,0-2.8-0.5-3.8-1.5c-0.9-1-1.4-2.4-1.4-4.2V471c0-1.7,0.5-3.1,1.4-4.1s2.2-1.5,3.7-1.5
		c1.4,0,2.5,0.4,3.3,1.2c0.8,0.8,1.3,1.8,1.3,3.2h-2.8c0-0.6-0.2-1-0.5-1.4c-0.3-0.4-0.8-0.5-1.4-0.5c-0.7,0-1.2,0.3-1.6,0.8
		c-0.4,0.5-0.5,1.3-0.5,2.4v0.3c0,1.1,0.2,2,0.5,2.5S455.2,474.5,455.9,474.5z"/>
	<path class="st3" d="M467.3,476.9c-1.6,0-3-0.5-4-1.5c-1-1-1.5-2.3-1.5-4v-0.3c0-1.1,0.2-2.1,0.6-3c0.4-0.9,1-1.6,1.8-2
		c0.8-0.5,1.7-0.7,2.7-0.7c1.5,0,2.7,0.5,3.6,1.4c0.9,1,1.3,2.3,1.3,4.1v1.2h-7.1c0.1,0.7,0.4,1.3,0.9,1.7c0.5,0.4,1.1,0.7,1.8,0.7
		c1.1,0,2-0.4,2.7-1.2l1.5,1.6c-0.4,0.6-1,1.1-1.8,1.5C469.1,476.7,468.2,476.9,467.3,476.9z M467,467.8c-0.6,0-1.1,0.2-1.4,0.6
		s-0.6,1-0.7,1.7h4.1v-0.2c0-0.7-0.2-1.2-0.5-1.5S467.6,467.8,467,467.8z"/>
</g>
<g>
	<path class="st3" d="M745.9,123.9h6.5v2.5h-9.6v-14.9h3.1V123.9z"/>
	<path class="st3" d="M765.2,111.5v9.8c0,1.6-0.5,2.9-1.5,3.9c-1,1-2.4,1.4-4.2,1.4c-1.7,0-3.1-0.5-4.2-1.4s-1.5-2.2-1.6-3.8v-9.9
		h3.1v9.9c0,1,0.2,1.7,0.7,2.1c0.5,0.4,1.1,0.7,1.9,0.7c1.7,0,2.6-0.9,2.6-2.7v-9.9H765.2z"/>
	<path class="st3" d="M779.4,121.4c-0.1,1.6-0.7,2.9-1.8,3.8s-2.5,1.4-4.2,1.4c-1.9,0-3.4-0.6-4.5-1.9c-1.1-1.3-1.6-3.1-1.6-5.3
		v-0.9c0-1.4,0.3-2.7,0.8-3.8s1.2-1.9,2.2-2.5c0.9-0.6,2-0.9,3.3-0.9c1.7,0,3.1,0.5,4.2,1.4s1.7,2.2,1.8,3.9h-3.1
		c-0.1-1-0.3-1.7-0.8-2.1c-0.5-0.4-1.2-0.7-2.1-0.7c-1,0-1.8,0.4-2.3,1.1s-0.8,1.9-0.8,3.4v1.1c0,1.6,0.2,2.8,0.7,3.5
		c0.5,0.7,1.3,1.1,2.3,1.1c0.9,0,1.7-0.2,2.1-0.7s0.7-1.1,0.8-2H779.4z"/>
	<path class="st3" d="M786.1,120.4l-1.6,1.7v4.3h-3.1v-14.9h3.1v6.8l1.4-1.9l3.8-4.9h3.8l-5.3,6.6l5.5,8.3H790L786.1,120.4z"/>
	<path class="st3" d="M803.1,123.9h6.5v2.5H800v-14.9h3.1V123.9z"/>
	<path class="st3" d="M810.7,120.8c0-1.1,0.2-2.1,0.6-2.9s1-1.5,1.8-2c0.8-0.5,1.7-0.7,2.8-0.7c1.5,0,2.7,0.5,3.7,1.4
		c0.9,0.9,1.5,2.2,1.6,3.7l0,0.8c0,1.7-0.5,3.1-1.4,4.1s-2.2,1.5-3.8,1.5s-2.9-0.5-3.8-1.5c-1-1-1.4-2.4-1.4-4.2V120.8z M813.7,121
		c0,1.1,0.2,1.9,0.6,2.4s1,0.8,1.7,0.8c0.7,0,1.3-0.3,1.7-0.8c0.4-0.6,0.6-1.4,0.6-2.6c0-1-0.2-1.8-0.6-2.4c-0.4-0.6-1-0.9-1.7-0.9
		c-0.7,0-1.3,0.3-1.7,0.8S813.7,119.8,813.7,121z"/>
	<path class="st3" d="M826.6,112.6v2.7h1.9v2.2h-1.9v5.5c0,0.4,0.1,0.7,0.2,0.9s0.5,0.3,0.9,0.3c0.3,0,0.6,0,0.9-0.1v2.2
		c-0.6,0.2-1.2,0.3-1.8,0.3c-2.1,0-3.1-1-3.2-3.1v-6H822v-2.2h1.6v-2.7H826.6z"/>
	<path class="st3" d="M833.7,112.6v2.7h1.9v2.2h-1.9v5.5c0,0.4,0.1,0.7,0.2,0.9s0.5,0.3,0.9,0.3c0.3,0,0.6,0,0.9-0.1v2.2
		c-0.6,0.2-1.2,0.3-1.8,0.3c-2.1,0-3.1-1-3.2-3.1v-6h-1.6v-2.2h1.6v-2.7H833.7z"/>
	<path class="st3" d="M842.4,126.6c-1.6,0-3-0.5-4-1.5c-1-1-1.5-2.3-1.5-4v-0.3c0-1.1,0.2-2.1,0.6-3c0.4-0.9,1-1.6,1.8-2
		c0.8-0.5,1.7-0.7,2.7-0.7c1.5,0,2.7,0.5,3.6,1.4c0.9,1,1.3,2.3,1.3,4.1v1.2h-7.1c0.1,0.7,0.4,1.3,0.9,1.7c0.5,0.4,1.1,0.7,1.8,0.7
		c1.1,0,2-0.4,2.7-1.2l1.5,1.6c-0.4,0.6-1,1.1-1.8,1.5C844.1,126.4,843.3,126.6,842.4,126.6z M842,117.5c-0.6,0-1.1,0.2-1.4,0.6
		c-0.4,0.4-0.6,1-0.7,1.7h4.1v-0.2c0-0.7-0.2-1.2-0.5-1.5C843.2,117.7,842.7,117.5,842,117.5z"/>
	<path class="st3" d="M854.9,118.1c-0.4-0.1-0.8-0.1-1.1-0.1c-1.1,0-1.9,0.4-2.2,1.1v7.3h-3v-11.1h2.8l0.1,1.3
		c0.6-1,1.4-1.5,2.5-1.5c0.3,0,0.6,0,0.9,0.1L854.9,118.1z"/>
	<path class="st3" d="M860.6,122.2l2.1-6.9h3.2l-4.5,12.8l-0.2,0.6c-0.7,1.4-1.8,2.2-3.3,2.2c-0.4,0-0.9-0.1-1.3-0.2v-2.2l0.5,0
		c0.6,0,1-0.1,1.3-0.3c0.3-0.2,0.5-0.5,0.7-0.9l0.3-0.9l-3.9-11.1h3.2L860.6,122.2z"/>
</g>
<g>
	<path class="st3" d="M1133.7,443l3.8,10.8l3.8-10.8h4v14.9h-3.1v-4.1l0.3-7l-4,11.1h-2.1l-4-11.1l0.3,7v4.1h-3.1V443H1133.7z"/>
	<path class="st3" d="M1153,458.1c-1.6,0-3-0.5-4-1.5c-1-1-1.5-2.3-1.5-4v-0.3c0-1.1,0.2-2.1,0.6-3c0.4-0.9,1-1.6,1.8-2
		c0.8-0.5,1.7-0.7,2.7-0.7c1.5,0,2.7,0.5,3.6,1.4c0.9,1,1.3,2.3,1.3,4.1v1.2h-7.1c0.1,0.7,0.4,1.3,0.9,1.7c0.5,0.4,1.1,0.7,1.8,0.7
		c1.1,0,2-0.4,2.7-1.2l1.5,1.6c-0.4,0.6-1,1.1-1.8,1.5C1154.7,457.9,1153.9,458.1,1153,458.1z M1152.6,449c-0.6,0-1.1,0.2-1.4,0.6
		c-0.4,0.4-0.6,1-0.7,1.7h4.1v-0.2c0-0.7-0.2-1.2-0.5-1.5S1153.3,449,1152.6,449z"/>
	<path class="st3" d="M1162.8,444.1v2.7h1.9v2.2h-1.9v5.5c0,0.4,0.1,0.7,0.2,0.9s0.5,0.3,0.9,0.3c0.3,0,0.6,0,0.9-0.1v2.2
		c-0.6,0.2-1.2,0.3-1.8,0.3c-2.1,0-3.1-1-3.2-3.1v-6h-1.6v-2.2h1.6v-2.7H1162.8z"/>
	<path class="st3" d="M1172.7,457.9c-0.1-0.3-0.2-0.6-0.3-1c-0.7,0.8-1.7,1.2-2.8,1.2c-1.1,0-2-0.3-2.7-0.9
		c-0.7-0.6-1.1-1.4-1.1-2.4c0-1.2,0.4-2.1,1.3-2.7c0.9-0.6,2.1-0.9,3.8-1h1.4v-0.6c0-0.5-0.1-0.9-0.4-1.2c-0.3-0.3-0.7-0.5-1.2-0.5
		c-0.5,0-0.9,0.1-1.2,0.4c-0.3,0.2-0.4,0.6-0.4,1h-3c0-0.6,0.2-1.2,0.6-1.8c0.4-0.5,1-1,1.7-1.3c0.7-0.3,1.5-0.5,2.4-0.5
		c1.4,0,2.5,0.3,3.3,1c0.8,0.7,1.2,1.7,1.2,2.9v4.8c0,1.1,0.2,1.8,0.4,2.4v0.2H1172.7z M1170.3,455.8c0.4,0,0.8-0.1,1.2-0.3
		c0.4-0.2,0.6-0.5,0.8-0.8v-1.9h-1.1c-1.5,0-2.3,0.5-2.4,1.5l0,0.2c0,0.4,0.1,0.7,0.4,0.9C1169.5,455.7,1169.8,455.8,1170.3,455.8z"
		/>
	<path class="st3" d="M1180.7,457.9h-3v-15.8h3V457.9z"/>
	<path class="st3" d="M1189.8,456.8c-0.7,0.9-1.7,1.3-3,1.3c-1.2,0-2.1-0.3-2.7-1c-0.6-0.7-0.9-1.7-1-3v-7.3h3v7.2
		c0,1.2,0.5,1.7,1.6,1.7c1,0,1.7-0.3,2.1-1v-7.9h3v11.1h-2.8L1189.8,456.8z"/>
	<path class="st3" d="M1199.5,455.7c0.5,0,1-0.2,1.3-0.5c0.3-0.3,0.5-0.7,0.5-1.2h2.8c0,0.8-0.2,1.4-0.6,2.1c-0.4,0.6-1,1.1-1.7,1.5
		c-0.7,0.3-1.5,0.5-2.3,0.5c-1.6,0-2.8-0.5-3.8-1.5c-0.9-1-1.4-2.4-1.4-4.2v-0.2c0-1.7,0.5-3.1,1.4-4.1c0.9-1,2.2-1.5,3.7-1.5
		c1.4,0,2.5,0.4,3.3,1.2c0.8,0.8,1.3,1.8,1.3,3.2h-2.8c0-0.6-0.2-1-0.5-1.4c-0.3-0.4-0.8-0.5-1.4-0.5c-0.7,0-1.2,0.3-1.6,0.8
		c-0.4,0.5-0.5,1.3-0.5,2.4v0.3c0,1.1,0.2,2,0.5,2.5S1198.8,455.7,1199.5,455.7z"/>
	<path class="st3" d="M1209.9,453.4l-1.1,1.1v3.4h-3v-15.8h3v8.7l0.6-0.7l2.8-3.3h3.6l-4,4.6l4.4,6.5h-3.4L1209.9,453.4z"/>
</g>
<g>
	<path class="st15" d="M776.7,407h8.1c0.5,0,1-0.4,1-1v-3.2c0-0.6-0.4-1-1-1h-8.1c-0.5,0-1,0.4-1,1v3.2
		C775.7,406.5,776.2,407,776.7,407L776.7,407L776.7,407z"/>
	<path class="st15" d="M785.9,432.3v-3.2c0-0.5-0.4-1-1-1h-8.1c-0.5,0-1,0.4-1,1v3.2c0,0.6,0.4,1,1,1h8.1
		C785.4,433.3,785.9,432.9,785.9,432.3L785.9,432.3L785.9,432.3z"/>
	<path class="st16" d="M805.1,417.5c0,7.6,6.2,13.8,13.8,13.8c7.6,0,13.8-6.2,13.8-13.8c0-7.6-6.2-13.8-13.8-13.8
		C811.3,403.8,805.1,409.9,805.1,417.5L805.1,417.5L805.1,417.5z"/>
	<path class="st17" d="M776.8,427c-0.3,0-0.6,0.1-0.8,0.2c-0.4,0.2-0.7,0.4-0.9,0.8c-0.2,0.3-0.4,0.7-0.4,1.2v3.2
		c0,0.3,0.1,0.6,0.2,0.8c0.2,0.4,0.4,0.7,0.8,0.9c0.3,0.2,0.7,0.4,1.2,0.4h1.5v1.7v7.3c0,0.3,0.1,0.7,0.2,1c0.2,0.4,0.5,0.8,0.9,1.1
		c0.4,0.3,0.9,0.4,1.4,0.4h6.3v7.7c0,0.3,0.1,0.5,0.1,0.7c0.1,0.3,0.4,0.6,0.7,0.8c0.3,0.2,0.6,0.3,1,0.3c0.2,0,0.5-0.1,0.7-0.2l0,0
		l6.1-2.7l0,0c0.3-0.1,0.6-0.4,0.8-0.7c0.2-0.3,0.3-0.6,0.3-1v-5h1.3c0,0,0,0,0,0h22.5v5c0,0.4,0.1,0.7,0.3,1
		c0.2,0.3,0.5,0.5,0.8,0.7l0,0l6.1,2.7l0,0c0.2,0.1,0.5,0.2,0.7,0.2c0.2,0,0.5,0,0.7-0.1c0.3-0.1,0.6-0.4,0.8-0.6
		c0.1-0.1,0.2-0.3,0.2-0.5c0.1-0.2,0.1-0.4,0.1-0.6v-7.7h6.3c0.3,0,0.7-0.1,1-0.2c0.4-0.2,0.8-0.5,1.1-0.9c0.3-0.4,0.4-0.9,0.4-1.4
		v-31.9c0-0.6-0.5-1.1-1.1-1.1c-0.6,0-1.1,0.5-1.1,1.1v31.9c0,0,0,0.1,0,0.1c0,0,0,0.1-0.1,0.1c0,0-0.1,0-0.1,0h-6.4h-0.9h-7.5H798
		h-2.4h-7.5h-7.4c0,0-0.1,0-0.1,0c0,0-0.1,0-0.1-0.1c0,0,0-0.1,0-0.1v-7.3v-1.7h4.4c0.3,0,0.6-0.1,0.8-0.2c0.4-0.2,0.7-0.4,0.9-0.8
		c0.2-0.3,0.4-0.7,0.4-1.2v-3.2c0-0.3-0.1-0.6-0.2-0.8c-0.2-0.4-0.4-0.7-0.8-0.9c-0.3-0.2-0.7-0.4-1.2-0.4h-4.4v-18.9h4.4
		c0.3,0,0.6-0.1,0.8-0.2c0.4-0.2,0.7-0.4,0.9-0.8c0.2-0.3,0.4-0.7,0.4-1.2v-3.2c0-0.3-0.1-0.6-0.2-0.8c-0.2-0.4-0.4-0.7-0.8-0.9
		c-0.3-0.2-0.7-0.4-1.2-0.4h-4.4V399v-7.3c0,0,0-0.1,0-0.1c0,0,0-0.1,0.1-0.1c0,0,0.1,0,0.1,0h55.8c0,0,0.1,0,0.1,0
		c0,0,0.1,0,0.1,0.1c0,0,0,0.1,0,0.1v12.3c0,0.6,0.5,1.1,1.1,1.1c0.6,0,1.1-0.5,1.1-1.1v-12.3c0-0.3-0.1-0.7-0.2-1
		c-0.2-0.4-0.5-0.8-0.9-1.1c-0.4-0.3-0.9-0.4-1.4-0.4h-55.8c-0.3,0-0.7,0.1-1,0.2c-0.4,0.2-0.8,0.5-1.1,0.9
		c-0.3,0.4-0.4,0.9-0.4,1.4v7.3v1.7h-1.5c-0.3,0-0.6,0.1-0.8,0.2c-0.4,0.2-0.7,0.4-0.9,0.8c-0.2,0.3-0.4,0.7-0.4,1.2v3.2
		c0,0.3,0.1,0.6,0.2,0.8c0.2,0.4,0.4,0.7,0.8,0.9c0.3,0.2,0.7,0.4,1.2,0.4h1.5V427H776.8L776.8,427L776.8,427z M822.8,450.6v-4.7
		h5.3v7.1L822.8,450.6L822.8,450.6L822.8,450.6z M828.6,453.2L828.6,453.2L828.6,453.2L828.6,453.2L828.6,453.2L828.6,453.2z
		 M788.6,453.2L788.6,453.2L788.6,453.2L788.6,453.2L788.6,453.2L788.6,453.2z M794.5,450.6l-5.3,2.3v-7.1h5.3V450.6L794.5,450.6
		L794.5,450.6z M776.9,402.9h7.9v2.9h-7.9V402.9L776.9,402.9L776.9,402.9z M784.8,432.2h-7.9v-2.9h7.9V432.2L784.8,432.2
		L784.8,432.2z"/>
	<path class="st17" d="M832.6,397.3c0.6,0,1.1-0.5,1.1-1.1c0-0.6-0.5-1.1-1.1-1.1H798c-0.6,0-1.1,0.5-1.1,1.1c0,0.6,0.5,1.1,1.1,1.1
		H832.6L832.6,397.3L832.6,397.3z"/>
	<path class="st17" d="M832.6,411.7c-1.1-2.7-3-4.9-5.4-6.5c-2.4-1.6-5.2-2.5-8.3-2.5c-2.1,0-4,0.4-5.8,1.2c-2.7,1.1-4.9,3-6.5,5.4
		c-1.6,2.4-2.5,5.2-2.5,8.3c0,2.1,0.4,4,1.2,5.8c1.1,2.7,3,4.9,5.4,6.5c2.4,1.6,5.2,2.5,8.3,2.5c2.1,0,4-0.4,5.8-1.2
		c2.7-1.1,4.9-3,6.5-5.4c1.6-2.4,2.5-5.2,2.5-8.3C833.7,415.5,833.3,413.5,832.6,411.7L832.6,411.7L832.6,411.7z M830.5,422.5
		c-1,2.3-2.6,4.2-4.6,5.6c-2,1.4-4.4,2.2-7.1,2.2c-1.8,0-3.4-0.4-4.9-1c-2.3-1-4.2-2.6-5.6-4.6c-1.4-2-2.2-4.4-2.2-7.1
		c0-1.8,0.4-3.4,1-4.9c1-2.3,2.6-4.2,4.6-5.6c2-1.4,4.4-2.2,7.1-2.2c1.7,0,3.4,0.4,4.9,1c2.3,1,4.2,2.6,5.6,4.6
		c1.4,2,2.2,4.4,2.2,7.1C831.5,419.3,831.2,420.9,830.5,422.5L830.5,422.5L830.5,422.5z"/>
	<path class="st17" d="M790.6,412.2c-0.4,0.2-0.7,0.4-0.9,0.7c-0.2,0.3-0.4,0.7-0.4,1.1v7c0,0.3,0.1,0.5,0.2,0.8
		c0.2,0.4,0.4,0.7,0.7,0.9c0.3,0.2,0.7,0.3,1.1,0.3h7c0.3,0,0.5-0.1,0.8-0.2c0.4-0.2,0.7-0.4,0.9-0.7c0.2-0.3,0.4-0.7,0.4-1.1v-7
		c0-0.3-0.1-0.6-0.2-0.8c-0.2-0.4-0.4-0.7-0.7-0.9c-0.3-0.2-0.7-0.3-1.1-0.3h-7C791.1,412,790.9,412.1,790.6,412.2L790.6,412.2
		L790.6,412.2z M798.2,420.9h-6.6v-6.6h6.6V420.9L798.2,420.9L798.2,420.9z"/>
	<path class="st17" d="M798,437.5h34.6c0.6,0,1.1-0.5,1.1-1.1c0-0.6-0.5-1.1-1.1-1.1H798c-0.6,0-1.1,0.5-1.1,1.1
		C796.9,437,797.4,437.5,798,437.5L798,437.5L798,437.5z"/>
	<path class="st17" d="M825,408.6c-1.8-1.2-3.9-1.9-6.2-1.9c-1.5,0-3,0.3-4.3,0.9c-2,0.8-3.7,2.2-4.9,4c-1.2,1.8-1.9,3.9-1.9,6.2
		c0,1.5,0.3,3,0.9,4.3c0.8,2,2.2,3.7,4,4.9c1.8,1.2,3.9,1.9,6.2,1.9c1.5,0,3-0.3,4.3-0.9c2-0.8,3.7-2.2,4.9-4
		c1.2-1.8,1.9-3.9,1.9-6.2c0-1.5-0.3-3-0.9-4.3C828.2,411.4,826.8,409.8,825,408.6L825,408.6L825,408.6z M827,421.2
		c-0.7,1.6-1.8,2.9-3.2,3.9c-1.4,1-3.1,1.5-4.9,1.5c-1.2,0-2.4-0.2-3.4-0.7c-1.6-0.7-2.9-1.8-3.9-3.2c-1-1.4-1.5-3.1-1.5-4.9
		c0-1.2,0.2-2.4,0.7-3.4c0.7-1.6,1.8-2.9,3.2-3.9c1.4-0.9,3.1-1.5,4.9-1.5c1.2,0,2.4,0.2,3.4,0.7c1.6,0.7,2.9,1.8,3.9,3.2
		c1,1.4,1.5,3.1,1.5,4.9C827.7,418.9,827.4,420.1,827,421.2L827,421.2L827,421.2z"/>
	<path class="st17" d="M823.5,413.1c-0.4-0.4-1.1-0.4-1.5,0l-3.1,3.1l-3.1-3.1c-0.4-0.4-1.1-0.4-1.5,0c-0.4,0.4-0.4,1.1,0,1.5
		l3.1,3.1l-3.1,3.1c-0.4,0.4-0.4,1.1,0,1.5c0.4,0.4,1.1,0.4,1.5,0l3.1-3.1l3.1,3.1c0.4,0.4,1.1,0.4,1.5,0c0.4-0.4,0.4-1.1,0-1.5
		l-3.1-3.1l3.1-3.1C823.9,414.2,823.9,413.5,823.5,413.1L823.5,413.1L823.5,413.1z"/>
</g>
<polygon class="st12" points="688.4,448.5 688.4,443 693.2,445.7 697.9,448.5 693.2,451.3 688.4,454 "/>
<polygon class="st18" points="434,643.6 439.5,643.6 436.7,648.4 434,653.2 431.2,648.4 428.4,643.6 "/>
<polygon class="st18" points="213.7,448.6 213.7,454.1 208.9,451.3 204.2,448.6 208.9,445.8 213.7,443.1 "/>
<polygon class="st18" points="213.7,138.5 213.7,144.1 208.9,141.3 204.2,138.5 208.9,135.8 213.7,133 "/>
<polygon class="st18" points="538.3,138.5 538.3,144.1 533.6,141.3 528.8,138.5 533.6,135.8 538.3,133 "/>
<polygon class="st4" points="928.5,448.5 928.5,454 923.7,451.3 918.9,448.5 923.7,445.7 928.5,443 "/>
<polygon class="st4" points="1054.3,448.5 1054.3,443 1059,445.7 1063.8,448.5 1059,451.3 1054.3,454 "/>
<polygon class="st19" points="735.8,646.5 741.3,646.5 738.5,651.3 735.8,656.1 733,651.3 730.2,646.5 "/>
<polygon class="st19" points="1064.2,646.5 1069.7,646.5 1066.9,651.3 1064.2,656.1 1061.4,651.3 1058.6,646.5 "/>
<polygon class="st19" points="1394.2,646.5 1399.7,646.5 1396.9,651.3 1394.2,656.1 1391.4,651.3 1388.6,646.5 "/>
<polygon class="st9" points="803.7,308.5 809.2,308.5 806.4,313.3 803.7,318.1 800.9,313.3 798.1,308.5 "/>
<g>
	<g>
		<path class="st3" d="M635.9,430.9l2.7-4.3h1.8l-3.6,5.6l3.7,5.7h-1.8l-2.8-4.4l-2.8,4.4h-1.8l3.7-5.7l-3.6-5.6h1.7L635.9,430.9z"
			/>
		<path class="st3" d="M641.7,428.8c0-0.7,0.2-1.2,0.6-1.7c0.4-0.4,1-0.7,1.7-0.7c0.7,0,1.2,0.2,1.7,0.7c0.4,0.4,0.6,1,0.6,1.7v0.6
			c0,0.7-0.2,1.2-0.6,1.7c-0.4,0.4-1,0.6-1.7,0.6c-0.7,0-1.2-0.2-1.7-0.6c-0.4-0.4-0.7-1-0.7-1.7V428.8z M642.8,429.4
			c0,0.4,0.1,0.7,0.3,1c0.2,0.3,0.5,0.4,0.9,0.4c0.4,0,0.7-0.1,0.9-0.4c0.2-0.3,0.3-0.6,0.3-1v-0.6c0-0.4-0.1-0.7-0.3-1
			c-0.2-0.3-0.5-0.4-0.9-0.4s-0.7,0.1-0.9,0.4c-0.2,0.3-0.3,0.6-0.3,1V429.4z M644.4,437.1l-0.8-0.5l5.5-8.8l0.8,0.5L644.4,437.1z
			 M647.2,435.1c0-0.7,0.2-1.2,0.6-1.7c0.4-0.4,1-0.7,1.7-0.7s1.2,0.2,1.7,0.7c0.4,0.4,0.7,1,0.7,1.7v0.6c0,0.7-0.2,1.2-0.6,1.7
			s-1,0.7-1.7,0.7c-0.7,0-1.2-0.2-1.7-0.6s-0.7-1-0.7-1.7V435.1z M648.3,435.7c0,0.4,0.1,0.7,0.3,1c0.2,0.3,0.5,0.4,0.9,0.4
			c0.4,0,0.7-0.1,0.9-0.4c0.2-0.3,0.3-0.6,0.3-1v-0.6c0-0.4-0.1-0.7-0.3-1c-0.2-0.3-0.5-0.4-0.9-0.4c-0.4,0-0.7,0.1-0.9,0.4
			c-0.2,0.3-0.3,0.6-0.3,1V435.7z"/>
	</g>
</g>
<g>
	<g>
		<path class="st3" d="M261.2,432.3l3-5.7h1.7l-3.9,7.1v4.2h-1.5v-4.2l-3.9-7.1h1.7L261.2,432.3z"/>
		<path class="st3" d="M266.8,428.8c0-0.7,0.2-1.2,0.6-1.7c0.4-0.4,1-0.7,1.7-0.7c0.7,0,1.2,0.2,1.7,0.7c0.4,0.4,0.6,1,0.6,1.7v0.6
			c0,0.7-0.2,1.2-0.6,1.7c-0.4,0.4-1,0.6-1.7,0.6c-0.7,0-1.2-0.2-1.7-0.6c-0.4-0.4-0.7-1-0.7-1.7V428.8z M267.9,429.4
			c0,0.4,0.1,0.7,0.3,1c0.2,0.3,0.5,0.4,0.9,0.4c0.4,0,0.7-0.1,0.9-0.4c0.2-0.3,0.3-0.6,0.3-1v-0.6c0-0.4-0.1-0.7-0.3-1
			c-0.2-0.3-0.5-0.4-0.9-0.4s-0.7,0.1-0.9,0.4c-0.2,0.3-0.3,0.6-0.3,1V429.4z M269.5,437.1l-0.8-0.5l5.5-8.8l0.8,0.5L269.5,437.1z
			 M272.3,435.1c0-0.7,0.2-1.2,0.6-1.7c0.4-0.4,1-0.7,1.7-0.7s1.2,0.2,1.7,0.7c0.4,0.4,0.7,1,0.7,1.7v0.6c0,0.7-0.2,1.2-0.6,1.7
			s-1,0.7-1.7,0.7c-0.7,0-1.2-0.2-1.7-0.6s-0.7-1-0.7-1.7V435.1z M273.4,435.7c0,0.4,0.1,0.7,0.3,1c0.2,0.3,0.5,0.4,0.9,0.4
			c0.4,0,0.7-0.1,0.9-0.4c0.2-0.3,0.3-0.6,0.3-1v-0.6c0-0.4-0.1-0.7-0.3-1c-0.2-0.3-0.5-0.4-0.9-0.4c-0.4,0-0.7,0.1-0.9,0.4
			c-0.2,0.3-0.3,0.6-0.3,1V435.7z"/>
	</g>
</g>
<g>
	<g>
		<path class="st3" d="M444,597.7h6.5v1.2h-8.2v-1.1l6.2-9h-6.1v-1.2h7.9v1.1L444,597.7z"/>
		<path class="st3" d="M451.9,589.7c0-0.7,0.2-1.2,0.6-1.7c0.4-0.4,1-0.7,1.7-0.7c0.7,0,1.2,0.2,1.7,0.7c0.4,0.4,0.6,1,0.6,1.7v0.6
			c0,0.7-0.2,1.2-0.6,1.7c-0.4,0.4-1,0.6-1.7,0.6c-0.7,0-1.2-0.2-1.7-0.6c-0.4-0.4-0.7-1-0.7-1.7V589.7z M453,590.3
			c0,0.4,0.1,0.7,0.3,1c0.2,0.3,0.5,0.4,0.9,0.4c0.4,0,0.7-0.1,0.9-0.4c0.2-0.3,0.3-0.6,0.3-1v-0.6c0-0.4-0.1-0.7-0.3-1
			c-0.2-0.3-0.5-0.4-0.9-0.4s-0.7,0.1-0.9,0.4c-0.2,0.3-0.3,0.6-0.3,1V590.3z M454.6,598l-0.8-0.5l5.5-8.8l0.8,0.5L454.6,598z
			 M457.4,596.1c0-0.7,0.2-1.2,0.6-1.7c0.4-0.4,1-0.7,1.7-0.7s1.2,0.2,1.7,0.7c0.4,0.4,0.7,1,0.7,1.7v0.6c0,0.7-0.2,1.2-0.6,1.7
			s-1,0.7-1.7,0.7c-0.7,0-1.2-0.2-1.7-0.6s-0.7-1-0.7-1.7V596.1z M458.5,596.7c0,0.4,0.1,0.7,0.3,1c0.2,0.3,0.5,0.4,0.9,0.4
			c0.4,0,0.7-0.1,0.9-0.4c0.2-0.3,0.3-0.6,0.3-1v-0.6c0-0.4-0.1-0.7-0.3-1c-0.2-0.3-0.5-0.4-0.9-0.4c-0.4,0-0.7,0.1-0.9,0.4
			c-0.2,0.3-0.3,0.6-0.3,1V596.7z"/>
	</g>
</g>
<g>
	<g>
		<path class="st3" d="M549.3,119.2l0.6-5.6h5.8v1.3h-4.6l-0.3,3.1c0.6-0.3,1.2-0.5,1.9-0.5c1,0,1.9,0.3,2.5,1
			c0.6,0.7,0.9,1.6,0.9,2.8c0,1.2-0.3,2.1-0.9,2.8c-0.6,0.7-1.5,1-2.6,1c-1,0-1.8-0.3-2.4-0.8c-0.6-0.6-1-1.3-1.1-2.3h1.4
			c0.1,0.6,0.3,1.1,0.7,1.5s0.9,0.5,1.5,0.5c0.7,0,1.2-0.2,1.6-0.7s0.6-1.1,0.6-1.9c0-0.8-0.2-1.4-0.6-1.8c-0.4-0.5-1-0.7-1.6-0.7
			c-0.6,0-1.1,0.1-1.5,0.4l-0.4,0.3L549.3,119.2z"/>
		<path class="st3" d="M564.7,120.1c0,1.7-0.3,2.9-0.9,3.8c-0.6,0.8-1.5,1.2-2.7,1.2c-1.2,0-2.1-0.4-2.7-1.2c-0.6-0.8-0.9-2-0.9-3.6
			v-1.9c0-1.7,0.3-2.9,0.9-3.7c0.6-0.8,1.5-1.2,2.7-1.2c1.2,0,2.1,0.4,2.7,1.2s0.9,2,0.9,3.6V120.1z M563.3,118.1
			c0-1.2-0.2-2.1-0.5-2.7c-0.3-0.6-0.9-0.8-1.6-0.8c-0.7,0-1.3,0.3-1.6,0.8c-0.3,0.6-0.5,1.4-0.5,2.6v2.3c0,1.2,0.2,2.1,0.5,2.7
			s0.9,0.9,1.6,0.9c0.7,0,1.2-0.3,1.6-0.8c0.3-0.5,0.5-1.4,0.5-2.6V118.1z"/>
		<path class="st3" d="M566.4,115.7c0-0.7,0.2-1.2,0.6-1.7c0.4-0.4,1-0.7,1.7-0.7c0.7,0,1.2,0.2,1.7,0.7c0.4,0.4,0.6,1,0.6,1.7v0.6
			c0,0.7-0.2,1.2-0.6,1.7c-0.4,0.4-1,0.6-1.7,0.6c-0.7,0-1.2-0.2-1.7-0.6c-0.4-0.4-0.7-1-0.7-1.7V115.7z M567.5,116.3
			c0,0.4,0.1,0.7,0.3,1c0.2,0.3,0.5,0.4,0.9,0.4c0.4,0,0.7-0.1,0.9-0.4c0.2-0.3,0.3-0.6,0.3-1v-0.6c0-0.4-0.1-0.7-0.3-1
			c-0.2-0.3-0.5-0.4-0.9-0.4s-0.7,0.1-0.9,0.4c-0.2,0.3-0.3,0.6-0.3,1V116.3z M569.1,124l-0.8-0.5l5.5-8.8l0.8,0.5L569.1,124z
			 M572,122.1c0-0.7,0.2-1.2,0.6-1.7s1-0.7,1.7-0.7s1.2,0.2,1.7,0.7c0.4,0.4,0.7,1,0.7,1.7v0.6c0,0.7-0.2,1.2-0.6,1.7
			c-0.4,0.4-1,0.7-1.7,0.7c-0.7,0-1.2-0.2-1.7-0.6s-0.7-1-0.7-1.7V122.1z M573,122.7c0,0.4,0.1,0.7,0.3,1c0.2,0.3,0.5,0.4,0.9,0.4
			c0.4,0,0.7-0.1,0.9-0.4c0.2-0.3,0.3-0.6,0.3-1v-0.6c0-0.4-0.1-0.7-0.3-1c-0.2-0.3-0.5-0.4-0.9-0.4c-0.4,0-0.7,0.1-0.9,0.4
			c-0.2,0.3-0.3,0.6-0.3,1V122.7z"/>
		<path class="st3" d="M581.9,120.6c0-0.8,0.2-1.6,0.5-2.2c0.3-0.7,0.8-1.2,1.4-1.5s1.2-0.5,2-0.5c1.1,0,2.1,0.4,2.8,1.2
			c0.7,0.8,1.1,1.8,1.1,3.2v0.1c0,0.8-0.2,1.6-0.5,2.2s-0.8,1.2-1.3,1.5s-1.3,0.5-2,0.5c-1.1,0-2.1-0.4-2.8-1.2
			c-0.7-0.8-1.1-1.8-1.1-3.1V120.6z M583.4,120.8c0,0.9,0.2,1.7,0.6,2.2c0.4,0.6,1,0.8,1.7,0.8c0.7,0,1.3-0.3,1.7-0.9
			c0.4-0.6,0.6-1.4,0.6-2.4c0-0.9-0.2-1.7-0.7-2.2c-0.4-0.6-1-0.9-1.7-0.9c-0.7,0-1.3,0.3-1.7,0.8
			C583.6,118.9,583.4,119.7,583.4,120.8z"/>
		<path class="st3" d="M592.1,124.9v-7.3h-1.3v-1.1h1.3v-0.9c0-0.9,0.2-1.6,0.7-2.1c0.5-0.5,1.2-0.7,2-0.7c0.3,0,0.7,0,1,0.1
			l-0.1,1.2c-0.2,0-0.5-0.1-0.8-0.1c-0.5,0-0.8,0.1-1.1,0.4c-0.3,0.3-0.4,0.7-0.4,1.2v0.9h1.8v1.1h-1.8v7.3H592.1z"/>
		<path class="st3" d="M609.8,124.9h-1.5l-5.7-8.7v8.7h-1.5v-11.3h1.5l5.7,8.8v-8.8h1.5V124.9z"/>
		<path class="st3" d="M618.7,119.9h-4.7v5h-1.5v-11.3h7v1.2h-5.5v3.9h4.7V119.9z"/>
		<path class="st3" d="M629.2,114.8h-3.6v10.1h-1.5v-10.1h-3.6v-1.2h8.8V114.8z"/>
		<path class="st3" d="M634.7,122.6c0-0.4-0.1-0.7-0.4-0.9c-0.3-0.2-0.8-0.4-1.5-0.6c-0.7-0.2-1.3-0.3-1.7-0.6
			c-0.4-0.2-0.7-0.5-0.9-0.8c-0.2-0.3-0.3-0.7-0.3-1.1c0-0.7,0.3-1.3,0.9-1.7c0.6-0.5,1.3-0.7,2.2-0.7c1,0,1.7,0.2,2.3,0.7
			s0.9,1.1,0.9,1.9h-1.4c0-0.4-0.2-0.7-0.5-1c-0.3-0.3-0.8-0.4-1.3-0.4c-0.5,0-0.9,0.1-1.2,0.3c-0.3,0.2-0.4,0.5-0.4,0.9
			c0,0.3,0.1,0.6,0.4,0.8c0.3,0.2,0.8,0.3,1.5,0.5s1.3,0.4,1.7,0.6s0.8,0.5,1,0.8c0.2,0.3,0.3,0.7,0.3,1.1c0,0.8-0.3,1.4-0.9,1.8
			c-0.6,0.5-1.4,0.7-2.3,0.7c-0.7,0-1.3-0.1-1.8-0.4s-0.9-0.6-1.2-1c-0.3-0.4-0.4-0.9-0.4-1.4h1.4c0,0.5,0.2,0.9,0.6,1.1
			c0.4,0.3,0.8,0.4,1.4,0.4c0.5,0,1-0.1,1.3-0.3S634.7,123,634.7,122.6z"/>
		<path class="st3" d="M645.5,119.8c-1.3-0.4-2.2-0.8-2.8-1.4c-0.6-0.5-0.9-1.2-0.9-2c0-0.9,0.4-1.6,1.1-2.2
			c0.7-0.6,1.6-0.9,2.8-0.9c0.8,0,1.5,0.2,2.1,0.5c0.6,0.3,1.1,0.7,1.4,1.2c0.3,0.5,0.5,1.1,0.5,1.7h-1.5c0-0.7-0.2-1.2-0.7-1.6
			s-1-0.6-1.8-0.6c-0.7,0-1.3,0.2-1.7,0.5c-0.4,0.3-0.6,0.8-0.6,1.4c0,0.5,0.2,0.9,0.6,1.2c0.4,0.3,1.1,0.6,2,0.9s1.7,0.6,2.2,0.9
			c0.5,0.3,0.9,0.7,1.2,1.1c0.3,0.4,0.4,0.9,0.4,1.5c0,0.9-0.4,1.7-1.1,2.2c-0.7,0.6-1.7,0.8-2.9,0.8c-0.8,0-1.5-0.1-2.2-0.4
			c-0.7-0.3-1.2-0.7-1.6-1.2s-0.5-1.1-0.5-1.8h1.5c0,0.7,0.3,1.2,0.8,1.6c0.5,0.4,1.2,0.6,2,0.6c0.8,0,1.4-0.2,1.8-0.5
			c0.4-0.3,0.6-0.8,0.6-1.3c0-0.6-0.2-1-0.6-1.3C647.2,120.4,646.5,120.1,645.5,119.8z"/>
		<path class="st3" d="M656.5,124.9c-0.1-0.2-0.2-0.5-0.2-0.9c-0.7,0.7-1.5,1-2.4,1c-0.8,0-1.5-0.2-2-0.7c-0.5-0.5-0.8-1.1-0.8-1.8
			c0-0.9,0.3-1.6,1-2c0.7-0.5,1.6-0.7,2.8-0.7h1.4v-0.7c0-0.5-0.1-0.9-0.5-1.2c-0.3-0.3-0.7-0.4-1.3-0.4c-0.5,0-0.9,0.1-1.3,0.4
			c-0.3,0.3-0.5,0.6-0.5,0.9h-1.4c0-0.4,0.1-0.8,0.4-1.2c0.3-0.4,0.7-0.7,1.2-0.9s1.1-0.3,1.7-0.3c1,0,1.7,0.2,2.3,0.7
			c0.5,0.5,0.8,1.2,0.9,2v3.9c0,0.8,0.1,1.4,0.3,1.8v0.1H656.5z M654.2,123.8c0.5,0,0.9-0.1,1.3-0.3c0.4-0.2,0.7-0.5,0.9-0.9v-1.7
			h-1.1c-1.8,0-2.6,0.5-2.6,1.5c0,0.5,0.2,0.8,0.5,1.1C653.3,123.7,653.7,123.8,654.2,123.8z"/>
		<path class="st3" d="M661.6,124.9h-1.4v-11.9h1.4V124.9z"/>
		<path class="st3" d="M667.4,125c-1.1,0-2.1-0.4-2.8-1.1c-0.7-0.7-1.1-1.8-1.1-3v-0.3c0-0.8,0.2-1.6,0.5-2.2
			c0.3-0.7,0.8-1.2,1.3-1.5c0.6-0.4,1.2-0.6,1.9-0.6c1.1,0,1.9,0.4,2.5,1.1c0.6,0.7,0.9,1.8,0.9,3.1v0.6h-5.7c0,0.8,0.3,1.5,0.7,2
			c0.5,0.5,1.1,0.8,1.8,0.8c0.5,0,0.9-0.1,1.3-0.3c0.4-0.2,0.7-0.5,0.9-0.8l0.9,0.7C669.8,124.5,668.8,125,667.4,125z M667.2,117.5
			c-0.6,0-1.1,0.2-1.5,0.6c-0.4,0.4-0.6,1-0.7,1.8h4.2v-0.1c0-0.7-0.2-1.3-0.6-1.7C668.3,117.7,667.8,117.5,667.2,117.5z"/>
		<path class="st3" d="M677.2,122.6c0-0.4-0.1-0.7-0.4-0.9c-0.3-0.2-0.8-0.4-1.5-0.6c-0.7-0.2-1.3-0.3-1.7-0.6
			c-0.4-0.2-0.7-0.5-0.9-0.8c-0.2-0.3-0.3-0.7-0.3-1.1c0-0.7,0.3-1.3,0.9-1.7c0.6-0.5,1.3-0.7,2.2-0.7c1,0,1.7,0.2,2.3,0.7
			s0.9,1.1,0.9,1.9h-1.4c0-0.4-0.2-0.7-0.5-1c-0.3-0.3-0.8-0.4-1.3-0.4c-0.5,0-0.9,0.1-1.2,0.3c-0.3,0.2-0.4,0.5-0.4,0.9
			c0,0.3,0.1,0.6,0.4,0.8c0.3,0.2,0.8,0.3,1.5,0.5s1.3,0.4,1.7,0.6s0.8,0.5,1,0.8c0.2,0.3,0.3,0.7,0.3,1.1c0,0.8-0.3,1.4-0.9,1.8
			c-0.6,0.5-1.4,0.7-2.3,0.7c-0.7,0-1.3-0.1-1.8-0.4s-0.9-0.6-1.2-1c-0.3-0.4-0.4-0.9-0.4-1.4h1.4c0,0.5,0.2,0.9,0.6,1.1
			c0.4,0.3,0.8,0.4,1.4,0.4c0.5,0,1-0.1,1.3-0.3S677.2,123,677.2,122.6z"/>
	</g>
</g>
<g>
	<g>
		<path class="st3" d="M740.9,277l0.6-5.6h5.8v1.3h-4.6l-0.3,3.1c0.6-0.3,1.2-0.5,1.9-0.5c1,0,1.9,0.3,2.5,1
			c0.6,0.7,0.9,1.6,0.9,2.8c0,1.2-0.3,2.1-0.9,2.8c-0.6,0.7-1.5,1-2.6,1c-1,0-1.8-0.3-2.4-0.8c-0.6-0.6-1-1.3-1.1-2.3h1.4
			c0.1,0.6,0.3,1.1,0.7,1.5s0.9,0.5,1.5,0.5c0.7,0,1.2-0.2,1.6-0.7s0.6-1.1,0.6-1.9c0-0.8-0.2-1.4-0.6-1.8c-0.4-0.5-1-0.7-1.6-0.7
			c-0.6,0-1.1,0.1-1.5,0.4l-0.4,0.3L740.9,277z"/>
		<path class="st3" d="M756.2,277.9c0,1.7-0.3,2.9-0.9,3.8c-0.6,0.8-1.5,1.2-2.7,1.2c-1.2,0-2.1-0.4-2.7-1.2c-0.6-0.8-0.9-2-0.9-3.6
			v-1.9c0-1.7,0.3-2.9,0.9-3.7c0.6-0.8,1.5-1.2,2.7-1.2c1.2,0,2.1,0.4,2.7,1.2s0.9,2,0.9,3.6V277.9z M754.8,275.9
			c0-1.2-0.2-2.1-0.5-2.7c-0.3-0.6-0.9-0.8-1.6-0.8c-0.7,0-1.3,0.3-1.6,0.8c-0.3,0.6-0.5,1.4-0.5,2.6v2.3c0,1.2,0.2,2.1,0.5,2.7
			s0.9,0.9,1.6,0.9c0.7,0,1.2-0.3,1.6-0.8c0.3-0.5,0.5-1.4,0.5-2.6V275.9z"/>
		<path class="st3" d="M758,273.6c0-0.7,0.2-1.2,0.6-1.7c0.4-0.4,1-0.7,1.7-0.7c0.7,0,1.2,0.2,1.7,0.7c0.4,0.4,0.6,1,0.6,1.7v0.6
			c0,0.7-0.2,1.2-0.6,1.7s-1,0.6-1.7,0.6c-0.7,0-1.2-0.2-1.7-0.6c-0.4-0.4-0.7-1-0.7-1.7V273.6z M759,274.2c0,0.4,0.1,0.7,0.3,1
			c0.2,0.3,0.5,0.4,0.9,0.4c0.4,0,0.7-0.1,0.9-0.4c0.2-0.3,0.3-0.6,0.3-1v-0.6c0-0.4-0.1-0.7-0.3-1c-0.2-0.3-0.5-0.4-0.9-0.4
			c-0.4,0-0.7,0.1-0.9,0.4c-0.2,0.3-0.3,0.6-0.3,1V274.2z M760.6,281.8l-0.8-0.5l5.5-8.8l0.8,0.5L760.6,281.8z M763.5,279.9
			c0-0.7,0.2-1.2,0.6-1.7s1-0.7,1.7-0.7s1.2,0.2,1.7,0.7c0.4,0.4,0.7,1,0.7,1.7v0.6c0,0.7-0.2,1.2-0.6,1.7c-0.4,0.4-1,0.7-1.7,0.7
			s-1.2-0.2-1.7-0.6s-0.7-1-0.7-1.7V279.9z M764.5,280.5c0,0.4,0.1,0.7,0.3,1c0.2,0.3,0.5,0.4,0.9,0.4c0.4,0,0.7-0.1,0.9-0.4
			c0.2-0.3,0.3-0.6,0.3-1v-0.6c0-0.4-0.1-0.7-0.3-1c-0.2-0.3-0.5-0.4-0.9-0.4c-0.4,0-0.7,0.1-0.9,0.4c-0.2,0.3-0.3,0.6-0.3,1V280.5z
			"/>
		<path class="st3" d="M773.5,278.4c0-0.8,0.2-1.6,0.5-2.2c0.3-0.7,0.8-1.2,1.4-1.5c0.6-0.4,1.2-0.5,2-0.5c1.1,0,2.1,0.4,2.8,1.2
			c0.7,0.8,1.1,1.8,1.1,3.2v0.1c0,0.8-0.2,1.6-0.5,2.2s-0.8,1.2-1.3,1.5s-1.3,0.5-2,0.5c-1.1,0-2.1-0.4-2.8-1.2
			c-0.7-0.8-1.1-1.8-1.1-3.1V278.4z M774.9,278.6c0,0.9,0.2,1.7,0.6,2.2c0.4,0.6,1,0.8,1.7,0.8c0.7,0,1.3-0.3,1.7-0.9
			c0.4-0.6,0.6-1.4,0.6-2.4c0-0.9-0.2-1.7-0.7-2.2c-0.4-0.6-1-0.9-1.7-0.9c-0.7,0-1.3,0.3-1.7,0.8
			C775.1,276.7,774.9,277.5,774.9,278.6z"/>
		<path class="st3" d="M783.6,282.7v-7.3h-1.3v-1.1h1.3v-0.9c0-0.9,0.2-1.6,0.7-2.1c0.5-0.5,1.2-0.7,2-0.7c0.3,0,0.7,0,1,0.1
			l-0.1,1.2c-0.2,0-0.5-0.1-0.8-0.1c-0.5,0-0.8,0.1-1.1,0.4c-0.3,0.3-0.4,0.7-0.4,1.2v0.9h1.8v1.1h-1.8v7.3H783.6z"/>
		<path class="st3" d="M801.3,282.7h-1.5l-5.7-8.7v8.7h-1.5v-11.3h1.5l5.7,8.8v-8.8h1.5V282.7z"/>
		<path class="st3" d="M810.2,277.7h-4.7v5H804v-11.3h7v1.2h-5.5v3.9h4.7V277.7z"/>
		<path class="st3" d="M820.7,272.6h-3.6v10.1h-1.5v-10.1H812v-1.2h8.8V272.6z"/>
		<path class="st3" d="M826.2,280.5c0-0.4-0.1-0.7-0.4-0.9s-0.8-0.4-1.5-0.6c-0.7-0.2-1.3-0.3-1.7-0.6c-0.4-0.2-0.7-0.5-0.9-0.8
			c-0.2-0.3-0.3-0.7-0.3-1.1c0-0.7,0.3-1.3,0.9-1.7c0.6-0.5,1.3-0.7,2.2-0.7c1,0,1.7,0.2,2.3,0.7c0.6,0.5,0.9,1.1,0.9,1.9h-1.4
			c0-0.4-0.2-0.7-0.5-1c-0.3-0.3-0.8-0.4-1.3-0.4c-0.5,0-0.9,0.1-1.2,0.3c-0.3,0.2-0.4,0.5-0.4,0.9c0,0.3,0.1,0.6,0.4,0.8
			c0.3,0.2,0.8,0.3,1.5,0.5s1.3,0.4,1.7,0.6s0.8,0.5,1,0.8c0.2,0.3,0.3,0.7,0.3,1.1c0,0.8-0.3,1.4-0.9,1.8c-0.6,0.5-1.4,0.7-2.3,0.7
			c-0.7,0-1.3-0.1-1.8-0.4c-0.5-0.2-0.9-0.6-1.2-1c-0.3-0.4-0.4-0.9-0.4-1.4h1.4c0,0.5,0.2,0.9,0.6,1.1c0.4,0.3,0.8,0.4,1.4,0.4
			c0.5,0,1-0.1,1.3-0.3S826.2,280.8,826.2,280.5z"/>
		<path class="st3" d="M837,277.7c-1.3-0.4-2.2-0.8-2.8-1.4c-0.6-0.5-0.9-1.2-0.9-2c0-0.9,0.4-1.6,1.1-2.2c0.7-0.6,1.6-0.9,2.8-0.9
			c0.8,0,1.5,0.2,2.1,0.5c0.6,0.3,1.1,0.7,1.4,1.2c0.3,0.5,0.5,1.1,0.5,1.7h-1.5c0-0.7-0.2-1.2-0.7-1.6s-1-0.6-1.8-0.6
			c-0.7,0-1.3,0.2-1.7,0.5c-0.4,0.3-0.6,0.8-0.6,1.4c0,0.5,0.2,0.9,0.6,1.2c0.4,0.3,1.1,0.6,2,0.9s1.7,0.6,2.2,0.9
			c0.5,0.3,0.9,0.7,1.2,1.1c0.3,0.4,0.4,0.9,0.4,1.5c0,0.9-0.4,1.7-1.1,2.2s-1.7,0.8-2.9,0.8c-0.8,0-1.5-0.1-2.2-0.4
			c-0.7-0.3-1.2-0.7-1.6-1.2s-0.5-1.1-0.5-1.8h1.5c0,0.7,0.3,1.2,0.8,1.6c0.5,0.4,1.2,0.6,2,0.6c0.8,0,1.4-0.2,1.8-0.5
			s0.6-0.8,0.6-1.3c0-0.6-0.2-1-0.6-1.3C838.7,278.2,838,277.9,837,277.7z"/>
		<path class="st3" d="M848.1,282.7c-0.1-0.2-0.2-0.5-0.2-0.9c-0.7,0.7-1.5,1-2.4,1c-0.8,0-1.5-0.2-2-0.7c-0.5-0.5-0.8-1.1-0.8-1.8
			c0-0.9,0.3-1.6,1-2s1.6-0.7,2.8-0.7h1.4v-0.7c0-0.5-0.2-0.9-0.5-1.2c-0.3-0.3-0.7-0.4-1.3-0.4c-0.5,0-0.9,0.1-1.3,0.4
			c-0.3,0.3-0.5,0.6-0.5,0.9h-1.4c0-0.4,0.1-0.8,0.4-1.2c0.3-0.4,0.7-0.7,1.2-0.9s1.1-0.3,1.7-0.3c1,0,1.7,0.2,2.3,0.7
			c0.5,0.5,0.8,1.2,0.9,2v3.9c0,0.8,0.1,1.4,0.3,1.8v0.1H848.1z M845.7,281.6c0.5,0,0.9-0.1,1.3-0.3c0.4-0.2,0.7-0.5,0.9-0.9v-1.7
			h-1.1c-1.8,0-2.6,0.5-2.6,1.5c0,0.5,0.2,0.8,0.5,1.1C844.8,281.5,845.2,281.6,845.7,281.6z"/>
		<path class="st3" d="M853.1,282.7h-1.4v-11.9h1.4V282.7z"/>
		<path class="st3" d="M858.9,282.9c-1.1,0-2.1-0.4-2.8-1.1c-0.7-0.7-1.1-1.8-1.1-3v-0.3c0-0.8,0.2-1.6,0.5-2.2
			c0.3-0.7,0.8-1.2,1.3-1.5c0.6-0.4,1.2-0.6,1.9-0.6c1.1,0,1.9,0.4,2.5,1.1c0.6,0.7,0.9,1.8,0.9,3.1v0.6h-5.7c0,0.8,0.3,1.5,0.7,2
			s1.1,0.8,1.8,0.8c0.5,0,0.9-0.1,1.3-0.3c0.4-0.2,0.7-0.5,0.9-0.8l0.9,0.7C861.3,282.3,860.3,282.9,858.9,282.9z M858.7,275.3
			c-0.6,0-1.1,0.2-1.5,0.6c-0.4,0.4-0.6,1-0.7,1.8h4.2v-0.1c0-0.7-0.2-1.3-0.6-1.7C859.8,275.5,859.3,275.3,858.7,275.3z"/>
		<path class="st3" d="M868.7,280.5c0-0.4-0.1-0.7-0.4-0.9s-0.8-0.4-1.5-0.6c-0.7-0.2-1.3-0.3-1.7-0.6c-0.4-0.2-0.7-0.5-0.9-0.8
			c-0.2-0.3-0.3-0.7-0.3-1.1c0-0.7,0.3-1.3,0.9-1.7c0.6-0.5,1.3-0.7,2.2-0.7c1,0,1.7,0.2,2.3,0.7c0.6,0.5,0.9,1.1,0.9,1.9h-1.4
			c0-0.4-0.2-0.7-0.5-1c-0.3-0.3-0.8-0.4-1.3-0.4c-0.5,0-0.9,0.1-1.2,0.3c-0.3,0.2-0.4,0.5-0.4,0.9c0,0.3,0.1,0.6,0.4,0.8
			c0.3,0.2,0.8,0.3,1.5,0.5s1.3,0.4,1.7,0.6s0.8,0.5,1,0.8c0.2,0.3,0.3,0.7,0.3,1.1c0,0.8-0.3,1.4-0.9,1.8c-0.6,0.5-1.4,0.7-2.3,0.7
			c-0.7,0-1.3-0.1-1.8-0.4c-0.5-0.2-0.9-0.6-1.2-1c-0.3-0.4-0.4-0.9-0.4-1.4h1.4c0,0.5,0.2,0.9,0.6,1.1c0.4,0.3,0.8,0.4,1.4,0.4
			c0.5,0,1-0.1,1.3-0.3S868.7,280.8,868.7,280.5z"/>
	</g>
</g>
<g>
	<g>
		<path class="st3" d="M962.9,433.3h-2.7v4.6h-1.5v-11.3h3.7c1.3,0,2.3,0.3,2.9,0.9s1,1.4,1,2.5c0,0.7-0.2,1.3-0.6,1.8
			s-0.9,0.9-1.6,1.2l2.7,4.8v0.1h-1.6L962.9,433.3z M960.2,432.1h2.3c0.7,0,1.3-0.2,1.8-0.6c0.4-0.4,0.7-0.9,0.7-1.5
			c0-0.7-0.2-1.2-0.6-1.6c-0.4-0.4-1-0.6-1.8-0.6h-2.3V432.1z"/>
		<path class="st3" d="M971.8,438.1c-1.1,0-2.1-0.4-2.8-1.1c-0.7-0.7-1.1-1.8-1.1-3v-0.3c0-0.8,0.2-1.6,0.5-2.2
			c0.3-0.7,0.8-1.2,1.3-1.5c0.6-0.4,1.2-0.6,1.9-0.6c1.1,0,1.9,0.4,2.5,1.1c0.6,0.7,0.9,1.8,0.9,3.1v0.6h-5.7c0,0.8,0.3,1.5,0.7,2
			c0.5,0.5,1.1,0.8,1.8,0.8c0.5,0,0.9-0.1,1.3-0.3c0.4-0.2,0.7-0.5,0.9-0.8l0.9,0.7C974.3,437.5,973.2,438.1,971.8,438.1z
			 M971.6,430.5c-0.6,0-1.1,0.2-1.5,0.6c-0.4,0.4-0.6,1-0.7,1.8h4.2v-0.1c0-0.7-0.2-1.3-0.6-1.7
			C972.7,430.7,972.2,430.5,971.6,430.5z"/>
		<path class="st3" d="M979.4,436l2.1-6.5h1.5l-3,8.4h-1.1l-3-8.4h1.5L979.4,436z"/>
		<path class="st3" d="M987.8,438.1c-1.1,0-2.1-0.4-2.8-1.1c-0.7-0.7-1.1-1.8-1.1-3v-0.3c0-0.8,0.2-1.6,0.5-2.2
			c0.3-0.7,0.8-1.2,1.3-1.5c0.6-0.4,1.2-0.6,1.9-0.6c1.1,0,1.9,0.4,2.5,1.1c0.6,0.7,0.9,1.8,0.9,3.1v0.6h-5.7c0,0.8,0.3,1.5,0.7,2
			c0.5,0.5,1.1,0.8,1.8,0.8c0.5,0,0.9-0.1,1.3-0.3c0.4-0.2,0.7-0.5,0.9-0.8l0.9,0.7C990.2,437.5,989.2,438.1,987.8,438.1z
			 M987.6,430.5c-0.6,0-1.1,0.2-1.5,0.6c-0.4,0.4-0.6,1-0.7,1.8h4.2v-0.1c0-0.7-0.2-1.3-0.6-1.7
			C988.7,430.7,988.2,430.5,987.6,430.5z"/>
		<path class="st3" d="M994.1,429.5l0,1.1c0.6-0.8,1.5-1.2,2.5-1.2c1.8,0,2.7,1,2.7,3v5.6h-1.4v-5.6c0-0.6-0.1-1.1-0.4-1.3
			c-0.3-0.3-0.7-0.4-1.3-0.4c-0.5,0-0.9,0.1-1.2,0.4c-0.4,0.2-0.6,0.6-0.8,1v6h-1.4v-8.4H994.1z"/>
		<path class="st3" d="M1006.7,437.1c-0.6,0.7-1.4,1-2.5,1c-0.9,0-1.6-0.3-2-0.8c-0.5-0.5-0.7-1.3-0.7-2.3v-5.5h1.4v5.4
			c0,1.3,0.5,1.9,1.6,1.9c1.1,0,1.8-0.4,2.2-1.2v-6.1h1.4v8.4h-1.4L1006.7,437.1z"/>
		<path class="st3" d="M1013.8,438.1c-1.1,0-2.1-0.4-2.8-1.1c-0.7-0.7-1.1-1.8-1.1-3v-0.3c0-0.8,0.2-1.6,0.5-2.2
			c0.3-0.7,0.8-1.2,1.3-1.5c0.6-0.4,1.2-0.6,1.9-0.6c1.1,0,1.9,0.4,2.5,1.1c0.6,0.7,0.9,1.8,0.9,3.1v0.6h-5.7c0,0.8,0.3,1.5,0.7,2
			c0.5,0.5,1.1,0.8,1.8,0.8c0.5,0,0.9-0.1,1.3-0.3c0.4-0.2,0.7-0.5,0.9-0.8l0.9,0.7C1016.2,437.5,1015.2,438.1,1013.8,438.1z
			 M1013.6,430.5c-0.6,0-1.1,0.2-1.5,0.6c-0.4,0.4-0.6,1-0.7,1.8h4.2v-0.1c0-0.7-0.2-1.3-0.6-1.7
			C1014.7,430.7,1014.2,430.5,1013.6,430.5z"/>
	</g>
</g>
<rect x="784.9" y="246.6" transform="matrix(-1.836970e-16 1 -1 -1.836970e-16 1051.5068 -555.8064)" class="st9" width="37.5" height="2.6"/>
<rect x="791.2" y="299.5" transform="matrix(-1.836970e-16 1 -1 -1.836970e-16 1104.447 -502.8661)" class="st9" width="25" height="2.6"/>
<g>
	<g>
		<path class="st20" d="M588.8,711.8c0,3.1,2.5,5.6,5.6,5.6c3.1,0,5.6-2.5,5.6-5.6c0-3.1-2.5-5.6-5.6-5.6
			C591.3,706.2,588.8,708.7,588.8,711.8z"/>
		<path class="st20" d="M871.5,711.8c0,3.1,2.5,5.6,5.6,5.6c3.1,0,5.6-2.5,5.6-5.6c0-3.1-2.5-5.6-5.6-5.6
			C874,706.2,871.5,708.7,871.5,711.8z"/>
	</g>
	<g>
		<path class="st16" d="M871.7,700.7c-1.9-7.3-5.8-14.1-11.2-19.4c-8.2-8.2-19-12.7-30.5-12.7H641.6c-11.5,0-22.3,4.5-30.5,12.7
			c-5.4,5.4-9.3,12.1-11.2,19.4l-7.8-2.1c2.3-8.7,6.9-16.7,13.3-23.1c9.7-9.7,22.5-15,36.2-15h188.3c13.7,0,26.5,5.3,36.2,15
			c6.4,6.4,11,14.4,13.3,23.1L871.7,700.7z"/>
	</g>
	<g>
		<path class="st21" d="M829.9,759.6H641.6c-12.7,0-24.8-5-33.8-14c-6-6-10.3-13.4-12.4-21.5l1.2-0.3c2.1,7.9,6.3,15.2,12.1,21
			c8.8,8.8,20.5,13.7,32.9,13.7h188.3c12.4,0,24.1-4.9,32.9-13.7c5.8-5.8,10-13.1,12.1-21l1.2,0.3c-2.2,8.1-6.4,15.6-12.4,21.5
			C854.7,754.6,842.7,759.6,829.9,759.6z"/>
	</g>
	<g>
		<g class="st22">
			
				<image style="overflow:visible;" width="1098" height="314" xlink:href="3D3F577F.png"  transform="matrix(0.24 0 0 0.24 605.6257 675.7663)">
			</image>
		</g>
		<path class="st16" d="M829.9,676.7H641.6c-19.4,0-35.1,15.7-35.1,35.1v0c0,19.4,15.7,35.1,35.1,35.1h188.3
			c19.4,0,35.1-15.7,35.1-35.1v0C865,692.4,849.3,676.7,829.9,676.7z"/>
		<linearGradient id="SVGID_7_" gradientUnits="userSpaceOnUse" x1="606.487" y1="711.8116" x2="865.0361" y2="711.8116">
			<stop  offset="0" style="stop-color:#FFFFFF"/>
			<stop  offset="1" style="stop-color:#000000"/>
		</linearGradient>
		<path class="st23" d="M829.9,676.7H641.6c-19.4,0-35.1,15.7-35.1,35.1v0c0,19.4,15.7,35.1,35.1,35.1h188.3
			c19.4,0,35.1-15.7,35.1-35.1v0C865,692.4,849.3,676.7,829.9,676.7z M829.9,745.7H641.6c-18.7,0-33.9-15.2-33.9-33.9
			c0-18.7,15.2-33.9,33.9-33.9h188.3c18.7,0,33.9,15.2,33.9,33.9C863.8,730.5,848.6,745.7,829.9,745.7z"/>
	</g>
</g>
<g>
	<g>
		<path class="st20" d="M1247.2,711.8c0,3.1,2.5,5.6,5.6,5.6c3.1,0,5.6-2.5,5.6-5.6c0-3.1-2.5-5.6-5.6-5.6
			C1249.7,706.2,1247.2,708.7,1247.2,711.8z"/>
		<path class="st20" d="M1530,711.8c0,3.1,2.5,5.6,5.6,5.6c3.1,0,5.6-2.5,5.6-5.6c0-3.1-2.5-5.6-5.6-5.6
			C1532.5,706.2,1530,708.7,1530,711.8z"/>
	</g>
	<g>
		<path class="st16" d="M1530.1,700.7c-1.9-7.3-5.8-14.1-11.2-19.4c-8.2-8.2-19-12.7-30.5-12.7H1300c-11.5,0-22.3,4.5-30.5,12.7
			c-5.4,5.4-9.3,12.1-11.2,19.4l-7.8-2.1c2.3-8.7,6.9-16.7,13.3-23.1c9.7-9.7,22.5-15,36.2-15h188.3c13.7,0,26.5,5.3,36.2,15
			c6.4,6.4,11,14.4,13.3,23.1L1530.1,700.7z"/>
	</g>
	<g>
		<path class="st21" d="M1488.3,759.6H1300c-12.7,0-24.8-5-33.8-14c-6-6-10.3-13.4-12.4-21.5l1.2-0.3c2.1,7.9,6.3,15.2,12.1,21
			c8.8,8.8,20.5,13.7,32.9,13.7h188.3c12.4,0,24.1-4.9,32.9-13.7c5.8-5.8,10-13.1,12.1-21l1.2,0.3c-2.2,8.1-6.4,15.6-12.4,21.5
			C1513.1,754.6,1501.1,759.6,1488.3,759.6z"/>
	</g>
	<g>
		<g class="st22">
			
				<image style="overflow:visible;" width="1099" height="314" xlink:href="3D3F5763.png"  transform="matrix(0.24 0 0 0.24 1263.9457 675.7663)">
			</image>
		</g>
		<path class="st16" d="M1488.3,676.7H1300c-19.4,0-35.1,15.7-35.1,35.1v0c0,19.4,15.7,35.1,35.1,35.1h188.3
			c19.4,0,35.1-15.7,35.1-35.1v0C1523.4,692.4,1507.7,676.7,1488.3,676.7z"/>
		<linearGradient id="SVGID_8_" gradientUnits="userSpaceOnUse" x1="1264.9008" y1="711.8116" x2="1523.4498" y2="711.8116">
			<stop  offset="0" style="stop-color:#FFFFFF"/>
			<stop  offset="1" style="stop-color:#000000"/>
		</linearGradient>
		<path class="st24" d="M1488.3,676.7H1300c-19.4,0-35.1,15.7-35.1,35.1v0c0,19.4,15.7,35.1,35.1,35.1h188.3
			c19.4,0,35.1-15.7,35.1-35.1v0C1523.4,692.4,1507.7,676.7,1488.3,676.7z M1488.3,745.7H1300c-18.7,0-33.9-15.2-33.9-33.9
			c0-18.7,15.2-33.9,33.9-33.9h188.3c18.7,0,33.9,15.2,33.9,33.9C1522.2,730.5,1507,745.7,1488.3,745.7z"/>
	</g>
</g>
<g>
	<g>
		<path class="st20" d="M916.9,711.8c0,3.1,2.5,5.6,5.6,5.6c3.1,0,5.6-2.5,5.6-5.6c0-3.1-2.5-5.6-5.6-5.6
			C919.4,706.2,916.9,708.7,916.9,711.8z"/>
		<path class="st20" d="M1199.6,711.8c0,3.1,2.5,5.6,5.6,5.6s5.6-2.5,5.6-5.6c0-3.1-2.5-5.6-5.6-5.6S1199.6,708.7,1199.6,711.8z"/>
	</g>
	<g>
		<path class="st16" d="M1199.7,700.7c-1.9-7.3-5.8-14.1-11.2-19.4c-8.2-8.2-19-12.7-30.5-12.7H969.7c-11.5,0-22.3,4.5-30.5,12.7
			c-5.4,5.4-9.3,12.1-11.2,19.4l-7.8-2.1c2.3-8.7,6.9-16.7,13.3-23.1c9.7-9.7,22.5-15,36.2-15H1158c13.7,0,26.5,5.3,36.2,15
			c6.4,6.4,11,14.4,13.3,23.1L1199.7,700.7z"/>
	</g>
	<g>
		<path class="st21" d="M1158,759.6H969.7c-12.7,0-24.8-5-33.8-14c-6-6-10.3-13.4-12.4-21.5l1.2-0.3c2.1,7.9,6.3,15.2,12.1,21
			c8.8,8.8,20.5,13.7,32.9,13.7H1158c12.4,0,24.1-4.9,32.9-13.7c5.8-5.8,10-13.1,12.1-21l1.2,0.3c-2.2,8.1-6.4,15.6-12.4,21.5
			C1182.8,754.6,1170.8,759.6,1158,759.6z"/>
	</g>
	<g>
		<g class="st22">
			
				<image style="overflow:visible;" width="1098" height="314" xlink:href="3D3F5764.png"  transform="matrix(0.24 0 0 0.24 933.7057 675.7663)">
			</image>
		</g>
		<path class="st16" d="M1158,676.7H969.7c-19.4,0-35.1,15.7-35.1,35.1v0c0,19.4,15.7,35.1,35.1,35.1H1158
			c19.4,0,35.1-15.7,35.1-35.1v0C1193.1,692.4,1177.4,676.7,1158,676.7z"/>
		<linearGradient id="SVGID_9_" gradientUnits="userSpaceOnUse" x1="934.5624" y1="711.8116" x2="1193.1115" y2="711.8116">
			<stop  offset="0" style="stop-color:#FFFFFF"/>
			<stop  offset="1" style="stop-color:#000000"/>
		</linearGradient>
		<path class="st25" d="M1158,676.7H969.7c-19.4,0-35.1,15.7-35.1,35.1v0c0,19.4,15.7,35.1,35.1,35.1H1158
			c19.4,0,35.1-15.7,35.1-35.1v0C1193.1,692.4,1177.4,676.7,1158,676.7z M1158,745.7H969.7c-18.7,0-33.9-15.2-33.9-33.9
			c0-18.7,15.2-33.9,33.9-33.9H1158c18.7,0,33.9,15.2,33.9,33.9C1191.9,730.5,1176.7,745.7,1158,745.7z"/>
	</g>
</g>
<g>
	<path class="st17" d="M687.2,699.4c0,1.5-0.2,2.7-0.7,3.8c-0.5,1.1-1.2,1.9-2.1,2.5s-2,0.9-3.2,0.9c-1.2,0-2.2-0.3-3.1-0.9
		c-0.9-0.6-1.6-1.4-2.1-2.5c-0.5-1.1-0.8-2.3-0.8-3.7v-1.1c0-1.4,0.2-2.7,0.7-3.8c0.5-1.1,1.2-1.9,2.1-2.5c0.9-0.6,2-0.9,3.1-0.9
		c1.2,0,2.2,0.3,3.2,0.9c0.9,0.6,1.6,1.4,2.1,2.5c0.5,1.1,0.7,2.4,0.7,3.8V699.4z M685.2,698.4c0-1.8-0.4-3.1-1.1-4.1
		c-0.7-0.9-1.7-1.4-3-1.4c-1.2,0-2.2,0.5-2.9,1.4c-0.7,0.9-1.1,2.3-1.1,3.9v1.1c0,1.7,0.4,3.1,1.1,4c0.7,1,1.7,1.5,3,1.5
		c1.3,0,2.3-0.5,3-1.4c0.7-0.9,1.1-2.3,1.1-4V698.4z"/>
	<path class="st17" d="M699.2,700.9c0,1.7-0.4,3-1.2,4.1c-0.8,1-1.8,1.5-3.1,1.5c-1.3,0-2.4-0.4-3.2-1.3v5.3h-1.9v-15.4h1.7l0.1,1.2
		c0.8-1,1.8-1.4,3.2-1.4c1.3,0,2.4,0.5,3.2,1.5c0.8,1,1.2,2.4,1.2,4.2V700.9z M697.3,700.7c0-1.3-0.3-2.2-0.8-3
		c-0.5-0.7-1.3-1.1-2.2-1.1c-1.1,0-2,0.5-2.6,1.5v5.3c0.6,1,1.4,1.5,2.6,1.5c0.9,0,1.6-0.4,2.2-1.1
		C697.1,703.2,697.3,702.2,697.3,700.7z"/>
	<path class="st17" d="M706.2,706.6c-1.5,0-2.7-0.5-3.7-1.5c-0.9-1-1.4-2.3-1.4-4v-0.3c0-1.1,0.2-2.1,0.6-2.9c0.4-0.9,1-1.5,1.8-2
		c0.8-0.5,1.6-0.7,2.5-0.7c1.4,0,2.6,0.5,3.4,1.4c0.8,1,1.2,2.3,1.2,4.1v0.8H703c0,1.1,0.3,2,1,2.7c0.6,0.7,1.4,1,2.3,1
		c0.7,0,1.2-0.1,1.7-0.4c0.5-0.3,0.9-0.6,1.2-1.1l1.2,0.9C709.5,705.9,708.1,706.6,706.2,706.6z M706,696.6c-0.8,0-1.4,0.3-1.9,0.8
		c-0.5,0.6-0.8,1.3-1,2.3h5.6v-0.1c-0.1-1-0.3-1.7-0.8-2.2C707.4,696.9,706.8,696.6,706,696.6z"/>
	<path class="st17" d="M718.1,697c-0.3,0-0.6-0.1-0.9-0.1c-1.2,0-2.1,0.5-2.5,1.6v7.9h-1.9v-11.1h1.8l0,1.3c0.6-1,1.5-1.5,2.6-1.5
		c0.4,0,0.6,0,0.8,0.1V697z"/>
	<path class="st17" d="M726.3,706.4c-0.1-0.2-0.2-0.6-0.3-1.2c-0.9,0.9-1.9,1.4-3.2,1.4c-1.1,0-2-0.3-2.7-0.9
		c-0.7-0.6-1.1-1.4-1.1-2.4c0-1.2,0.4-2.1,1.3-2.7c0.9-0.6,2.1-1,3.7-1h1.8v-0.9c0-0.7-0.2-1.2-0.6-1.6c-0.4-0.4-1-0.6-1.8-0.6
		c-0.7,0-1.2,0.2-1.7,0.5c-0.5,0.3-0.7,0.8-0.7,1.2h-1.9c0-0.6,0.2-1.1,0.6-1.6c0.4-0.5,0.9-0.9,1.6-1.2c0.7-0.3,1.4-0.5,2.2-0.5
		c1.3,0,2.3,0.3,3,1c0.7,0.6,1.1,1.5,1.1,2.6v5.1c0,1,0.1,1.8,0.4,2.4v0.2H726.3z M723.2,704.9c0.6,0,1.2-0.2,1.7-0.5
		s0.9-0.7,1.2-1.2V701h-1.5c-2.3,0-3.5,0.7-3.5,2c0,0.6,0.2,1.1,0.6,1.4S722.5,704.9,723.2,704.9z"/>
	<path class="st17" d="M733.5,692.6v2.7h2.1v1.5h-2.1v6.9c0,0.4,0.1,0.8,0.3,1s0.5,0.3,0.9,0.3c0.2,0,0.5,0,0.9-0.1v1.5
		c-0.5,0.1-1,0.2-1.5,0.2c-0.8,0-1.5-0.3-1.9-0.8c-0.4-0.5-0.6-1.2-0.6-2.2v-6.9h-2v-1.5h2v-2.7H733.5z"/>
	<path class="st17" d="M737.7,692.3c0-0.3,0.1-0.6,0.3-0.8c0.2-0.2,0.5-0.3,0.8-0.3s0.6,0.1,0.8,0.3s0.3,0.5,0.3,0.8
		s-0.1,0.6-0.3,0.8s-0.5,0.3-0.8,0.3s-0.6-0.1-0.8-0.3C737.8,692.9,737.7,692.6,737.7,692.3z M739.8,706.4h-1.9v-11.1h1.9V706.4z"/>
	<path class="st17" d="M742.3,700.7c0-1.1,0.2-2.1,0.6-2.9c0.4-0.9,1-1.5,1.8-2c0.8-0.5,1.6-0.7,2.6-0.7c1.5,0,2.7,0.5,3.7,1.6
		c0.9,1,1.4,2.4,1.4,4.2v0.1c0,1.1-0.2,2-0.6,2.9c-0.4,0.9-1,1.5-1.8,2c-0.8,0.5-1.7,0.7-2.7,0.7c-1.5,0-2.7-0.5-3.7-1.6
		c-0.9-1-1.4-2.4-1.4-4.2V700.7z M744.2,700.9c0,1.2,0.3,2.2,0.9,3c0.6,0.7,1.3,1.1,2.3,1.1c1,0,1.7-0.4,2.3-1.1
		c0.6-0.8,0.9-1.8,0.9-3.2c0-1.2-0.3-2.2-0.9-3c-0.6-0.8-1.3-1.1-2.3-1.1c-0.9,0-1.7,0.4-2.3,1.1S744.2,699.6,744.2,700.9z"/>
	<path class="st17" d="M756.6,695.3l0.1,1.4c0.8-1.1,2-1.6,3.3-1.6c2.3,0,3.5,1.3,3.5,4v7.3h-1.9V699c0-0.8-0.2-1.4-0.5-1.8
		c-0.4-0.4-0.9-0.6-1.7-0.6c-0.6,0-1.2,0.2-1.6,0.5c-0.5,0.3-0.8,0.8-1.1,1.3v7.9h-1.9v-11.1H756.6z"/>
	<path class="st17" d="M771.2,702.4c0-0.7,0.2-1.4,0.6-2c0.4-0.6,1.2-1.3,2.3-2.1c-0.7-0.8-1.1-1.5-1.3-1.9c-0.2-0.5-0.3-1-0.3-1.5
		c0-1.1,0.3-2,1-2.7s1.6-1,2.7-1c1,0,1.9,0.3,2.5,0.9c0.7,0.6,1,1.4,1,2.3c0,0.6-0.2,1.2-0.5,1.7c-0.3,0.5-0.8,1-1.6,1.6l-1.1,0.8
		l3.3,4c0.5-0.9,0.7-1.9,0.7-3h1.7c0,1.7-0.4,3.2-1.3,4.3l2.1,2.6h-2.3l-1-1.2c-0.5,0.5-1.1,0.8-1.8,1c-0.7,0.2-1.4,0.4-2.1,0.4
		c-1.5,0-2.6-0.4-3.5-1.2S771.2,703.6,771.2,702.4z M776,705c1,0,1.9-0.4,2.8-1.1l-3.6-4.4l-0.3,0.2c-1.1,0.8-1.7,1.7-1.7,2.6
		c0,0.8,0.3,1.5,0.8,1.9C774.4,704.8,775.1,705,776,705z M774.3,694.8c0,0.7,0.4,1.5,1.2,2.5l1.2-0.9c0.5-0.3,0.8-0.6,1-0.9
		c0.2-0.3,0.3-0.7,0.3-1.1c0-0.5-0.2-0.8-0.5-1.1c-0.3-0.3-0.8-0.5-1.3-0.5c-0.6,0-1,0.2-1.3,0.6
		C774.5,693.7,774.3,694.2,774.3,694.8z"/>
	<path class="st17" d="M668.9,731.6v-14.9h4.2c1.3,0,2.4,0.3,3.4,0.9s1.8,1.4,2.3,2.5c0.5,1.1,0.8,2.3,0.8,3.7v1
		c0,1.4-0.3,2.6-0.8,3.7c-0.5,1.1-1.3,1.9-2.3,2.4c-1,0.6-2.2,0.9-3.5,0.9H668.9z M670.9,718.3V730h2.1c1.5,0,2.7-0.5,3.5-1.4
		c0.8-0.9,1.3-2.3,1.3-4v-0.9c0-1.7-0.4-3-1.2-4c-0.8-0.9-1.9-1.4-3.4-1.4H670.9z"/>
	<path class="st17" d="M687,731.8c-1.5,0-2.7-0.5-3.7-1.5c-0.9-1-1.4-2.3-1.4-4V726c0-1.1,0.2-2.1,0.6-2.9c0.4-0.9,1-1.5,1.8-2
		c0.8-0.5,1.6-0.7,2.5-0.7c1.4,0,2.6,0.5,3.4,1.4c0.8,1,1.2,2.3,1.2,4.1v0.8h-7.5c0,1.1,0.3,2,1,2.7c0.6,0.7,1.4,1,2.3,1
		c0.7,0,1.2-0.1,1.7-0.4c0.5-0.3,0.9-0.6,1.2-1.1l1.2,0.9C690.3,731.1,688.9,731.8,687,731.8z M686.8,721.8c-0.8,0-1.4,0.3-1.9,0.8
		c-0.5,0.6-0.8,1.3-1,2.3h5.6v-0.1c-0.1-1-0.3-1.7-0.8-2.2C688.2,722.1,687.6,721.8,686.8,721.8z"/>
	<path class="st17" d="M697.1,729l2.7-8.5h1.9l-4,11.1h-1.4l-4-11.1h1.9L697.1,729z"/>
	<path class="st17" d="M708.1,731.8c-1.5,0-2.7-0.5-3.7-1.5c-0.9-1-1.4-2.3-1.4-4V726c0-1.1,0.2-2.1,0.6-2.9c0.4-0.9,1-1.5,1.8-2
		c0.8-0.5,1.6-0.7,2.5-0.7c1.4,0,2.6,0.5,3.4,1.4c0.8,1,1.2,2.3,1.2,4.1v0.8h-7.5c0,1.1,0.3,2,1,2.7c0.6,0.7,1.4,1,2.3,1
		c0.7,0,1.2-0.1,1.7-0.4c0.5-0.3,0.9-0.6,1.2-1.1l1.2,0.9C711.3,731.1,709.9,731.8,708.1,731.8z M707.8,721.8
		c-0.8,0-1.4,0.3-1.9,0.8c-0.5,0.6-0.8,1.3-1,2.3h5.6v-0.1c-0.1-1-0.3-1.7-0.8-2.2C709.2,722.1,708.6,721.8,707.8,721.8z"/>
	<path class="st17" d="M716.6,731.6h-1.9v-15.8h1.9V731.6z"/>
	<path class="st17" d="M719.2,725.9c0-1.1,0.2-2.1,0.6-2.9c0.4-0.9,1-1.5,1.8-2c0.8-0.5,1.6-0.7,2.6-0.7c1.5,0,2.7,0.5,3.7,1.6
		c0.9,1,1.4,2.4,1.4,4.2v0.1c0,1.1-0.2,2-0.6,2.9c-0.4,0.9-1,1.5-1.8,2c-0.8,0.5-1.7,0.7-2.7,0.7c-1.5,0-2.7-0.5-3.7-1.6
		c-0.9-1-1.4-2.4-1.4-4.2V725.9z M721.1,726.1c0,1.2,0.3,2.2,0.9,3c0.6,0.7,1.3,1.1,2.3,1.1c1,0,1.7-0.4,2.3-1.1
		c0.6-0.8,0.9-1.8,0.9-3.2c0-1.2-0.3-2.2-0.9-3c-0.6-0.8-1.3-1.1-2.3-1.1c-0.9,0-1.7,0.4-2.3,1.1S721.1,724.8,721.1,726.1z"/>
	<path class="st17" d="M741,726.1c0,1.7-0.4,3-1.2,4.1c-0.8,1-1.8,1.5-3.1,1.5c-1.3,0-2.4-0.4-3.2-1.3v5.3h-1.9v-15.4h1.7l0.1,1.2
		c0.8-1,1.8-1.4,3.2-1.4c1.3,0,2.4,0.5,3.2,1.5c0.8,1,1.2,2.4,1.2,4.2V726.1z M739.1,725.9c0-1.3-0.3-2.2-0.8-3
		c-0.5-0.7-1.3-1.1-2.2-1.1c-1.1,0-2,0.5-2.6,1.5v5.3c0.6,1,1.4,1.5,2.6,1.5c0.9,0,1.6-0.4,2.2-1.1
		C738.9,728.4,739.1,727.4,739.1,725.9z"/>
	<path class="st17" d="M745.2,720.5l0.1,1.2c0.8-1,1.9-1.4,3.3-1.4c1.6,0,2.6,0.6,3.2,1.8c0.4-0.5,0.8-1,1.4-1.3
		c0.6-0.3,1.3-0.5,2.1-0.5c2.4,0,3.7,1.3,3.7,3.9v7.4h-1.9v-7.3c0-0.8-0.2-1.4-0.5-1.8c-0.4-0.4-1-0.6-1.8-0.6
		c-0.7,0-1.3,0.2-1.8,0.6c-0.5,0.4-0.7,1-0.8,1.7v7.4h-1.9v-7.3c0-1.6-0.8-2.4-2.4-2.4c-1.2,0-2.1,0.5-2.6,1.6v8.1h-1.9v-11.1H745.2
		z"/>
	<path class="st17" d="M766.4,731.8c-1.5,0-2.7-0.5-3.7-1.5c-0.9-1-1.4-2.3-1.4-4V726c0-1.1,0.2-2.1,0.6-2.9c0.4-0.9,1-1.5,1.8-2
		c0.8-0.5,1.6-0.7,2.5-0.7c1.4,0,2.6,0.5,3.4,1.4c0.8,1,1.2,2.3,1.2,4.1v0.8h-7.5c0,1.1,0.3,2,1,2.7c0.6,0.7,1.4,1,2.3,1
		c0.7,0,1.2-0.1,1.7-0.4c0.5-0.3,0.9-0.6,1.2-1.1l1.2,0.9C769.7,731.1,768.3,731.8,766.4,731.8z M766.2,721.8
		c-0.8,0-1.4,0.3-1.9,0.8c-0.5,0.6-0.8,1.3-1,2.3h5.6v-0.1c-0.1-1-0.3-1.7-0.8-2.2C767.6,722.1,767,721.8,766.2,721.8z"/>
	<path class="st17" d="M774.8,720.5l0.1,1.4c0.8-1.1,2-1.6,3.3-1.6c2.3,0,3.5,1.3,3.5,4v7.3h-1.9v-7.3c0-0.8-0.2-1.4-0.5-1.8
		c-0.4-0.4-0.9-0.6-1.7-0.6c-0.6,0-1.2,0.2-1.6,0.5c-0.5,0.3-0.8,0.8-1.1,1.3v7.9H773v-11.1H774.8z"/>
	<path class="st17" d="M787.1,717.8v2.7h2.1v1.5h-2.1v6.9c0,0.4,0.1,0.8,0.3,1s0.5,0.3,0.9,0.3c0.2,0,0.5,0,0.9-0.1v1.5
		c-0.5,0.1-1,0.2-1.5,0.2c-0.8,0-1.5-0.3-1.9-0.8c-0.4-0.5-0.6-1.2-0.6-2.2v-6.9h-2v-1.5h2v-2.7H787.1z"/>
</g>
<g>
	<path class="st17" d="M992.4,706.4v-14.9h4.9c1.6,0,2.8,0.3,3.7,1c0.8,0.7,1.2,1.7,1.2,3c0,0.7-0.2,1.3-0.6,1.9
		c-0.4,0.5-0.9,1-1.6,1.2c0.8,0.2,1.4,0.7,1.9,1.3c0.5,0.6,0.7,1.4,0.7,2.3c0,1.3-0.4,2.4-1.3,3.2s-2.1,1.1-3.7,1.1H992.4z
		 M994.4,697.8h3c0.9,0,1.5-0.2,2.1-0.6c0.5-0.4,0.8-1,0.8-1.8c0-0.8-0.2-1.4-0.7-1.8s-1.2-0.6-2.2-0.6h-2.9V697.8z M994.4,699.4
		v5.4h3.3c0.9,0,1.6-0.2,2.2-0.7c0.5-0.5,0.8-1.1,0.8-2c0-1.8-1-2.7-2.9-2.7H994.4z"/>
	<path class="st17" d="M1012.1,705.3c-0.7,0.9-1.8,1.3-3.2,1.3c-1.2,0-2.1-0.3-2.7-1c-0.6-0.7-0.9-1.7-0.9-3.1v-7.2h1.9v7.2
		c0,1.7,0.7,2.5,2.1,2.5c1.4,0,2.4-0.5,2.9-1.6v-8.1h1.9v11.1h-1.8L1012.1,705.3z"/>
	<path class="st17" d="M1020.4,703.6l2.6-8.3h2l-4.5,12.8c-0.7,1.8-1.8,2.8-3.3,2.8l-0.4,0l-0.7-0.1v-1.5l0.5,0
		c0.6,0,1.1-0.1,1.5-0.4c0.4-0.3,0.7-0.7,0.9-1.4l0.4-1.1l-4-11h2.1L1020.4,703.6z"/>
	<path class="st17" d="M1041.3,700.9c0,1.7-0.4,3.1-1.2,4.1c-0.8,1-1.8,1.5-3.1,1.5c-1.4,0-2.5-0.5-3.2-1.5l-0.1,1.3h-1.7v-15.8h1.9
		v5.9c0.8-0.9,1.8-1.4,3.2-1.4s2.4,0.5,3.2,1.5c0.8,1,1.2,2.4,1.2,4.2V700.9z M1039.4,700.7c0-1.3-0.2-2.3-0.7-3s-1.2-1.1-2.2-1.1
		c-1.3,0-2.2,0.6-2.7,1.7v4.8c0.6,1.2,1.5,1.7,2.7,1.7c0.9,0,1.6-0.4,2.1-1.1S1039.4,702.1,1039.4,700.7z"/>
	<path class="st17" d="M1050.6,706.4c-0.1-0.2-0.2-0.6-0.3-1.2c-0.9,0.9-1.9,1.4-3.2,1.4c-1.1,0-2-0.3-2.7-0.9
		c-0.7-0.6-1.1-1.4-1.1-2.4c0-1.2,0.4-2.1,1.3-2.7c0.9-0.6,2.1-1,3.7-1h1.8v-0.9c0-0.7-0.2-1.2-0.6-1.6c-0.4-0.4-1-0.6-1.8-0.6
		c-0.7,0-1.2,0.2-1.7,0.5c-0.5,0.3-0.7,0.8-0.7,1.2h-1.9c0-0.6,0.2-1.1,0.6-1.6c0.4-0.5,0.9-0.9,1.6-1.2c0.7-0.3,1.4-0.5,2.2-0.5
		c1.3,0,2.3,0.3,3,1c0.7,0.6,1.1,1.5,1.1,2.6v5.1c0,1,0.1,1.8,0.4,2.4v0.2H1050.6z M1047.4,704.9c0.6,0,1.2-0.2,1.7-0.5
		s0.9-0.7,1.2-1.2V701h-1.5c-2.3,0-3.5,0.7-3.5,2c0,0.6,0.2,1.1,0.6,1.4S1046.8,704.9,1047.4,704.9z"/>
	<path class="st17" d="M1059.6,705c0.7,0,1.3-0.2,1.8-0.6c0.5-0.4,0.8-0.9,0.8-1.5h1.8c0,0.6-0.3,1.2-0.7,1.8s-0.9,1-1.6,1.4
		c-0.7,0.3-1.4,0.5-2.1,0.5c-1.5,0-2.7-0.5-3.6-1.5c-0.9-1-1.3-2.4-1.3-4.1v-0.3c0-1.1,0.2-2,0.6-2.9c0.4-0.8,1-1.5,1.7-2
		c0.7-0.5,1.6-0.7,2.6-0.7c1.2,0,2.3,0.4,3.1,1.1c0.8,0.7,1.3,1.7,1.3,2.9h-1.8c-0.1-0.7-0.3-1.3-0.8-1.8c-0.5-0.5-1.1-0.7-1.8-0.7
		c-1,0-1.7,0.3-2.2,1c-0.5,0.7-0.8,1.7-0.8,3v0.4c0,1.3,0.3,2.3,0.8,3S1058.6,705,1059.6,705z"/>
	<path class="st17" d="M1069.2,701.2l-1.2,1.2v3.9h-1.9v-15.8h1.9v9.5l1-1.2l3.5-3.7h2.3l-4.3,4.6l4.8,6.5h-2.2L1069.2,701.2z"/>
	<path class="st17" d="M1081.6,702.4c0-0.7,0.2-1.4,0.6-2c0.4-0.6,1.2-1.3,2.3-2.1c-0.7-0.8-1.1-1.5-1.3-1.9c-0.2-0.5-0.3-1-0.3-1.5
		c0-1.1,0.3-2,1-2.7s1.6-1,2.7-1c1,0,1.9,0.3,2.5,0.9c0.7,0.6,1,1.4,1,2.3c0,0.6-0.2,1.2-0.5,1.7c-0.3,0.5-0.8,1-1.6,1.6l-1.1,0.8
		l3.3,4c0.5-0.9,0.7-1.9,0.7-3h1.7c0,1.7-0.4,3.2-1.3,4.3l2.1,2.6h-2.3l-1-1.2c-0.5,0.5-1.1,0.8-1.8,1c-0.7,0.2-1.4,0.4-2.1,0.4
		c-1.5,0-2.6-0.4-3.5-1.2S1081.6,703.6,1081.6,702.4z M1086.4,705c1,0,1.9-0.4,2.8-1.1l-3.6-4.4l-0.3,0.2c-1.1,0.8-1.7,1.7-1.7,2.6
		c0,0.8,0.3,1.5,0.8,1.9C1084.8,704.8,1085.5,705,1086.4,705z M1084.7,694.8c0,0.7,0.4,1.5,1.2,2.5l1.2-0.9c0.5-0.3,0.8-0.6,1-0.9
		c0.2-0.3,0.3-0.7,0.3-1.1c0-0.5-0.2-0.8-0.5-1.1c-0.3-0.3-0.8-0.5-1.3-0.5c-0.6,0-1,0.2-1.3,0.6
		C1084.9,693.7,1084.7,694.2,1084.7,694.8z"/>
	<path class="st17" d="M1109.6,700.9c0,1.7-0.4,3.1-1.2,4.1c-0.8,1-1.8,1.5-3.1,1.5c-1.4,0-2.5-0.5-3.2-1.5l-0.1,1.3h-1.7v-15.8h1.9
		v5.9c0.8-0.9,1.8-1.4,3.2-1.4s2.4,0.5,3.2,1.5c0.8,1,1.2,2.4,1.2,4.2V700.9z M1107.7,700.7c0-1.3-0.2-2.3-0.7-3s-1.2-1.1-2.2-1.1
		c-1.3,0-2.2,0.6-2.7,1.7v4.8c0.6,1.2,1.5,1.7,2.7,1.7c0.9,0,1.6-0.4,2.1-1.1S1107.7,702.1,1107.7,700.7z"/>
	<path class="st17" d="M1118.9,705.3c-0.7,0.9-1.8,1.3-3.2,1.3c-1.2,0-2.1-0.3-2.7-1c-0.6-0.7-0.9-1.7-0.9-3.1v-7.2h1.9v7.2
		c0,1.7,0.7,2.5,2.1,2.5c1.4,0,2.4-0.5,2.9-1.6v-8.1h1.9v11.1h-1.8L1118.9,705.3z"/>
	<path class="st17" d="M1128.9,697c-0.3,0-0.6-0.1-0.9-0.1c-1.2,0-2.1,0.5-2.5,1.6v7.9h-1.9v-11.1h1.8l0,1.3c0.6-1,1.5-1.5,2.6-1.5
		c0.4,0,0.6,0,0.8,0.1V697z"/>
	<path class="st17" d="M1132.5,695.3l0.1,1.4c0.8-1.1,2-1.6,3.3-1.6c2.3,0,3.5,1.3,3.5,4v7.3h-1.9V699c0-0.8-0.2-1.4-0.5-1.8
		c-0.4-0.4-0.9-0.6-1.7-0.6c-0.6,0-1.2,0.2-1.6,0.5c-0.5,0.3-0.8,0.8-1.1,1.3v7.9h-1.9v-11.1H1132.5z"/>
	<path class="st17" d="M1012.5,727.7c0-0.6-0.2-1.2-0.7-1.6c-0.4-0.4-1.2-0.8-2.2-1.2c-1.5-0.4-2.5-1-3.2-1.7c-0.7-0.7-1-1.6-1-2.7
		c0-1.1,0.3-2,1-2.8c0.7-0.7,1.5-1.1,2.7-1.3v-2.2h1.5v2.3c1.1,0.2,2,0.6,2.7,1.4c0.6,0.8,1,1.9,1,3.3h-1.9c0-1-0.2-1.7-0.7-2.3
		c-0.5-0.6-1.1-0.9-1.9-0.9c-0.8,0-1.4,0.2-1.9,0.6s-0.6,1-0.6,1.8c0,0.7,0.2,1.3,0.7,1.7c0.5,0.4,1.2,0.8,2.2,1.1
		c1,0.3,1.9,0.7,2.4,1.1c0.6,0.4,1,0.9,1.3,1.4c0.3,0.5,0.4,1.2,0.4,1.9c0,1.2-0.3,2.1-1,2.8c-0.7,0.7-1.7,1.1-2.9,1.2v2h-1.5v-2
		c-1.3-0.1-2.3-0.6-3-1.4c-0.7-0.8-1.1-1.9-1.1-3.2h1.9c0,1,0.2,1.7,0.7,2.2c0.5,0.5,1.2,0.8,2.1,0.8c0.9,0,1.6-0.2,2.1-0.6
		C1012.3,729.1,1012.5,728.5,1012.5,727.7z"/>
	<path class="st17" d="M1019.2,730h7.1v1.6h-9.1v-14.9h2V730z"/>
	<path class="st17" d="M1038.5,716.6v10.2c0,1.4-0.4,2.6-1.3,3.5c-0.9,0.9-2.1,1.4-3.6,1.5l-0.5,0c-1.6,0-2.9-0.4-3.9-1.3
		c-1-0.9-1.5-2.1-1.5-3.6v-10.2h1.9v10.1c0,1.1,0.3,1.9,0.9,2.5c0.6,0.6,1.4,0.9,2.5,0.9c1.1,0,2-0.3,2.6-0.9
		c0.6-0.6,0.9-1.4,0.9-2.5v-10.1H1038.5z"/>
	<path class="st17" d="M1052.6,726.8c-0.2,1.6-0.8,2.8-1.7,3.7c-1,0.9-2.3,1.3-3.9,1.3c-1.8,0-3.2-0.6-4.2-1.9
		c-1.1-1.3-1.6-3-1.6-5.1v-1.4c0-1.4,0.2-2.6,0.7-3.7c0.5-1.1,1.2-1.9,2.1-2.4c0.9-0.6,2-0.8,3.2-0.8c1.6,0,2.9,0.4,3.8,1.3
		c1,0.9,1.5,2.1,1.7,3.7h-2c-0.2-1.2-0.5-2.1-1.1-2.6c-0.6-0.5-1.4-0.8-2.4-0.8c-1.3,0-2.2,0.5-3,1.4c-0.7,0.9-1.1,2.3-1.1,4v1.4
		c0,1.6,0.3,2.9,1,3.9c0.7,1,1.6,1.4,2.8,1.4c1.1,0,1.9-0.2,2.5-0.7c0.6-0.5,1-1.4,1.2-2.6H1052.6z"/>
	<path class="st17" d="M1059.1,724.6l-1.8,1.9v5h-2v-14.9h2v7.4l6.6-7.4h2.4l-5.9,6.6l6.3,8.3h-2.4L1059.1,724.6z"/>
	<path class="st17" d="M1073,724.1l3.9-7.5h2.2l-5.1,9.4v5.6h-2V726l-5.1-9.4h2.3L1073,724.1z"/>
	<path class="st17" d="M1091.7,726.8c-0.2,1.6-0.8,2.8-1.7,3.7c-1,0.9-2.3,1.3-3.9,1.3c-1.8,0-3.2-0.6-4.2-1.9
		c-1.1-1.3-1.6-3-1.6-5.1v-1.4c0-1.4,0.2-2.6,0.7-3.7c0.5-1.1,1.2-1.9,2.1-2.4c0.9-0.6,2-0.8,3.2-0.8c1.6,0,2.9,0.4,3.8,1.3
		c1,0.9,1.5,2.1,1.7,3.7h-2c-0.2-1.2-0.5-2.1-1.1-2.6c-0.6-0.5-1.4-0.8-2.4-0.8c-1.3,0-2.2,0.5-3,1.4c-0.7,0.9-1.1,2.3-1.1,4v1.4
		c0,1.6,0.3,2.9,1,3.9c0.7,1,1.6,1.4,2.8,1.4c1.1,0,1.9-0.2,2.5-0.7c0.6-0.5,1-1.4,1.2-2.6H1091.7z"/>
	<path class="st17" d="M1105.9,724.6c0,1.5-0.2,2.7-0.7,3.8c-0.5,1.1-1.2,1.9-2.1,2.5s-2,0.9-3.2,0.9c-1.2,0-2.2-0.3-3.1-0.9
		c-0.9-0.6-1.6-1.4-2.1-2.5c-0.5-1.1-0.8-2.3-0.8-3.7v-1.1c0-1.4,0.2-2.7,0.7-3.8c0.5-1.1,1.2-1.9,2.1-2.5c0.9-0.6,2-0.9,3.1-0.9
		c1.2,0,2.2,0.3,3.2,0.9c0.9,0.6,1.6,1.4,2.1,2.5c0.5,1.1,0.7,2.4,0.7,3.8V724.6z M1104,723.6c0-1.8-0.4-3.1-1.1-4.1
		c-0.7-0.9-1.7-1.4-3-1.4c-1.2,0-2.2,0.5-2.9,1.4c-0.7,0.9-1.1,2.3-1.1,3.9v1.1c0,1.7,0.4,3.1,1.1,4c0.7,1,1.7,1.5,3,1.5
		c1.3,0,2.3-0.5,3-1.4c0.7-0.9,1.1-2.3,1.1-4V723.6z"/>
	<path class="st17" d="M1111,731.6h-2v-14.9h2V731.6z"/>
	<path class="st17" d="M1126.1,731.6h-2l-7.5-11.5v11.5h-2v-14.9h2l7.5,11.6v-11.6h2V731.6z"/>
</g>
<g>
	<path class="st17" d="M1334.8,716.1h7.1v1.6h-9.1v-14.9h2V716.1z"/>
	<path class="st17" d="M1343.9,703.7c0-0.3,0.1-0.6,0.3-0.8c0.2-0.2,0.5-0.3,0.8-0.3s0.6,0.1,0.8,0.3s0.3,0.5,0.3,0.8
		s-0.1,0.6-0.3,0.8s-0.5,0.3-0.8,0.3s-0.6-0.1-0.8-0.3C1344,704.2,1343.9,704,1343.9,703.7z M1345.9,717.7h-1.9v-11.1h1.9V717.7z"/>
	<path class="st17" d="M1348.5,712.1c0-1.7,0.4-3.1,1.2-4.1c0.8-1,1.9-1.5,3.2-1.5c1.3,0,2.3,0.4,3.1,1.3l0.1-1.1h1.7V722h-1.9v-5.3
		c-0.8,0.8-1.8,1.2-3.1,1.2c-1.3,0-2.4-0.5-3.2-1.6c-0.8-1-1.2-2.4-1.2-4.1V712.1z M1350.4,712.3c0,1.3,0.3,2.3,0.8,3
		c0.5,0.7,1.3,1.1,2.2,1.1c1.1,0,2-0.5,2.6-1.5v-5.4c-0.6-1-1.5-1.5-2.6-1.5c-0.9,0-1.6,0.4-2.2,1.1
		C1350.7,709.8,1350.4,710.9,1350.4,712.3z"/>
	<path class="st17" d="M1367.7,716.6c-0.7,0.9-1.8,1.3-3.2,1.3c-1.2,0-2.1-0.3-2.7-1c-0.6-0.7-0.9-1.7-0.9-3.1v-7.2h1.9v7.2
		c0,1.7,0.7,2.5,2.1,2.5c1.4,0,2.4-0.5,2.9-1.6v-8.1h1.9v11.1h-1.8L1367.7,716.6z"/>
	<path class="st17" d="M1372.5,703.7c0-0.3,0.1-0.6,0.3-0.8c0.2-0.2,0.5-0.3,0.8-0.3s0.6,0.1,0.8,0.3s0.3,0.5,0.3,0.8
		s-0.1,0.6-0.3,0.8s-0.5,0.3-0.8,0.3s-0.6-0.1-0.8-0.3C1372.6,704.2,1372.5,704,1372.5,703.7z M1374.5,717.7h-1.9v-11.1h1.9V717.7z"
		/>
	<path class="st17" d="M1377.1,712.1c0-1.7,0.4-3.1,1.2-4.1c0.8-1,1.9-1.6,3.2-1.6c1.3,0,2.3,0.4,3.1,1.3V702h1.9v15.8h-1.7
		l-0.1-1.2c-0.8,0.9-1.8,1.4-3.2,1.4c-1.3,0-2.3-0.5-3.1-1.6c-0.8-1.1-1.2-2.4-1.2-4.1V712.1z M1379,712.3c0,1.3,0.3,2.2,0.8,3
		s1.2,1.1,2.2,1.1c1.2,0,2.1-0.5,2.6-1.6v-5.1c-0.6-1-1.4-1.6-2.6-1.6c-0.9,0-1.7,0.4-2.2,1.1S1379,710.9,1379,712.3z"/>
	<path class="st17" d="M1389.4,703.7c0-0.3,0.1-0.6,0.3-0.8c0.2-0.2,0.5-0.3,0.8-0.3s0.6,0.1,0.8,0.3s0.3,0.5,0.3,0.8
		s-0.1,0.6-0.3,0.8s-0.5,0.3-0.8,0.3s-0.6-0.1-0.8-0.3C1389.5,704.2,1389.4,704,1389.4,703.7z M1391.5,717.7h-1.9v-11.1h1.9V717.7z"
		/>
	<path class="st17" d="M1397.1,703.9v2.7h2.1v1.5h-2.1v6.9c0,0.4,0.1,0.8,0.3,1s0.5,0.3,0.9,0.3c0.2,0,0.5,0,0.9-0.1v1.5
		c-0.5,0.1-1,0.2-1.5,0.2c-0.8,0-1.5-0.3-1.9-0.8c-0.4-0.5-0.6-1.2-0.6-2.2v-6.9h-2v-1.5h2v-2.7H1397.1z"/>
	<path class="st17" d="M1405,714.9l2.6-8.3h2l-4.5,12.8c-0.7,1.8-1.8,2.8-3.3,2.8l-0.4,0l-0.7-0.1v-1.5l0.5,0c0.6,0,1.1-0.1,1.5-0.4
		c0.4-0.3,0.7-0.7,0.9-1.4l0.4-1.1l-4-11h2.1L1405,714.9z"/>
	<path class="st17" d="M1418.8,711.9v5.8h-2v-14.9h5.5c1.6,0,2.9,0.4,3.8,1.3c0.9,0.8,1.4,1.9,1.4,3.3c0,1.5-0.5,2.6-1.4,3.3
		c-0.9,0.8-2.2,1.2-3.9,1.2H1418.8z M1418.8,710.3h3.5c1.1,0,1.9-0.2,2.4-0.7s0.8-1.2,0.8-2.2c0-0.9-0.3-1.6-0.8-2.1
		c-0.6-0.5-1.3-0.8-2.3-0.8h-3.7V710.3z"/>
	<path class="st17" d="M1429.1,712.1c0-1.1,0.2-2.1,0.6-2.9c0.4-0.9,1-1.5,1.8-2c0.8-0.5,1.6-0.7,2.6-0.7c1.5,0,2.7,0.5,3.7,1.6
		c0.9,1,1.4,2.4,1.4,4.2v0.1c0,1.1-0.2,2-0.6,2.9c-0.4,0.9-1,1.5-1.8,2c-0.8,0.5-1.7,0.7-2.7,0.7c-1.5,0-2.7-0.5-3.7-1.6
		c-0.9-1-1.4-2.4-1.4-4.2V712.1z M1431,712.3c0,1.2,0.3,2.2,0.9,3c0.6,0.7,1.3,1.1,2.3,1.1c1,0,1.7-0.4,2.3-1.1
		c0.6-0.8,0.9-1.8,0.9-3.2c0-1.2-0.3-2.2-0.9-3c-0.6-0.8-1.3-1.1-2.3-1.1c-0.9,0-1.7,0.4-2.3,1.1S1431,710.9,1431,712.3z"/>
	<path class="st17" d="M1441.1,712.1c0-1.1,0.2-2.1,0.6-2.9c0.4-0.9,1-1.5,1.8-2c0.8-0.5,1.6-0.7,2.6-0.7c1.5,0,2.7,0.5,3.7,1.6
		c0.9,1,1.4,2.4,1.4,4.2v0.1c0,1.1-0.2,2-0.6,2.9c-0.4,0.9-1,1.5-1.8,2c-0.8,0.5-1.7,0.7-2.7,0.7c-1.5,0-2.7-0.5-3.7-1.6
		c-0.9-1-1.4-2.4-1.4-4.2V712.1z M1443,712.3c0,1.2,0.3,2.2,0.9,3c0.6,0.7,1.3,1.1,2.3,1.1c1,0,1.7-0.4,2.3-1.1
		c0.6-0.8,0.9-1.8,0.9-3.2c0-1.2-0.3-2.2-0.9-3c-0.6-0.8-1.3-1.1-2.3-1.1c-0.9,0-1.7,0.4-2.3,1.1S1443,710.9,1443,712.3z"/>
	<path class="st17" d="M1455.6,717.7h-1.9V702h1.9V717.7z"/>
</g>
<polyline class="st26" points="735.8,649.1 735.8,617.9 1394.2,617.9 1394.2,649.1 "/>
<line class="st26" x1="1064.2" y1="617.9" x2="1064.2" y2="649.1"/>
<line class="st26" x1="807.5" y1="584.7" x2="807.5" y2="617.9"/>
<g>
	<g>
		<line class="st27" x1="696.5" y1="138.5" x2="690.5" y2="138.5"/>
		<line class="st28" x1="678.7" y1="138.5" x2="543.7" y2="138.5"/>
		<line class="st27" x1="537.8" y1="138.5" x2="531.8" y2="138.5"/>
	</g>
</g>
<g>
	<g>
		<line class="st27" x1="343.6" y1="138.5" x2="337.6" y2="138.5"/>
		<line class="st29" x1="326.5" y1="138.5" x2="220.5" y2="138.5"/>
		<line class="st27" x1="214.9" y1="138.5" x2="208.9" y2="138.5"/>
	</g>
</g>
<g>
	<g>
		<line class="st27" x1="434" y1="562.3" x2="434" y2="568.3"/>
		<line class="st30" x1="434" y1="582.2" x2="434" y2="630.7"/>
		<line class="st27" x1="434" y1="637.6" x2="434" y2="643.6"/>
	</g>
</g>
<g>
	<g>
		<line class="st27" x1="316.9" y1="448.6" x2="310.9" y2="448.6"/>
		<line class="st31" x1="300.3" y1="448.6" x2="220.3" y2="448.6"/>
		<line class="st27" x1="214.9" y1="448.6" x2="208.9" y2="448.6"/>
	</g>
</g>
<g>
	<path class="st32" d="M383.6,703.8c-0.2,1.6-0.8,2.8-1.7,3.7c-1,0.9-2.3,1.3-3.9,1.3c-1.8,0-3.2-0.6-4.2-1.9s-1.6-3-1.6-5.1v-1.4
		c0-1.4,0.2-2.6,0.7-3.7c0.5-1.1,1.2-1.9,2.1-2.4c0.9-0.6,2-0.8,3.2-0.8c1.6,0,2.9,0.4,3.8,1.3c1,0.9,1.5,2.1,1.7,3.7h-2
		c-0.2-1.2-0.5-2.1-1.1-2.6s-1.4-0.8-2.4-0.8c-1.3,0-2.2,0.5-3,1.4s-1.1,2.3-1.1,4v1.4c0,1.6,0.3,2.9,1,3.9c0.7,1,1.6,1.4,2.8,1.4
		c1.1,0,1.9-0.2,2.5-0.7c0.6-0.5,1-1.4,1.2-2.6H383.6z"/>
	<path class="st32" d="M388.1,708.6h-1.9v-15.8h1.9V708.6z"/>
	<path class="st32" d="M391.1,694.5c0-0.3,0.1-0.6,0.3-0.8s0.5-0.3,0.8-0.3s0.6,0.1,0.8,0.3s0.3,0.5,0.3,0.8c0,0.3-0.1,0.6-0.3,0.8
		s-0.5,0.3-0.8,0.3s-0.6-0.1-0.8-0.3S391.1,694.8,391.1,694.5z M393.2,708.6h-1.9v-11.1h1.9V708.6z"/>
	<path class="st32" d="M400.8,708.8c-1.5,0-2.7-0.5-3.7-1.5c-0.9-1-1.4-2.3-1.4-4V703c0-1.1,0.2-2.1,0.6-2.9c0.4-0.9,1-1.5,1.8-2
		c0.8-0.5,1.6-0.7,2.5-0.7c1.4,0,2.6,0.5,3.4,1.4c0.8,1,1.2,2.3,1.2,4.1v0.8h-7.5c0,1.1,0.3,2,1,2.7c0.6,0.7,1.4,1,2.3,1
		c0.7,0,1.2-0.1,1.7-0.4c0.5-0.3,0.9-0.6,1.2-1.1l1.2,0.9C404.1,708.1,402.7,708.8,400.8,708.8z M400.6,698.8
		c-0.8,0-1.4,0.3-1.9,0.8c-0.5,0.6-0.8,1.3-1,2.3h5.6v-0.1c-0.1-1-0.3-1.7-0.8-2.2C402,699.1,401.4,698.8,400.6,698.8z"/>
	<path class="st32" d="M409.1,697.5l0.1,1.4c0.8-1.1,2-1.6,3.3-1.6c2.3,0,3.5,1.3,3.5,4v7.3h-1.9v-7.3c0-0.8-0.2-1.4-0.5-1.8
		c-0.4-0.4-0.9-0.6-1.7-0.6c-0.6,0-1.2,0.2-1.6,0.5s-0.8,0.8-1.1,1.3v7.9h-1.9v-11.1H409.1z"/>
	<path class="st32" d="M421.5,694.8v2.7h2.1v1.5h-2.1v6.9c0,0.4,0.1,0.8,0.3,1s0.5,0.3,0.9,0.3c0.2,0,0.5,0,0.9-0.1v1.5
		c-0.5,0.1-1,0.2-1.5,0.2c-0.8,0-1.5-0.3-1.9-0.8c-0.4-0.5-0.6-1.2-0.6-2.2v-6.9h-2v-1.5h2v-2.7H421.5z"/>
	<path class="st32" d="M432.3,705.6c0-0.5-0.2-0.9-0.6-1.2c-0.4-0.3-1.1-0.5-2-0.7s-1.7-0.5-2.3-0.7c-0.6-0.3-1-0.6-1.3-1
		c-0.3-0.4-0.4-0.9-0.4-1.4c0-0.9,0.4-1.7,1.2-2.3c0.8-0.6,1.8-0.9,2.9-0.9c1.3,0,2.3,0.3,3.1,1c0.8,0.7,1.2,1.5,1.2,2.5h-1.9
		c0-0.5-0.2-1-0.7-1.3c-0.4-0.4-1-0.6-1.7-0.6c-0.7,0-1.2,0.2-1.6,0.5s-0.6,0.7-0.6,1.2c0,0.5,0.2,0.8,0.5,1s1,0.5,2,0.7
		c0.9,0.2,1.7,0.5,2.3,0.8c0.6,0.3,1,0.6,1.3,1.1c0.3,0.4,0.4,0.9,0.4,1.5c0,1-0.4,1.8-1.2,2.4c-0.8,0.6-1.8,0.9-3.1,0.9
		c-0.9,0-1.7-0.2-2.4-0.5s-1.2-0.8-1.6-1.3c-0.4-0.6-0.6-1.2-0.6-1.8h1.9c0,0.6,0.3,1.1,0.8,1.5c0.5,0.4,1.1,0.6,1.9,0.6
		c0.7,0,1.3-0.1,1.7-0.4C432,706.5,432.3,706.1,432.3,705.6z"/>
	<path class="st32" d="M444.1,707h7.1v1.6h-9.1v-14.9h2V707z"/>
	<path class="st32" d="M452.6,702.9c0-1.1,0.2-2.1,0.6-2.9c0.4-0.9,1-1.5,1.8-2c0.8-0.5,1.6-0.7,2.6-0.7c1.5,0,2.7,0.5,3.7,1.6
		c0.9,1,1.4,2.4,1.4,4.2v0.1c0,1.1-0.2,2-0.6,2.9c-0.4,0.9-1,1.5-1.8,2c-0.8,0.5-1.7,0.7-2.7,0.7c-1.5,0-2.7-0.5-3.7-1.6
		c-0.9-1-1.4-2.4-1.4-4.2V702.9z M454.5,703.1c0,1.2,0.3,2.2,0.9,3s1.3,1.1,2.3,1.1c1,0,1.7-0.4,2.3-1.1c0.6-0.8,0.9-1.8,0.9-3.2
		c0-1.2-0.3-2.2-0.9-3c-0.6-0.8-1.3-1.1-2.3-1.1c-0.9,0-1.7,0.4-2.3,1.1S454.5,701.8,454.5,703.1z"/>
	<path class="st32" d="M467.7,694.8v2.7h2.1v1.5h-2.1v6.9c0,0.4,0.1,0.8,0.3,1s0.5,0.3,0.9,0.3c0.2,0,0.5,0,0.9-0.1v1.5
		c-0.5,0.1-1,0.2-1.5,0.2c-0.8,0-1.5-0.3-1.9-0.8c-0.4-0.5-0.6-1.2-0.6-2.2v-6.9h-2v-1.5h2v-2.7H467.7z"/>
	<path class="st32" d="M474.5,694.8v2.7h2.1v1.5h-2.1v6.9c0,0.4,0.1,0.8,0.3,1s0.5,0.3,0.9,0.3c0.2,0,0.5,0,0.9-0.1v1.5
		c-0.5,0.1-1,0.2-1.5,0.2c-0.8,0-1.5-0.3-1.9-0.8c-0.4-0.5-0.6-1.2-0.6-2.2v-6.9h-2v-1.5h2v-2.7H474.5z"/>
	<path class="st32" d="M483.4,708.8c-1.5,0-2.7-0.5-3.7-1.5c-0.9-1-1.4-2.3-1.4-4V703c0-1.1,0.2-2.1,0.6-2.9c0.4-0.9,1-1.5,1.8-2
		c0.8-0.5,1.6-0.7,2.5-0.7c1.4,0,2.6,0.5,3.4,1.4c0.8,1,1.2,2.3,1.2,4.1v0.8h-7.5c0,1.1,0.3,2,1,2.7c0.6,0.7,1.4,1,2.3,1
		c0.7,0,1.2-0.1,1.7-0.4c0.5-0.3,0.9-0.6,1.2-1.1l1.2,0.9C486.7,708.1,485.3,708.8,483.4,708.8z M483.2,698.8
		c-0.8,0-1.4,0.3-1.9,0.8c-0.5,0.6-0.8,1.3-1,2.3h5.6v-0.1c-0.1-1-0.3-1.7-0.8-2.2C484.6,699.1,484,698.8,483.2,698.8z"/>
	<path class="st32" d="M495.3,699.2c-0.3,0-0.6-0.1-0.9-0.1c-1.2,0-2.1,0.5-2.5,1.6v7.9h-1.9v-11.1h1.8l0,1.3c0.6-1,1.5-1.5,2.6-1.5
		c0.4,0,0.6,0,0.8,0.1V699.2z"/>
	<path class="st32" d="M500.9,705.8l2.6-8.3h2l-4.5,12.8c-0.7,1.8-1.8,2.8-3.3,2.8l-0.4,0l-0.7-0.1v-1.5l0.5,0
		c0.6,0,1.1-0.1,1.5-0.4c0.4-0.3,0.7-0.7,0.9-1.4l0.4-1.1l-4-11h2.1L500.9,705.8z"/>
	<path class="st32" d="M410.7,729.1l0.3,2l0.4-1.8l3-10.4h1.7l2.9,10.4l0.4,1.8l0.3-2l2.3-10.2h2l-3.6,14.9h-1.8l-3.1-10.9l-0.2-1.1
		l-0.2,1.1l-3.2,10.9H410l-3.6-14.9h2L410.7,729.1z"/>
	<path class="st32" d="M425.8,719.7c0-0.3,0.1-0.6,0.3-0.8s0.5-0.3,0.8-0.3s0.6,0.1,0.8,0.3s0.3,0.5,0.3,0.8c0,0.3-0.1,0.6-0.3,0.8
		s-0.5,0.3-0.8,0.3s-0.6-0.1-0.8-0.3S425.8,720,425.8,719.7z M427.9,733.8H426v-11.1h1.9V733.8z"/>
	<path class="st32" d="M432.7,722.7l0.1,1.4c0.8-1.1,2-1.6,3.3-1.6c2.3,0,3.5,1.3,3.5,4v7.3h-1.9v-7.3c0-0.8-0.2-1.4-0.5-1.8
		c-0.4-0.4-0.9-0.6-1.7-0.6c-0.6,0-1.2,0.2-1.6,0.5s-0.8,0.8-1.1,1.3v7.9h-1.9v-11.1H432.7z"/>
	<path class="st32" d="M444.3,722.7l0.1,1.4c0.8-1.1,2-1.6,3.3-1.6c2.3,0,3.5,1.3,3.5,4v7.3h-1.9v-7.3c0-0.8-0.2-1.4-0.5-1.8
		c-0.4-0.4-0.9-0.6-1.7-0.6c-0.6,0-1.2,0.2-1.6,0.5s-0.8,0.8-1.1,1.3v7.9h-1.9v-11.1H444.3z"/>
	<path class="st32" d="M458.7,734c-1.5,0-2.7-0.5-3.7-1.5c-0.9-1-1.4-2.3-1.4-4v-0.3c0-1.1,0.2-2.1,0.6-2.9c0.4-0.9,1-1.5,1.8-2
		c0.8-0.5,1.6-0.7,2.5-0.7c1.4,0,2.6,0.5,3.4,1.4c0.8,1,1.2,2.3,1.2,4.1v0.8h-7.5c0,1.1,0.3,2,1,2.7c0.6,0.7,1.4,1,2.3,1
		c0.7,0,1.2-0.1,1.7-0.4c0.5-0.3,0.9-0.6,1.2-1.1l1.2,0.9C462,733.3,460.6,734,458.7,734z M458.5,724c-0.8,0-1.4,0.3-1.9,0.8
		c-0.5,0.6-0.8,1.3-1,2.3h5.6v-0.1c-0.1-1-0.3-1.7-0.8-2.2C459.9,724.3,459.3,724,458.5,724z"/>
	<path class="st32" d="M470.6,724.4c-0.3,0-0.6-0.1-0.9-0.1c-1.2,0-2.1,0.5-2.5,1.6v7.9h-1.9v-11.1h1.8l0,1.3c0.6-1,1.5-1.5,2.6-1.5
		c0.4,0,0.6,0,0.8,0.1V724.4z"/>
</g>
<g>
	<path class="st32" d="M418.6,137.7v5.8h-2v-14.9h5.5c1.6,0,2.9,0.4,3.8,1.3s1.4,1.9,1.4,3.3c0,1.5-0.5,2.6-1.4,3.3
		c-0.9,0.8-2.2,1.2-3.9,1.2H418.6z M418.6,136.1h3.5c1.1,0,1.9-0.2,2.4-0.7s0.8-1.2,0.8-2.2c0-0.9-0.3-1.6-0.8-2.1s-1.3-0.8-2.3-0.8
		h-3.7V136.1z"/>
	<path class="st32" d="M435,134.1c-0.3,0-0.6-0.1-0.9-0.1c-1.2,0-2.1,0.5-2.5,1.6v7.9h-1.9v-11.1h1.8l0,1.3c0.6-1,1.5-1.5,2.6-1.5
		c0.4,0,0.6,0,0.8,0.1V134.1z"/>
	<path class="st32" d="M436.7,129.5c0-0.3,0.1-0.6,0.3-0.8s0.5-0.3,0.8-0.3s0.6,0.1,0.8,0.3s0.3,0.5,0.3,0.8c0,0.3-0.1,0.6-0.3,0.8
		s-0.5,0.3-0.8,0.3s-0.6-0.1-0.8-0.3S436.7,129.8,436.7,129.5z M438.8,143.5h-1.9v-11.1h1.9V143.5z"/>
	<path class="st32" d="M443.6,142h6.5v1.5h-8.8v-1.4l6.1-8.1h-6v-1.6h8.4v1.3L443.6,142z"/>
	<path class="st32" d="M456.7,143.7c-1.5,0-2.7-0.5-3.7-1.5c-0.9-1-1.4-2.3-1.4-4v-0.3c0-1.1,0.2-2.1,0.6-2.9c0.4-0.9,1-1.5,1.8-2
		c0.8-0.5,1.6-0.7,2.5-0.7c1.4,0,2.6,0.5,3.4,1.4c0.8,1,1.2,2.3,1.2,4.1v0.8h-7.5c0,1.1,0.3,2,1,2.7c0.6,0.7,1.4,1,2.3,1
		c0.7,0,1.2-0.1,1.7-0.4c0.5-0.3,0.9-0.6,1.2-1.1l1.2,0.9C459.9,143,458.5,143.7,456.7,143.7z M456.4,133.8c-0.8,0-1.4,0.3-1.9,0.8
		c-0.5,0.6-0.8,1.3-1,2.3h5.6v-0.1c-0.1-1-0.3-1.7-0.8-2.2C457.8,134,457.2,133.8,456.4,133.8z"/>
</g>
<g>
	<path class="st32" d="M83.9,132.8H91v1.6h-9.1v-14.9h2V132.8z"/>
	<path class="st32" d="M92.4,128.8c0-1.1,0.2-2.1,0.6-2.9c0.4-0.9,1-1.5,1.8-2c0.8-0.5,1.6-0.7,2.6-0.7c1.5,0,2.7,0.5,3.7,1.6
		c0.9,1,1.4,2.4,1.4,4.2v0.1c0,1.1-0.2,2-0.6,2.9c-0.4,0.9-1,1.5-1.8,2c-0.8,0.5-1.7,0.7-2.7,0.7c-1.5,0-2.7-0.5-3.7-1.6
		c-0.9-1-1.4-2.4-1.4-4.2V128.8z M94.3,129c0,1.2,0.3,2.2,0.9,3s1.3,1.1,2.3,1.1c1,0,1.7-0.4,2.3-1.1c0.6-0.8,0.9-1.8,0.9-3.2
		c0-1.2-0.3-2.2-0.9-3c-0.6-0.8-1.3-1.1-2.3-1.1c-0.9,0-1.7,0.4-2.3,1.1S94.3,127.6,94.3,129z"/>
	<path class="st32" d="M107.5,120.6v2.7h2.1v1.5h-2.1v6.9c0,0.4,0.1,0.8,0.3,1s0.5,0.3,0.9,0.3c0.2,0,0.5,0,0.9-0.1v1.5
		c-0.5,0.1-1,0.2-1.5,0.2c-0.8,0-1.5-0.3-1.9-0.8c-0.4-0.5-0.6-1.2-0.6-2.2v-6.9h-2v-1.5h2v-2.7H107.5z"/>
	<path class="st32" d="M114.3,120.6v2.7h2.1v1.5h-2.1v6.9c0,0.4,0.1,0.8,0.3,1s0.5,0.3,0.9,0.3c0.2,0,0.5,0,0.9-0.1v1.5
		c-0.5,0.1-1,0.2-1.5,0.2c-0.8,0-1.5-0.3-1.9-0.8c-0.4-0.5-0.6-1.2-0.6-2.2v-6.9h-2v-1.5h2v-2.7H114.3z"/>
	<path class="st32" d="M123.2,134.6c-1.5,0-2.7-0.5-3.7-1.5c-0.9-1-1.4-2.3-1.4-4v-0.3c0-1.1,0.2-2.1,0.6-2.9c0.4-0.9,1-1.5,1.8-2
		c0.8-0.5,1.6-0.7,2.5-0.7c1.4,0,2.6,0.5,3.4,1.4c0.8,1,1.2,2.3,1.2,4.1v0.8H120c0,1.1,0.3,2,1,2.7c0.6,0.7,1.4,1,2.3,1
		c0.7,0,1.2-0.1,1.7-0.4c0.5-0.3,0.9-0.6,1.2-1.1l1.2,0.9C126.5,133.9,125.1,134.6,123.2,134.6z M123,124.7c-0.8,0-1.4,0.3-1.9,0.8
		c-0.5,0.6-0.8,1.3-1,2.3h5.6v-0.1c-0.1-1-0.3-1.7-0.8-2.2C124.4,124.9,123.8,124.7,123,124.7z"/>
	<path class="st32" d="M135.1,125c-0.3,0-0.6-0.1-0.9-0.1c-1.2,0-2.1,0.5-2.5,1.6v7.9h-1.9v-11.1h1.8l0,1.3c0.6-1,1.5-1.5,2.6-1.5
		c0.4,0,0.6,0,0.8,0.1V125z"/>
	<path class="st32" d="M140.7,131.6l2.6-8.3h2l-4.5,12.8c-0.7,1.8-1.8,2.8-3.3,2.8l-0.4,0l-0.7-0.1v-1.5l0.5,0
		c0.6,0,1.1-0.1,1.5-0.4c0.4-0.3,0.7-0.7,0.9-1.4l0.4-1.1l-4-11h2.1L140.7,131.6z"/>
	<path class="st32" d="M85.3,154.9l0.3,2l0.4-1.8l3-10.4h1.7l2.9,10.4l0.4,1.8l0.3-2l2.3-10.2h2l-3.6,14.9h-1.8L90,148.7l-0.2-1.1
		l-0.2,1.1l-3.2,10.9h-1.8l-3.6-14.9h2L85.3,154.9z"/>
	<path class="st32" d="M100.4,145.6c0-0.3,0.1-0.6,0.3-0.8s0.5-0.3,0.8-0.3s0.6,0.1,0.8,0.3s0.3,0.5,0.3,0.8c0,0.3-0.1,0.6-0.3,0.8
		s-0.5,0.3-0.8,0.3s-0.6-0.1-0.8-0.3S100.4,145.9,100.4,145.6z M102.4,159.6h-1.9v-11.1h1.9V159.6z"/>
	<path class="st32" d="M107.3,148.5l0.1,1.4c0.8-1.1,2-1.6,3.3-1.6c2.3,0,3.5,1.3,3.5,4v7.3h-1.9v-7.3c0-0.8-0.2-1.4-0.5-1.8
		c-0.4-0.4-0.9-0.6-1.7-0.6c-0.6,0-1.2,0.2-1.6,0.5s-0.8,0.8-1.1,1.3v7.9h-1.9v-11.1H107.3z"/>
	<path class="st32" d="M118.9,148.5l0.1,1.4c0.8-1.1,2-1.6,3.3-1.6c2.3,0,3.5,1.3,3.5,4v7.3h-1.9v-7.3c0-0.8-0.2-1.4-0.5-1.8
		c-0.4-0.4-0.9-0.6-1.7-0.6c-0.6,0-1.2,0.2-1.6,0.5s-0.8,0.8-1.1,1.3v7.9h-1.9v-11.1H118.9z"/>
	<path class="st32" d="M133.3,159.8c-1.5,0-2.7-0.5-3.7-1.5c-0.9-1-1.4-2.3-1.4-4V154c0-1.1,0.2-2.1,0.6-2.9c0.4-0.9,1-1.5,1.8-2
		c0.8-0.5,1.6-0.7,2.5-0.7c1.4,0,2.6,0.5,3.4,1.4c0.8,1,1.2,2.3,1.2,4.1v0.8h-7.5c0,1.1,0.3,2,1,2.7c0.6,0.7,1.4,1,2.3,1
		c0.7,0,1.2-0.1,1.7-0.4c0.5-0.3,0.9-0.6,1.2-1.1l1.2,0.9C136.5,159.1,135.1,159.8,133.3,159.8z M133,149.9c-0.8,0-1.4,0.3-1.9,0.8
		c-0.5,0.6-0.8,1.3-1,2.3h5.6v-0.1c-0.1-1-0.3-1.7-0.8-2.2C134.4,150.1,133.8,149.9,133,149.9z"/>
	<path class="st32" d="M145.1,150.2c-0.3,0-0.6-0.1-0.9-0.1c-1.2,0-2.1,0.5-2.5,1.6v7.9h-1.9v-11.1h1.8l0,1.3c0.6-1,1.5-1.5,2.6-1.5
		c0.4,0,0.6,0,0.8,0.1V150.2z"/>
</g>
<g>
	<path class="st32" d="M93.5,452.3c-0.2,1.6-0.8,2.8-1.7,3.7c-1,0.9-2.3,1.3-3.9,1.3c-1.8,0-3.2-0.6-4.2-1.9s-1.6-3-1.6-5.1v-1.4
		c0-1.4,0.2-2.6,0.7-3.7c0.5-1.1,1.2-1.9,2.1-2.4c0.9-0.6,2-0.8,3.2-0.8c1.6,0,2.9,0.4,3.8,1.3c1,0.9,1.5,2.1,1.7,3.7h-2
		c-0.2-1.2-0.5-2.1-1.1-2.6s-1.4-0.8-2.4-0.8c-1.3,0-2.2,0.5-3,1.4s-1.1,2.3-1.1,4v1.4c0,1.6,0.3,2.9,1,3.9c0.7,1,1.6,1.4,2.8,1.4
		c1.1,0,1.9-0.2,2.5-0.7c0.6-0.5,1-1.4,1.2-2.6H93.5z"/>
	<path class="st32" d="M97.9,457H96v-15.8h1.9V457z"/>
	<path class="st32" d="M101,443c0-0.3,0.1-0.6,0.3-0.8s0.5-0.3,0.8-0.3s0.6,0.1,0.8,0.3s0.3,0.5,0.3,0.8c0,0.3-0.1,0.6-0.3,0.8
		s-0.5,0.3-0.8,0.3s-0.6-0.1-0.8-0.3S101,443.3,101,443z M103,457h-1.9v-11.1h1.9V457z"/>
	<path class="st32" d="M110.6,457.2c-1.5,0-2.7-0.5-3.7-1.5c-0.9-1-1.4-2.3-1.4-4v-0.3c0-1.1,0.2-2.1,0.6-2.9c0.4-0.9,1-1.5,1.8-2
		c0.8-0.5,1.6-0.7,2.5-0.7c1.4,0,2.6,0.5,3.4,1.4c0.8,1,1.2,2.3,1.2,4.1v0.8h-7.5c0,1.1,0.3,2,1,2.7c0.6,0.7,1.4,1,2.3,1
		c0.7,0,1.2-0.1,1.7-0.4c0.5-0.3,0.9-0.6,1.2-1.1l1.2,0.9C113.9,456.5,112.5,457.2,110.6,457.2z M110.4,447.3
		c-0.8,0-1.4,0.3-1.9,0.8c-0.5,0.6-0.8,1.3-1,2.3h5.6v-0.1c-0.1-1-0.3-1.7-0.8-2.2C111.8,447.6,111.2,447.3,110.4,447.3z"/>
	<path class="st32" d="M119,445.9l0.1,1.4c0.8-1.1,2-1.6,3.3-1.6c2.3,0,3.5,1.3,3.5,4v7.3H124v-7.3c0-0.8-0.2-1.4-0.5-1.8
		c-0.4-0.4-0.9-0.6-1.7-0.6c-0.6,0-1.2,0.2-1.6,0.5s-0.8,0.8-1.1,1.3v7.9h-1.9v-11.1H119z"/>
	<path class="st32" d="M131.3,443.2v2.7h2.1v1.5h-2.1v6.9c0,0.4,0.1,0.8,0.3,1s0.5,0.3,0.9,0.3c0.2,0,0.5,0,0.9-0.1v1.5
		c-0.5,0.1-1,0.2-1.5,0.2c-0.8,0-1.5-0.3-1.9-0.8c-0.4-0.5-0.6-1.2-0.6-2.2v-6.9h-2v-1.5h2v-2.7H131.3z"/>
	<path class="st32" d="M142.1,454.1c0-0.5-0.2-0.9-0.6-1.2c-0.4-0.3-1.1-0.5-2-0.7s-1.7-0.5-2.3-0.7c-0.6-0.3-1-0.6-1.3-1
		c-0.3-0.4-0.4-0.9-0.4-1.4c0-0.9,0.4-1.7,1.2-2.3c0.8-0.6,1.8-0.9,2.9-0.9c1.3,0,2.3,0.3,3.1,1c0.8,0.7,1.2,1.5,1.2,2.5H142
		c0-0.5-0.2-1-0.7-1.3c-0.4-0.4-1-0.6-1.7-0.6c-0.7,0-1.2,0.2-1.6,0.5s-0.6,0.7-0.6,1.2c0,0.5,0.2,0.8,0.5,1s1,0.5,2,0.7
		c0.9,0.2,1.7,0.5,2.3,0.8c0.6,0.3,1,0.6,1.3,1.1c0.3,0.4,0.4,0.9,0.4,1.5c0,1-0.4,1.8-1.2,2.4c-0.8,0.6-1.8,0.9-3.1,0.9
		c-0.9,0-1.7-0.2-2.4-0.5s-1.2-0.8-1.6-1.3c-0.4-0.6-0.6-1.2-0.6-1.8h1.9c0,0.6,0.3,1.1,0.8,1.5c0.5,0.4,1.1,0.6,1.9,0.6
		c0.7,0,1.3-0.1,1.7-0.4C141.9,455,142.1,454.6,142.1,454.1z"/>
</g>
</svg>
