<?xml version="1.0" encoding="utf-8"?>
<!-- Generator: Adobe Illustrator 25.3.1, SVG Export Plug-In . SVG Version: 6.00 Build 0)  -->
<svg version="1.1" id="Capa_1" xmlns="http://www.w3.org/2000/svg" xmlns:xlink="http://www.w3.org/1999/xlink" x="0px" y="0px"
	 viewBox="0 0 512 512" style="enable-background:new 0 0 512 512;" xml:space="preserve">
<style type="text/css">
	.st0{fill:#FFFFFF;}
</style>
<g>
	<path class="st0" d="M486.7,262.2c-7.2-12.5-24.4-17.6-37.5-10.1l-95.9,55.4c-3.1-11.7-13.8-20.4-26.5-20.4H281
		c-18.5-7.9-38.5-15.5-58.8-15.5c-40.4,0-74.6,28.9-94.1,62.3l-19.7-19.7c-2.9-2.9-7.7-2.9-10.6,0l-15.7,15.7l-5.4-5.4
		c-2.9-2.9-7.7-2.9-10.6,0l-42,41.9c-1.4,1.4-2.2,3.3-2.2,5.3c0,2,0.8,3.9,2.2,5.3L61,413.9c2.9,2.9,7.7,2.9,10.6,0
		c2.9-2.9,2.9-7.7,0-10.6l-31.6-31.6l31.3-31.3l122.1,122.1l-31.3,31.3l-67.4-67.4c-2.9-2.9-7.7-2.9-10.6,0c-2.9,2.9-2.9,7.7,0,10.6
		l72.7,72.7c3.5,2.9,7.1,2.9,10.6,0l41.9-42c2.9-3.5,2.9-7.1,0-10.6l-5.4-5.4l15.7-15.7c2.9-3.5,2.9-7.1,0-10.6l-15.4-15.4h51
		c4.1,0,7.5-3.4,7.5-7.5s-3.4-7.5-7.5-7.5h-66L139.2,345c5.6-10.3,34.1-58.3,83.1-58.3c18.9,0,37.5,7.7,54.7,15
		c0.9,0.3,1.8,0.5,2.7,0.5h47.2c16.4,0,15.3,23.8-0.8,23.8l-90.6,0c-4.1,0-7.5,3.4-7.5,7.5c0,4.1,3.4,7.5,7.5,7.5l90.6,0
		c10.2,0,19.3-5.5,24-14.2l106.7-61.6c6-3.4,13.6-1.4,17,4.6c3.8,6.5-0.4,13.7-5.4,17.6l-126.4,98.8c-7.4,5.8-16.6,9-26,9h-27.9
		c-4.1,0-7.5,3.4-7.5,7.5s3.4,7.5,7.5,7.5h27.9c12.7,0,25.3-4.3,35.3-12.1l126-98.5C490.1,289.6,493.3,277.2,486.7,262.2
		L486.7,262.2z M203.8,430.9l-10.4,10.4L92.7,340.5l10.4-10.4L203.8,430.9z"/>
	<path class="st0" d="M451.2,97.2c-1-4-5.1-6.5-9.1-5.5c-4,1-6.5,5.1-5.5,9.1c1.6,6.6,2.7,13.3,3.1,20.1h-43.6
		c-0.5-16.1-2.5-31.3-5.8-45.1c8.9-5.1,17.2-11.2,24.7-18.3c3.7,4.7,7.2,9.6,10.2,14.9c2,3.6,6.6,4.9,10.2,2.8
		c3.6-2.1,4.9-6.6,2.8-10.2C415.8,25.3,372.4,0,326.7,0c-70,0-128.4,58.5-128.4,128.4c0,70.1,58.3,128.4,128.4,128.4
		C399.1,256.7,472.7,188.3,451.2,97.2z M213.6,135.9h43.6c0.5,18.4,3.1,35.6,7.3,51c-8.1,4.5-15.8,10-22.9,16.3
		C225.6,184.9,215.3,161.5,213.6,135.9z M238.3,57.4c7.5,7.1,15.8,13.2,24.6,18.3c-3.3,13.8-5.3,29-5.8,45.1h-43.6
		C215.2,97,224.2,75.1,238.3,57.4z M334.2,171v-35.2h47c-0.5,15.8-2.7,30.8-6.1,44.3C362.2,175,348.4,171.9,334.2,171z M370.7,194.6
		c-8.6,24.3-21.7,41.5-36.5,46v-54.5C346.9,186.9,359.2,189.8,370.7,194.6L370.7,194.6z M319.2,171c-14.2,0.8-28,3.9-40.9,9.2
		c-3.5-13.5-5.6-28.5-6.1-44.3h47L319.2,171L319.2,171z M319.2,186.1v54.5c-14.8-4.4-27.9-21.7-36.5-46
		C294.2,189.8,306.5,186.9,319.2,186.1z M272.2,120.9c0.4-13.5,2.1-26.3,4.7-38.2c13.4,5.6,27.7,9,42.3,9.9v28.4H272.2z M280.8,68
		c8.5-27.4,22.5-47.1,38.4-51.8v61.4C305.9,76.6,292.8,73.3,280.8,68z M334.2,16.1c15.9,4.8,29.9,24.5,38.4,51.8
		c-12.1,5.4-25.1,8.6-38.4,9.5V16.1z M267.2,60.8c-6.7-4.1-13-9-18.7-14.4c11-10.5,24.1-18.8,38.7-24.3
		C279.1,32.2,272.3,45.4,267.2,60.8z M269.1,201.5c4.8,13,10.9,24.2,18,33.1c-12.9-4.8-24.7-11.9-34.9-20.9
		C257.5,209.1,263.2,205,269.1,201.5L269.1,201.5z M384.3,201.5c6,3.5,11.6,7.6,16.9,12.3c-10.2,8.9-22,16-34.9,20.9
		C373.4,225.7,379.4,214.5,384.3,201.5z M388.9,186.9c4.2-15.4,6.7-32.6,7.3-51h43.6c-1.7,25.7-12,49-28,67.3
		C404.7,196.8,397.1,191.4,388.9,186.9z M381.2,120.9h-47V92.5c14.6-0.9,28.9-4.2,42.3-9.9C379.1,94.5,380.7,107.4,381.2,120.9z
		 M366.3,22.2c14.3,5.4,27.5,13.6,38.6,24.2c-5.7,5.5-12,10.3-18.7,14.4C381.1,45.4,374.4,32.3,366.3,22.2L366.3,22.2z"/>
</g>
</svg>
