<?xml version="1.0" encoding="utf-8"?>
<!-- Generator: Adobe Illustrator 25.3.1, SVG Export Plug-In . SVG Version: 6.00 Build 0)  -->
<svg version="1.1" id="Capa_1" xmlns="http://www.w3.org/2000/svg" xmlns:xlink="http://www.w3.org/1999/xlink" x="0px" y="0px"
	 viewBox="0 0 512 512" style="enable-background:new 0 0 512 512;" xml:space="preserve">
<style type="text/css">
	.st0{fill:#FFFFFF;}
</style>
<g>
	<g>
		<path class="st0" d="M472.8,161.9c-2.8-14.5-14.2-25.9-28.7-28.7c-3.4-29.9-28.8-53.2-59.6-53.2h-41.3C339.4,35.2,301.7,0,256,0
			s-83.4,35.2-87.2,80h-41.3c-30.8,0-56.2,23.3-59.6,53.2c-14.4,2.9-25.9,14.3-28.7,28.7C17.1,165,0,184.1,0,207v282.5
			c0,4.1,3.4,7.5,7.5,7.5H120v7.5c0,2,0.8,3.9,2.2,5.3c1.4,1.4,3.3,2.2,5.3,2.2h257c2,0,3.9-0.8,5.3-2.2c1.4-1.4,2.2-3.3,2.2-5.3
			V497h112.5c4.1,0,7.5-3.4,7.5-7.5V207C512,184.1,494.9,165,472.8,161.9z M38.5,482H15V207c0-14.4,10-26.5,23.5-29.7V482z M256,15
			c37.4,0,68.4,28.5,72.1,65h-114c3.5-19.6,20.7-35,41.8-35c14,0,27.1,6.9,35.1,18.5c2.3,3.4,7,4.3,10.4,1.9c3.4-2.3,4.3-7,1.9-10.4
			C292.7,39.4,275,30,256,30c-29.2,0-53.3,21.8-57,50h-15.1C187.6,43.5,218.6,15,256,15z M127.5,95h257c24.8,0,45,20.2,45,45
			s-20.2,45-45,45h-257c-24.8,0-45-20.2-45-45S102.7,95,127.5,95z M248.5,497h-61V289c0-3.6,2.9-6.5,6.5-6.5h54.5V497z M324.5,497
			h-61V282.5H318c3.6,0,6.5,2.9,6.5,6.5V497z M458.5,482H392V312.5c0-4.1-3.4-7.5-7.5-7.5c-4.1,0-7.5,3.4-7.5,7.5V497h-37.5V289
			c0-0.1,0-0.2,0-0.3c0,0,0,0,0,0c0-0.1,0-0.2,0-0.2c0,0,0,0,0,0c-0.1-5.5-2.4-10.7-6.3-14.6c-3.9-3.9-9.1-6.1-14.6-6.3c0,0,0,0,0,0
			c-0.1,0-0.2,0-0.2,0c0,0,0,0,0,0c-0.1,0-0.2,0-0.3,0H194c-0.1,0-0.2,0-0.3,0c0,0,0,0,0,0c-0.1,0-0.2,0-0.2,0c0,0,0,0,0,0
			c-5.5,0.1-10.7,2.4-14.6,6.3c-3.9,3.9-6.1,9.1-6.3,14.6c0,0,0,0,0,0c0,0.1,0,0.2,0,0.2c0,0,0,0,0,0c0,0.1,0,0.2,0,0.3v208H135
			V282.5c0-14,5.5-27.2,15.4-37.1s23.1-15.4,37.1-15.4h137c14,0,27.2,5.5,37.1,15.4s15.4,23.1,15.4,37.1c0,4.1,3.4,7.5,7.5,7.5
			c4.1,0,7.5-3.4,7.5-7.5c0-18.1-7.1-35.1-19.8-47.7c-12.9-12.9-30.1-19.8-47.7-19.8h-137c-18.5,0-35.4,7.5-47.7,19.8
			c-12.6,12.6-19.8,29.7-19.8,47.7V482H53.5V169c0-9.4,6.1-17.5,14.6-20.4c4.2,29,29.2,51.4,59.4,51.4h257
			c30.2,0,55.2-22.4,59.4-51.4c8.5,2.9,14.6,10.9,14.6,20.4V482z M497,482h-23.5V177.3C487,180.5,497,192.6,497,207V482z"/>
	</g>
</g>
<g>
	<g>
		<path class="st0" d="M226,468.3c-4.1,0-7.5,3.4-7.5,7.5c0,4.2,3.4,7.5,7.5,7.5c4.1,0,7.5-3.4,7.5-7.5
			C233.5,471.7,230.1,468.3,226,468.3z"/>
	</g>
</g>
<g>
	<g>
		<path class="st0" d="M226,439.6c-4.1,0-7.5,3.4-7.5,7.5c0,4.1,3.4,7.5,7.5,7.5c4.1,0,7.5-3.4,7.5-7.5
			C233.5,443,230.1,439.6,226,439.6z"/>
	</g>
</g>
<g>
	<g>
		<path class="st0" d="M226,296.3c-4.1,0-7.5,3.4-7.5,7.5c0,4.1,3.4,7.5,7.5,7.5c4.1,0,7.5-3.4,7.5-7.5
			C233.5,299.6,230.1,296.3,226,296.3z"/>
	</g>
</g>
<g>
	<g>
		<circle class="st0" cx="226" cy="361.1" r="7.5"/>
	</g>
</g>
<g>
	<g>
		<path class="st0" d="M226,382.3c-4.1,0-7.5,3.4-7.5,7.5c0,4.1,3.4,7.5,7.5,7.5c4.1,0,7.5-3.4,7.5-7.5
			C233.5,385.6,230.1,382.3,226,382.3z"/>
	</g>
</g>
<g>
	<g>
		<path class="st0" d="M226,411c-4.1,0-7.5,3.4-7.5,7.5c0,4.1,3.4,7.5,7.5,7.5c4.1,0,7.5-3.4,7.5-7.5C233.5,414.3,230.1,411,226,411
			z"/>
	</g>
</g>
<g>
	<g>
		<circle class="st0" cx="226" cy="332.4" r="7.5"/>
	</g>
</g>
<g>
	<g>
		<path class="st0" d="M286,353.5c-4.1,0-7.5,3.4-7.5,7.5c0,4.2,3.4,7.5,7.5,7.5c4.1,0,7.5-3.4,7.5-7.5
			C293.5,356.9,290.1,353.5,286,353.5z"/>
	</g>
</g>
<g>
	<g>
		<circle class="st0" cx="286" cy="389.7" r="7.5"/>
	</g>
</g>
<g>
	<g>
		<circle class="st0" cx="286" cy="418.4" r="7.5"/>
	</g>
</g>
<g>
	<g>
		<path class="st0" d="M286,439.6c-4.1,0-7.5,3.4-7.5,7.5c0,4.1,3.4,7.5,7.5,7.5c4.1,0,7.5-3.4,7.5-7.5
			C293.5,442.9,290.1,439.6,286,439.6z"/>
	</g>
</g>
<g>
	<g>
		<path class="st0" d="M286,468.2c-4.1,0-7.5,3.4-7.5,7.5c0,4.1,3.4,7.5,7.5,7.5c4.1,0,7.5-3.4,7.5-7.5
			C293.5,471.6,290.1,468.2,286,468.2z"/>
	</g>
</g>
<g>
	<g>
		<circle class="st0" cx="286" cy="303.7" r="7.5"/>
	</g>
</g>
<g>
	<g>
		<path class="st0" d="M286,324.8c-4.1,0-7.5,3.4-7.5,7.5c0,4.1,3.4,7.5,7.5,7.5c4.1,0,7.5-3.4,7.5-7.5
			C293.5,328.2,290.1,324.8,286,324.8z"/>
	</g>
</g>
</svg>
