<?xml version="1.0" encoding="utf-8"?>
<!-- Generator: Adobe Illustrator 25.3.1, SVG Export Plug-In . SVG Version: 6.00 Build 0)  -->
<svg version="1.1" id="Capa_1" xmlns="http://www.w3.org/2000/svg" xmlns:xlink="http://www.w3.org/1999/xlink" x="0px" y="0px"
	 viewBox="0 0 512 512" style="enable-background:new 0 0 512 512;" xml:space="preserve">
<style type="text/css">
	.st0{fill:#FFFFFF;}
</style>
<g>
	<path class="st0" d="M476.3,337.7l-27.5-51.8c-1.9-3.5-6.5-5.1-10.2-3.1c-13.4,7.2-30.7,1.8-37.8-11.6
		c-7.3-13.7-2.1-30.9,11.5-38.2c3.6-2,5-6.5,3.1-10.1l-25.1-47.3l29.7-29.9c2.9-2.9,2.9-7.6,0-10.6l-41.3-41.6
		c-2.9-2.9-7.8-2.9-10.6,0c-10.8,10.8-28.7,10.8-39.5,0c-10.9-11-10.9-28.9,0-39.9c2.9-2.9,2.9-7.6,0-10.6L287.2,1.5
		c-2.9-2.9-7.8-2.9-10.6,0L263.3,15c-6.6,6.7,3.7,17.5,10.6,10.6l8-8.1l31.1,31.4c-11.7,16.8-10.1,40.3,4.8,55.3
		c14.5,14.6,38.2,16.8,55,4.9l31.2,31.4c-9.5,9.6-19.2,18.9-28.5,28.7l-22.4,12.1L236.2,63.5l7.7-7.7c6.6-6.7-3.7-17.5-10.6-10.6
		L34.7,245.3c-2.9,2.9-2.9,7.6,0,10.6l41.3,41.6c3.2,3.2,7.9,2.6,10.9-0.3c5.3-5.3,12.3-8.2,19.7-8.2c9.2,0,18.2,4.9,23.3,12.7
		l-54,29.1c-3.6,2-5,6.5-3.1,10.1l27.5,51.8c1.9,3.5,6.6,5.1,10.3,3c13.6-7.2,30.8-2.3,38.1,11.4c7.3,13.7,2.1,30.9-11.4,38.2
		c-3.6,2-5.7,6.1-3.5,10.3l27.5,51.8c1.9,3.6,6.5,5,10.2,3.1l55.2-29.8c8.3-4.5,1.5-17.9-7.1-13.2l-48.6,26.2l-20.8-39.1
		c16.3-12.6,21.7-35.7,11.7-54.6c-9.7-18.3-31.9-27.3-51.6-20.6l-20.8-39.1l288.5-155.5l20.8,39.2c-16.1,12.7-21.3,35.6-11.3,54.3
		c9.6,18.1,31.6,27.2,51.2,20.7l20.8,39.2L254.4,448.8c-8.3,4.5-1.5,17.9,7.1,13.2l211.7-114.1C476.9,345.9,478.2,341.4,476.3,337.7
		L476.3,337.7z M339.3,188.7l-34.8,18.8c-0.2-4.5-1.5-8.8-3.9-12.6c10.6-16.8-1.8-38.7-21.4-39.2c-5,0-10.8,1.4-17.6,4.1
		c2.8-6.8,4.1-12.7,4.1-17.7c0-19.6-22.3-32.1-38.9-21.5c-16.6-10.5-38.9,2-38.9,21.6c0,5.1,1.4,11,4.1,17.8
		c-6.7-2.8-12.6-4.1-17.6-4.1c-19.5,0.4-32.1,22.3-21.5,39.2c-10.6,16.8,1.8,38.7,21.4,39.2c5,0,10.8-1.4,17.6-4.1
		c-2.8,6.8-4.1,12.7-4.1,17.7c0,7.2,2.9,13.7,7.7,18.3l-11,5.9l-77.7-78.3L225.6,74.2L339.3,188.7z M210.6,258
		c-4.5-1.1-7.8-5.3-7.8-10.2c0-3.9,1.8-13.2,13.6-32c4.2-6.6-3.8-14.5-10.4-10.3c-18.6,11.9-27.8,13.7-31.7,13.7
		c-9.4-0.1-13.9-12.3-6.7-18.5c3.4-2.9,3.4-8.4,0-11.3c-7.2-6.3-2.6-18.4,6.8-18.5c3.8,0,13,1.8,31.6,13.6
		c6.6,4.2,14.5-3.7,10.4-10.3c-11.8-18.8-13.6-28.1-13.6-32c0-9.4,12-14.2,18.2-6.9c2.9,3.4,8.5,3.4,11.4,0
		c6.2-7.2,18.2-2.7,18.2,6.8c0,3.9-1.8,13.2-13.6,32c-4.2,6.6,3.8,14.5,10.4,10.3c18.6-11.9,27.8-13.7,31.7-13.7
		c9.4,0.1,13.9,12.3,6.7,18.5c-3.4,2.9-3.4,8.4,0,11.3c7.2,6.3,2.6,18.4-6.8,18.5c-3.8,0-13-1.8-31.7-13.6
		c-6.6-4.2-14.5,3.7-10.4,10.3c5.3,8.4,9.1,15.8,11.3,22L210.6,258z M137,286.5c-14.6-14.7-38.5-16.8-55.3-4.7l-31.1-31.3l45.7-46.1
		l74.5,75l-27.6,14.9C141.4,291.5,139.4,288.9,137,286.5L137,286.5z"/>
	<path class="st0" d="M184.8,465.3c1.2,0,2.4-0.3,3.6-0.9l237.5-128c8.3-4.5,1.5-17.9-7.1-13.2l-237.5,128
		C174.7,454.8,177.3,465.3,184.8,465.3z"/>
	<path class="st0" d="M360.8,214L123.3,342c-8.3,4.5-1.5,17.8,7.1,13.2l237.5-128C376.2,222.8,369.4,209.4,360.8,214z"/>
	<path class="st0" d="M180.5,376.4l12.7,3.9l-3.9,12.9c-1.2,4,1.1,8.1,5,9.3c3.7,1.1,8.2-1.3,9.3-5l3.9-12.8l12.7,3.9
		c3.7,1.1,8.2-1.3,9.4-5c1.2-4-1-8.2-5-9.4l-12.7-3.9l3.9-12.9c1.2-4-1.1-8.1-5-9.3c-4-1.2-8.1,1.1-9.3,5l-3.9,12.8l-12.7-3.9
		c-4-1.2-8.2,1-9.4,5C174.3,371,176.5,375.2,180.5,376.4L180.5,376.4z"/>
	<path class="st0" d="M244.6,375.4c3.7,1.1,8.2-1.3,9.3-5l3.9-12.8l12.7,3.9c3.7,1.1,8.2-1.3,9.4-5c1.2-4-1-8.2-5-9.4l-12.7-3.9
		l3.9-12.9c1.2-4-1.1-8.1-5-9.3c-4-1.2-8.1,1.1-9.3,5l-3.9,12.8l-12.7-3.9c-4-1.2-8.2,1-9.4,5c-1.2,4,1,8.2,5,9.4l12.7,3.9
		l-3.9,12.9C238.4,370,240.6,374.2,244.6,375.4L244.6,375.4z"/>
	<path class="st0" d="M294.8,348.3c3.7,1.1,8.2-1.3,9.3-5l3.9-12.8l12.7,3.9c3.7,1.1,8.2-1.3,9.4-5c1.2-4-1-8.2-5-9.4l-12.7-3.9
		l3.9-12.9c1.2-4-1.1-8.1-5-9.3c-4-1.2-8.1,1.1-9.3,5l-3.9,12.8l-12.7-3.9c-4-1.2-8.2,1-9.4,5c-1.2,4,1,8.2,5,9.4l12.7,3.9
		l-3.9,12.9C288.6,343,290.8,347.2,294.8,348.3z"/>
	<path class="st0" d="M345,321.3c3.7,1.1,8.2-1.3,9.3-5l3.9-12.8l12.7,3.9c3.7,1.1,8.2-1.3,9.4-5c1.2-4-1-8.2-5-9.4l-12.7-3.9
		l3.9-12.9c1.2-4-1.1-8.1-5-9.3c-4-1.2-8.1,1.1-9.3,5l-3.9,12.8l-12.7-3.9c-4-1.2-8.2,1-9.4,5c-1.2,4,1,8.2,5,9.4l12.7,3.9
		l-3.9,12.9C338.8,315.9,341,320.1,345,321.3z"/>
</g>
</svg>
