<svg width="43" height="43" viewBox="0 0 43 43" fill="none" xmlns="http://www.w3.org/2000/svg">
<g clip-path="url(#clip0_83_22)">
<path d="M39.4846 13.2827C39.9498 11.8868 40.1827 10.4398 40.1827 8.94116C40.1827 6.94269 39.7429 5.06478 38.8645 3.30762C37.0215 3.30762 35.3935 3.64386 33.9805 4.31554C32.5681 4.9874 30.9574 6.02962 29.1491 7.44222C26.8753 6.89101 24.4628 6.61541 21.9136 6.61541C19.1226 6.61541 16.4608 6.91708 13.9285 7.51997C12.0854 6.07271 10.4574 5.00921 9.04469 4.32857C7.63201 3.64794 5.99549 3.30771 4.13478 3.30771C3.2562 5.06487 2.81695 6.94287 2.81695 8.94125C2.81695 10.4574 3.04938 11.9218 3.51461 13.3342C1.17138 16.0736 0 19.4844 0 23.5674C0 27.1512 0.53383 30.002 1.60212 32.1213C2.1708 33.2406 2.91135 34.2313 3.82451 35.0929C4.73731 35.954 5.77963 36.6522 6.95119 37.1864C8.12294 37.7201 9.30274 38.164 10.4916 38.5168C11.6804 38.8698 12.9938 39.1285 14.4324 39.2915C15.8709 39.4559 17.1414 39.5634 18.2439 39.6155C19.3464 39.6665 20.5694 39.6927 21.9135 39.6927C23.4982 39.6927 24.9362 39.6536 26.2289 39.5765C27.5211 39.4992 28.998 39.3093 30.6606 39.0085C32.323 38.7068 33.7875 38.2974 35.054 37.7807C36.3202 37.2641 37.5351 36.5231 38.6979 35.5586C39.8606 34.5935 40.7691 33.4481 41.4241 32.1214C42.4744 29.9851 43.0001 27.1336 43.0001 23.5675C42.9995 19.4672 41.828 16.0391 39.4846 13.2827ZM36.3847 32.0819C35.8333 33.2107 35.1355 34.0971 34.2915 34.7438C33.4471 35.39 32.3964 35.9066 31.1389 36.2947C29.8808 36.6822 28.6755 36.9362 27.5211 37.0564C26.3664 37.1771 25.0834 37.2372 23.6703 37.2372H19.3289C17.9163 37.2372 16.6326 37.1771 15.4785 37.0564C14.3243 36.9362 13.1185 36.6822 11.8607 36.2947C10.6035 35.9066 9.55273 35.39 8.70836 34.7438C7.86399 34.097 7.16633 33.2107 6.61504 32.0819C6.06383 30.9532 5.78813 29.6313 5.78813 28.1154C5.78813 26.0475 6.38252 24.2901 7.57137 22.8436C8.76013 21.3964 10.3708 20.673 12.4034 20.673C13.1445 20.673 14.8242 20.8538 17.4428 21.2156C18.6659 21.4051 20.0183 21.4998 21.4997 21.4998C22.9816 21.4998 24.3339 21.4053 25.5568 21.2156C28.2103 20.8537 29.8894 20.673 30.5962 20.673C32.6288 20.673 34.2394 21.3967 35.4282 22.8436C36.617 24.2907 37.2111 26.0475 37.2111 28.1154C37.2111 29.6315 36.9354 30.9542 36.3847 32.0819Z" fill="#FDDE77"/>
<path d="M15.1039 24.0324C14.5784 23.4463 13.9541 23.1533 13.2304 23.1533C12.5065 23.1533 11.8822 23.4467 11.3568 24.0324C10.8316 24.6178 10.461 25.2726 10.2458 25.9954C10.0301 26.7197 9.92255 27.4259 9.92255 28.1154C9.92255 28.8042 10.0303 29.5104 10.2458 30.2346C10.4607 30.9578 10.8312 31.6123 11.3568 32.1977C11.8825 32.7837 12.5065 33.0768 13.2304 33.0768C13.9541 33.0768 14.5787 32.7832 15.1039 32.1977C15.6292 31.6122 15.9997 30.9578 16.2149 30.2346C16.4303 29.5104 16.5381 28.8042 16.5381 28.1154C16.5381 27.4265 16.4306 26.7197 16.2149 25.9954C15.9996 25.2729 15.6295 24.6183 15.1039 24.0324Z" fill="#FDDE77"/>
<path d="M31.6424 24.0324C31.1171 23.4463 30.4927 23.1533 29.7692 23.1533C29.0459 23.1533 28.4211 23.4467 27.8955 24.0324C27.3702 24.6178 26.9998 25.2726 26.7848 25.9954C26.569 26.7197 26.4612 27.4259 26.4612 28.1154C26.4612 28.8042 26.569 29.5104 26.7848 30.2346C26.9998 30.9578 27.3703 31.6123 27.8955 32.1977C28.4212 32.7837 29.0459 33.0768 29.7692 33.0768C30.4927 33.0768 31.1172 32.7832 31.6424 32.1977C32.1675 31.6122 32.5381 30.9578 32.7537 30.2346C32.9691 29.5104 33.0768 28.8042 33.0768 28.1154C33.0768 27.4265 32.9691 26.7197 32.7537 25.9954C32.5382 25.2729 32.1675 24.6183 31.6424 24.0324Z" fill="#FDDE77"/>
</g>
<defs>
<clipPath id="clip0_83_22">
<rect width="43" height="43" fill="white"/>
</clipPath>
</defs>
</svg>
